<svg xmlns="http://www.w3.org/2000/svg" viewBox="0 0 60 53.91"><title>360 mobile</title><g id="Layer_2" data-name="Layer 2"><g id="Layer_1-2" data-name="Layer 1"><path id="_360_mobile" data-name="360 mobile" d="M60,30.91c0-4.52-3.62-8.58-10-11.35V11A11,11,0,0,0,39,0H21A11,11,0,0,0,10,11v8.56C3.62,22.33,0,26.39,0,30.91c0,7.36,9.56,13.16,23.13,14.64l-3.25,3.24A3,3,0,0,0,24.12,53l8-8a3,3,0,0,0,0-4.25l-8-8A3,3,0,0,0,19.88,37l2.34,2.34A43.16,43.16,0,0,1,16,38.06V11a5,5,0,0,1,5-5h1.18A3,3,0,0,0,25,8H35a3,3,0,0,0,2.82-2H39a5,5,0,0,1,5,5V38.06c-.67.19-1.37.38-2.11.56a3,3,0,0,0,.68,5.92,3.32,3.32,0,0,0,.69-.08A42.65,42.65,0,0,0,48.14,43h0C55.66,40.26,60,35.92,60,30.91Zm-54,0c0-1.5,1.49-3.18,4-4.65v9.3C7.5,34.08,6,32.39,6,30.91Zm44-4.65c2.51,1.47,4,3.15,4,4.65S52.71,34,50,35.58Z"/></g></g></svg>