<svg xmlns="http://www.w3.org/2000/svg" viewBox="0 0 60 38"><title>360</title><g id="Layer_2" data-name="Layer 2"><g id="Layer_1-2" data-name="Layer 1"><path id="_360" data-name="360" d="M30,0C12.9,0,0,6.45,0,15c0,7.36,9.56,13.16,23.13,14.63l-3.25,3.25a3,3,0,0,0,0,4.24,3,3,0,0,0,4.24,0l8-8a3,3,0,0,0,0-4.24l-8-8a3,3,0,0,0-4.24,4.24l2.34,2.34C12.12,22,6,18,6,15c0-1.86,2.35-4.06,6.13-5.74C16.85,7.16,23.2,6,30,6c14.65,0,24,5.33,24,9,0,2.34-3.79,5.75-12.11,7.7a3,3,0,1,0,1.37,5.84C53.74,26.09,60,21,60,15,60,6.45,47.1,0,30,0Z"/></g></g></svg>