<svg xmlns="http://www.w3.org/2000/svg" viewBox="0 0 59 57"><title>4k</title><g id="Layer_2" data-name="Layer 2"><g id="Layer_1-2" data-name="Layer 1"><g id="_4k" data-name="4k"><path d="M48.5,0h-38A10.51,10.51,0,0,0,0,10.5v25A10.51,10.51,0,0,0,10.5,46H27v6H17.5a2.5,2.5,0,0,0,0,5h24a2.5,2.5,0,0,0,0-5H32V46H48.5A10.51,10.51,0,0,0,59,35.5v-25A10.51,10.51,0,0,0,48.5,0ZM28,32a2,2,0,0,1-4,0V25H16a2,2,0,0,1-2-2V14a2,2,0,1,1,4,0v7h6V14a2,2,0,1,1,4,0ZM44.4,33.44A2,2,0,0,1,43,34a2,2,0,0,1-1.44-.61L36.32,28V32a2,2,0,0,1-4,0V14a2,2,0,0,1,4,0v4.47l4.35-3.95a2,2,0,0,1,2.82.13,2,2,0,0,1-.13,2.83l-6.17,5.61,7.26,7.52A2,2,0,0,1,44.4,33.44Z"/></g></g></g></svg>