<svg xmlns="http://www.w3.org/2000/svg" viewBox="0 0 59 57"><title>5k</title><g id="Layer_2" data-name="Layer 2"><g id="Layer_1-2" data-name="Layer 1"><g id="_5k" data-name="5k"><path d="M48.5,0h-38A10.51,10.51,0,0,0,0,10.5v25A10.51,10.51,0,0,0,10.5,46H27v6H17.5a2.5,2.5,0,0,0,0,5h24a2.5,2.5,0,0,0,0-5H32V46H48.5A10.51,10.51,0,0,0,59,35.5v-25A10.51,10.51,0,0,0,48.5,0ZM20.93,34.33A7.74,7.74,0,0,1,14,30a2,2,0,1,1,3.6-1.73,3.71,3.71,0,1,0,3.36-5.31H17.76a2,2,0,0,1-2-2V14.33a2,2,0,0,1,2-2h8.17a2,2,0,1,1,0,4H19.76v2.58h1.17a7.71,7.71,0,1,1,0,15.42Zm23.69-.56a2,2,0,0,1-2.83-.05l-5.25-5.44v4a2,2,0,0,1-4,0v-18a2,2,0,1,1,4,0v4.48l4.34-4a2,2,0,1,1,2.69,3l-6.16,5.62,7.26,7.51A2,2,0,0,1,44.62,33.77Z"/></g></g></g></svg>