<svg xmlns="http://www.w3.org/2000/svg" viewBox="0 0 60 60"><title>add post</title><g id="Layer_2" data-name="Layer 2"><g id="Layer_1-2" data-name="Layer 1"><g id="add_post" data-name="add post"><path d="M49,60H11A11,11,0,0,1,0,49V11A11,11,0,0,1,11,0H30a3,3,0,0,1,0,6H11a5,5,0,0,0-5,5V49a5,5,0,0,0,5,5H49a5,5,0,0,0,5-5V30a3,3,0,0,1,6,0V49A11,11,0,0,1,49,60Z"/><path d="M29.79,38.3h0Zm29-29L50.71,1.21a2.42,2.42,0,0,0-3.43,0L42.06,6.44,53.57,18l5.22-5.23A2.41,2.41,0,0,0,58.79,9.3ZM20,28.49a2.44,2.44,0,0,0-.64,1.11L16.58,40.47a2.41,2.41,0,0,0,3,3L30.4,40.64A2.44,2.44,0,0,0,31.51,40L50.14,21.37,38.63,9.86Z"/></g></g></g></svg>