<svg xmlns="http://www.w3.org/2000/svg" viewBox="0 0 59 49"><title>add account</title><g id="Layer_2" data-name="Layer 2"><g id="Layer_1-2" data-name="Layer 1"><g id="add_account" data-name="add account"><path d="M58.84,41.7a20.89,20.89,0,0,0-40.67,0,5.86,5.86,0,0,0,1.13,5A6,6,0,0,0,24.06,49H53a6,6,0,0,0,4.75-2.3A5.83,5.83,0,0,0,58.84,41.7Z"/><circle cx="38.51" cy="10.5" r="10.5"/><path d="M22,11.31a2.5,2.5,0,0,0-2.5-2.5h-6v-6a2.5,2.5,0,0,0-5,0v6h-6a2.5,2.5,0,0,0,0,5h6v6a2.5,2.5,0,0,0,5,0v-6h6A2.5,2.5,0,0,0,22,11.31Z"/></g></g></g></svg>