<svg xmlns="http://www.w3.org/2000/svg" viewBox="0 0 59 44.7"><title>air conditioner
</title><g id="Layer_2" data-name="Layer 2"><g id="Layer_1-2" data-name="Layer 1"><g id="air_conditioner_" data-name="air conditioner
"><rect x="16" y="17.52" width="27" height="9"/><path d="M50.5,0H8.5A8.51,8.51,0,0,0,0,8.5V18a8.51,8.51,0,0,0,8.5,8.5H11V15a2.5,2.5,0,0,1,2.5-2.5h32A2.5,2.5,0,0,1,48,15v11.5h2.5A8.51,8.51,0,0,0,59,18V8.5A8.51,8.51,0,0,0,50.5,0Z"/><path d="M33.78,30.88a2.5,2.5,0,0,0-2.5,2.5V42.2a2.5,2.5,0,0,0,5,0V33.38A2.5,2.5,0,0,0,33.78,30.88Z"/><path d="M25.22,30.88a2.5,2.5,0,0,0-2.5,2.5V42.2a2.5,2.5,0,0,0,5,0V33.38A2.5,2.5,0,0,0,25.22,30.88Z"/><path d="M49,39.74a5.13,5.13,0,0,1-4.15-5.92A2.5,2.5,0,1,0,39.93,33a10.1,10.1,0,0,0,8.2,11.71,2.18,2.18,0,0,0,.44,0,2.5,2.5,0,0,0,.43-5Z"/><path d="M16.18,30.93a2.5,2.5,0,0,0-2,2.89,5.12,5.12,0,0,1-.85,3.82,5.06,5.06,0,0,1-3.3,2.1,2.5,2.5,0,0,0,.43,5,3.25,3.25,0,0,0,.44,0A10.1,10.1,0,0,0,19.07,33,2.48,2.48,0,0,0,16.18,30.93Z"/></g></g></g></svg>