<svg xmlns="http://www.w3.org/2000/svg" viewBox="0 0 59 59"><title>airplanemode inactive</title><g id="Layer_2" data-name="Layer 2"><g id="Layer_1-2" data-name="Layer 1"><g id="airplanemode_inactive" data-name="airplanemode inactive"><path d="M49.2,38.09l2.18.5a5,5,0,0,0,3.46-9.27L35.78,19.2l.35-12.37a6.64,6.64,0,1,0-13.27,0L23,11.89Z"/><path d="M58.14,54,5,.87A3,3,0,0,0,.86,5L18.29,22.46,4.16,30a5,5,0,0,0,3.45,9.27l16.07-3.68L24,46.33l-5.3,4.08a1.06,1.06,0,0,0-.41.84V58a1.06,1.06,0,0,0,1.47,1l9.75-4.24,9.74,4.24a1.16,1.16,0,0,0,.42.08,1.12,1.12,0,0,0,.58-.17,1.06,1.06,0,0,0,.47-.88v-6.7a1.06,1.06,0,0,0-.41-.84L35,46.33l.21-6.95L54,58.14a3,3,0,0,0,4.18,0A3,3,0,0,0,58.14,54Z"/></g></g></g></svg>