<svg xmlns="http://www.w3.org/2000/svg" viewBox="0 0 55.98 59"><title>airplanemode active</title><g id="Layer_2" data-name="Layer 2"><g id="Layer_1-2" data-name="Layer 1"><path id="airplanemode_active" data-name="airplanemode active" d="M53.33,29.32,34.27,19.2l.36-12.37a6.64,6.64,0,1,0-13.28,0l.37,13L2.65,30A5,5,0,0,0,6.1,39.23l16.07-3.68.31,10.77-5.3,4.09a1.05,1.05,0,0,0-.41.83V58a1.06,1.06,0,0,0,.48.88,1.07,1.07,0,0,0,1,.08L28,54.68l9.74,4.23a1.06,1.06,0,0,0,.42.09,1.12,1.12,0,0,0,.58-.17A1.05,1.05,0,0,0,39.2,58V51.24a1.05,1.05,0,0,0-.41-.83L33.5,46.32l.32-11.41,16.06,3.68a5,5,0,0,0,3.45-9.27Z"/></g></g></svg>