<svg xmlns="http://www.w3.org/2000/svg" viewBox="0 0 59 56.54"><title>airplay</title><g id="Layer_2" data-name="Layer 2"><g id="Layer_1-2" data-name="Layer 1"><g id="airplay"><path d="M48.18,49.17H44.25a2.95,2.95,0,1,1,0-5.9h3.93a4.93,4.93,0,0,0,4.92-4.92V10.82A4.93,4.93,0,0,0,48.18,5.9H10.82A4.93,4.93,0,0,0,5.9,10.82V38.35a4.93,4.93,0,0,0,4.92,4.92h3.93a3,3,0,1,1,0,5.9H10.82A10.83,10.83,0,0,1,0,38.35V10.82A10.83,10.83,0,0,1,10.82,0H48.18A10.83,10.83,0,0,1,59,10.82V38.35A10.83,10.83,0,0,1,48.18,49.17Z"/><path d="M39.33,56.54H19.67a2.46,2.46,0,0,1-2.09-3.76l9.84-15.73a2.44,2.44,0,0,1,4.16,0l9.84,15.73a2.46,2.46,0,0,1-2.09,3.76Z"/></g></g></g></svg>