<svg xmlns="http://www.w3.org/2000/svg" viewBox="0 0 56.95 59"><title>alarm</title><g id="Layer_2" data-name="Layer 2"><g id="Layer_1-2" data-name="Layer 1"><g id="alarm"><path d="M28.47,7.37A25.82,25.82,0,1,0,54.29,33.18,25.84,25.84,0,0,0,28.47,7.37Zm8.9,35.48a2.52,2.52,0,0,1-3.42.92l-6.73-3.89A2.5,2.5,0,0,1,26,37.72v-13a2.5,2.5,0,0,1,5,0V36.27l5.48,3.17A2.49,2.49,0,0,1,37.37,42.85Z"/><path d="M56.52,12.75A31.32,31.32,0,0,0,39.28.19,2.5,2.5,0,1,0,37.91,5,26.32,26.32,0,0,1,52.38,15.56a2.5,2.5,0,1,0,4.14-2.81Z"/><path d="M4.57,15.47A26.86,26.86,0,0,1,19.07,4.89,2.49,2.49,0,1,0,17.64.11,31.89,31.89,0,0,0,.43,12.66a2.5,2.5,0,0,0,.67,3.47,2.42,2.42,0,0,0,1.4.44A2.5,2.5,0,0,0,4.57,15.47Z"/></g></g></g></svg>