<svg xmlns="http://www.w3.org/2000/svg" viewBox="0 0 56.95 59"><title>alarm on</title><g id="Layer_2" data-name="Layer 2"><g id="Layer_1-2" data-name="Layer 1"><g id="alarm_on" data-name="alarm on"><path d="M56.52,12.76A31.26,31.26,0,0,0,39.28.19,2.5,2.5,0,1,0,37.91,5,26.32,26.32,0,0,1,52.38,15.56a2.5,2.5,0,1,0,4.14-2.8Z"/><path d="M4.57,15.47A26.86,26.86,0,0,1,19.07,4.89,2.49,2.49,0,1,0,17.64.11,31.89,31.89,0,0,0,.43,12.66a2.5,2.5,0,0,0,.67,3.47,2.42,2.42,0,0,0,1.4.44A2.5,2.5,0,0,0,4.57,15.47Z"/><path d="M28.47,7.37A25.82,25.82,0,1,0,54.29,33.18,25.84,25.84,0,0,0,28.47,7.37ZM41.24,27.92,27.19,42a2.51,2.51,0,0,1-3.54,0L15.71,34a2.5,2.5,0,0,1,3.53-3.53l6.18,6.18L37.71,24.39a2.5,2.5,0,0,1,3.53,3.53Z"/></g></g></g></svg>