<svg xmlns="http://www.w3.org/2000/svg" viewBox="0 0 59 59"><title>alarm off</title><g id="Layer_2" data-name="Layer 2"><g id="Layer_1-2" data-name="Layer 1"><g id="alarm_off" data-name="alarm off"><path d="M53.59,42.47a25.55,25.55,0,0,0,1.73-9.28A25.85,25.85,0,0,0,29.5,7.37,25.55,25.55,0,0,0,20.22,9.1Z"/><path d="M38.93,5A26.25,26.25,0,0,1,53.4,15.56a2.53,2.53,0,0,0,2.08,1.1,2.5,2.5,0,0,0,2.06-3.91A31.27,31.27,0,0,0,40.31.19,2.5,2.5,0,0,0,38.93,5Z"/><path d="M17.11,6a28,28,0,0,1,3-1.09A2.5,2.5,0,1,0,18.66.11a31.82,31.82,0,0,0-5.31,2.13l.1.09Z"/><path d="M58.14,54,5,.86A3,3,0,0,0,.86,5L4.59,8.77a31,31,0,0,0-3.13,3.89,2.51,2.51,0,0,0,.67,3.48,2.48,2.48,0,0,0,1.4.43,2.52,2.52,0,0,0,2.07-1.1,26.62,26.62,0,0,1,2.54-3.16L11,15.19A25.79,25.79,0,0,0,47.49,51.66L54,58.14A3,3,0,0,0,58.14,54Z"/></g></g></g></svg>