<svg xmlns="http://www.w3.org/2000/svg" viewBox="0 0 56.06 59"><title>antenna</title><g id="Layer_2" data-name="Layer 2"><g id="Layer_1-2" data-name="Layer 1"><g id="antenna"><path d="M47.85.73a2.5,2.5,0,0,0-3.53,3.54,23,23,0,0,1,0,32.57,2.5,2.5,0,0,0,0,3.54,2.53,2.53,0,0,0,1.77.73,2.49,2.49,0,0,0,1.76-.73,28,28,0,0,0,0-39.65Z"/><path d="M37.1,33.15a2.47,2.47,0,0,0,3.53,0,17.82,17.82,0,0,0,0-25.2,2.5,2.5,0,0,0-3.53,3.54,12.83,12.83,0,0,1,0,18.13A2.49,2.49,0,0,0,37.1,33.15Z"/><path d="M5,20.55A22.88,22.88,0,0,1,11.75,4.27,2.5,2.5,0,0,0,8.21.73a28,28,0,0,0,0,39.65,2.5,2.5,0,0,0,3.54-3.54A22.88,22.88,0,0,1,5,20.55Z"/><path d="M15.43,33.15A2.5,2.5,0,0,0,19,29.62a12.83,12.83,0,0,1,0-18.13A2.5,2.5,0,0,0,15.43,8,17.84,17.84,0,0,0,15.43,33.15Z"/><path d="M31.28,27a7.19,7.19,0,1,0-6.49,0L14.08,55.62a2.5,2.5,0,0,0,3.74,3L28,51.66l10.22,6.91a2.48,2.48,0,0,0,2.94-.11,2.49,2.49,0,0,0,.8-2.84ZM28,18.37a2.18,2.18,0,1,1-2.18,2.18A2.18,2.18,0,0,1,28,18.37Z"/></g></g></g></svg>