<svg xmlns="http://www.w3.org/2000/svg" viewBox="0 0 43.93 59"><title>apple</title><g id="Layer_2" data-name="Layer 2"><g id="Layer_1-2" data-name="Layer 1"><g id="apple"><path d="M36.69,33.72c-.06-6.82,5.59-10.14,5.85-10.3a12.58,12.58,0,0,0-9.9-5.35c-4.16-.44-8.2,2.49-10.32,2.49s-5.43-2.45-9-2.38A13.18,13.18,0,0,0,2.28,25c-4.8,8.3-1.22,20.51,3.37,27.22,2.3,3.29,5,7,8.5,6.83s4.73-2.19,8.88-2.19,5.32,2.19,8.9,2.1,6-3.3,8.24-6.61a27.22,27.22,0,0,0,3.76-7.67,11.9,11.9,0,0,1-7.24-10.91Z"/><path d="M30.45,10.4A14.49,14.49,0,0,0,33.77,0a14.79,14.79,0,0,0-9.55,4.94c-2,2.4-3.89,6.33-3.41,10,3.61.27,7.32-1.82,9.64-4.56Z"/></g></g></g></svg>