<svg xmlns="http://www.w3.org/2000/svg" viewBox="0 0 59 59"><title>archive</title><g id="Layer_2" data-name="Layer 2"><g id="Layer_1-2" data-name="Layer 1"><g id="archive"><path d="M58.43,12.92,48.64.92A2.52,2.52,0,0,0,46.7,0H12.29a2.52,2.52,0,0,0-1.94.92l-9.79,12A2.48,2.48,0,0,0,0,14.5v34A10.51,10.51,0,0,0,10.5,59h38A10.51,10.51,0,0,0,59,48.5v-34A2.49,2.49,0,0,0,58.43,12.92ZM39.26,40.27l-8,8A2.47,2.47,0,0,1,29.5,49,2.61,2.61,0,0,1,29,49l-.23-.05a2.52,2.52,0,0,1-1.06-.63l-8-8a2.5,2.5,0,0,1,3.53-3.53L27,40.47v-15a2.5,2.5,0,0,1,5,0v15l3.73-3.73a2.5,2.5,0,0,1,3.53,3.53ZM7.76,12l5.72-7h32l5.72,7Z"/></g></g></g></svg>