<svg xmlns="http://www.w3.org/2000/svg" viewBox="0 0 59 59"><title>Asset 125</title><g id="Layer_2" data-name="Layer 2"><g id="Layer_1-2" data-name="Layer 1"><path d="M58.27,54.73l-54-54A2.5,2.5,0,0,0,0,2.5v54A2.5,2.5,0,0,0,2.5,59H10V55.5a2.5,2.5,0,0,1,5,0V59h4.42V55.5a2.5,2.5,0,0,1,5,0V59h4.41V55.5a2.5,2.5,0,0,1,5,0V59h4.42V55.5a2.5,2.5,0,0,1,5,0V59H56.5a2.5,2.5,0,0,0,1.77-4.27Zm-23.6-8.27A2.51,2.51,0,0,1,32.36,48H12.5A2.5,2.5,0,0,1,10,45.5V25.64a2.5,2.5,0,0,1,4.27-1.77L34.13,43.73A2.53,2.53,0,0,1,34.67,46.46Z"/></g></g></svg>