<svg xmlns="http://www.w3.org/2000/svg" viewBox="0 0 53 59"><title>Asset 432</title><g id="Layer_2" data-name="Layer 2"><g id="Layer_1-2" data-name="Layer 1"><path d="M42.5,7h-1V2.5a2.5,2.5,0,0,0-5,0V7h-20V2.5a2.5,2.5,0,0,0-5,0V7h-1A10.51,10.51,0,0,0,0,17.5v31A10.51,10.51,0,0,0,10.5,59h32A10.51,10.51,0,0,0,53,48.5v-31A10.51,10.51,0,0,0,42.5,7Zm0,47h-32A5.51,5.51,0,0,1,5,48.5V25H48V48.5A5.51,5.51,0,0,1,42.5,54Z"/><path d="M36.27,29.53a2.52,2.52,0,0,0-3.54,0L26.5,35.77l-6.23-6.24a2.5,2.5,0,0,0-3.54,3.54L23,39.3l-6.23,6.23a2.52,2.52,0,0,0,0,3.54,2.51,2.51,0,0,0,3.54,0l6.23-6.23,6.23,6.23a2.51,2.51,0,0,0,3.54,0,2.52,2.52,0,0,0,0-3.54L30,39.3l6.23-6.23A2.52,2.52,0,0,0,36.27,29.53Z"/></g></g></svg>