<svg xmlns="http://www.w3.org/2000/svg" viewBox="0 0 59 59"><title>Asset 310</title><g id="Layer_2" data-name="Layer 2"><g id="Layer_1-2" data-name="Layer 1"><path d="M51.11,49.51a11.36,11.36,0,0,1-16,0,6.34,6.34,0,0,0-9,0,11.37,11.37,0,0,1-16,0,6.38,6.38,0,0,0-8.85-.12A2.43,2.43,0,0,1,0,50v4a2.52,2.52,0,0,0,1.51,2.3,2.51,2.51,0,0,0,2.71-.49,5.49,5.49,0,0,1,7.62.1,10.47,10.47,0,0,0,14.78,0,5.46,5.46,0,0,1,7.72,0,10.45,10.45,0,0,0,14.78,0,5.45,5.45,0,0,1,6.27-1A2.5,2.5,0,0,0,59,52.66V48.5a2.42,2.42,0,0,1-.61-.2A6.32,6.32,0,0,0,51.11,49.51Z"/><path d="M57.61,37.56a10.45,10.45,0,0,0-8.61-.3V7.5a2.5,2.5,0,0,1,5,0,2.5,2.5,0,0,0,5,0,7.5,7.5,0,0,0-15,0v9.71H32V7.5a2.5,2.5,0,0,1,5,0,2.5,2.5,0,0,0,5,0,7.5,7.5,0,0,0-15,0V37.09a10.32,10.32,0,0,0-3.91,2.45,5.47,5.47,0,0,1-7.72,0A10.4,10.4,0,0,0,.78,39.35,2.51,2.51,0,0,0,0,41.17v3A11.26,11.26,0,0,1,13.61,46a6.34,6.34,0,0,0,9,0,11.36,11.36,0,0,1,16,0,6.34,6.34,0,0,0,9,0A11.3,11.3,0,0,1,59,43.18V39.8A2.5,2.5,0,0,0,57.61,37.56ZM44,22.21v5H32v-5ZM37.87,39.54A10.35,10.35,0,0,0,32,36.61v-4.4H44v8.41A5.47,5.47,0,0,1,37.87,39.54Z"/></g></g></svg>