<svg xmlns="http://www.w3.org/2000/svg" viewBox="0 0 51.61 59"><title>Asset 5</title><g id="Layer_2" data-name="Layer 2"><g id="Layer_1-2" data-name="Layer 1"><path d="M25.81,49.4A12.77,12.77,0,0,1,18,52c-.36,0-.71,0-1.07,0a9.08,9.08,0,0,0,17.67,0c-.35,0-.71,0-1.06,0A12.73,12.73,0,0,1,25.81,49.4Z"/><path d="M41.34,17.84a10.23,10.23,0,0,0-6.53,2.36,12.17,12.17,0,0,1,1.45,2,12,12,0,0,1,0,11.74,11.77,11.77,0,0,1-1.45,2,10.26,10.26,0,1,0,6.53-18.18Z"/><path d="M33,37.72A11.22,11.22,0,0,1,30.8,39a2.26,2.26,0,0,1,0,.26,12.73,12.73,0,0,1-3.15,8.37,10.16,10.16,0,0,0,5.91,1.9,10.27,10.27,0,0,0,10.17-8.9A12.57,12.57,0,0,1,33,37.72Z"/><path d="M28.3,39.84a12,12,0,0,1-2.49.26,11.89,11.89,0,0,1-7.16-2.38A12.57,12.57,0,0,1,7.87,40.64a10.27,10.27,0,0,0,20.43-.8Z"/><path d="M16.8,36a12,12,0,0,1-3-7.91,12,12,0,0,1,1.54-5.88,11.24,11.24,0,0,1,1.46-2A10.27,10.27,0,1,0,16.8,36Z"/><path d="M21.8,19.5a11,11,0,0,0-1.26.7,9.57,9.57,0,0,0-2,1.8,9.7,9.7,0,0,0-1.46,2.36,9.55,9.55,0,0,0-.76,3.75,9.47,9.47,0,0,0,6.86,9.11,9.21,9.21,0,0,0,2.64.38,9.74,9.74,0,0,0,2.31-.28,9.45,9.45,0,0,0,5-3.13,9.45,9.45,0,0,0,1.45-9.82A8.93,8.93,0,0,0,33.08,22a9.49,9.49,0,0,0-4.52-3,8.33,8.33,0,0,0-1-.22,2.13,2.13,0,0,0,0-.25V15a10,10,0,0,1,10-10,2.5,2.5,0,0,0,0-5A15,15,0,0,0,24.48,7.74a11.14,11.14,0,0,0-1-1.16A11.91,11.91,0,0,0,12,3.5l-.84.23-.22.83A11.86,11.86,0,0,0,21.8,19.5Z"/></g></g></svg>