<svg xmlns="http://www.w3.org/2000/svg" viewBox="0 0 45 59"><title>assignment ind</title><g id="Layer_2" data-name="Layer 2"><g id="Layer_1-2" data-name="Layer 1"><path id="assignment_ind" data-name="assignment ind" d="M34.5,7H31.65A9.49,9.49,0,0,0,13.34,7H10.5A10.51,10.51,0,0,0,0,17.5v31A10.51,10.51,0,0,0,10.5,59h24A10.51,10.51,0,0,0,45,48.5v-31A10.51,10.51,0,0,0,34.5,7Zm-12-2.5A2.5,2.5,0,1,1,20,7,2.5,2.5,0,0,1,22.5,4.5Zm0,14.85a6.39,6.39,0,1,1-6.39,6.39A6.4,6.4,0,0,1,22.5,19.35ZM33.12,46.51a4.1,4.1,0,0,1-3.23,1.57H15.11a4.08,4.08,0,0,1-3.23-1.57,4,4,0,0,1-.77-3.42,11.7,11.7,0,0,1,22.78,0A4,4,0,0,1,33.12,46.51Z"/></g></g></svg>