<svg xmlns="http://www.w3.org/2000/svg" viewBox="0 0 45 59"><title>assignment turned in</title><g id="Layer_2" data-name="Layer 2"><g id="Layer_1-2" data-name="Layer 1"><path id="assignment_turned_in" data-name="assignment turned in" d="M34.5,7H31.65A9.49,9.49,0,0,0,13.34,7H10.5A10.51,10.51,0,0,0,0,17.5v31A10.51,10.51,0,0,0,10.5,59h24A10.51,10.51,0,0,0,45,48.5v-31A10.51,10.51,0,0,0,34.5,7Zm-12-2.5A2.5,2.5,0,1,1,20,7,2.5,2.5,0,0,1,22.5,4.5ZM33.77,29.7,21.63,41.84a2.5,2.5,0,0,1-3.53,0L11.23,35a2.5,2.5,0,1,1,3.54-3.53l5.09,5.09L30.23,26.16a2.5,2.5,0,0,1,3.54,3.54Z"/></g></g></svg>