<svg xmlns="http://www.w3.org/2000/svg" viewBox="0 0 45 59"><title>assignment late</title><g id="Layer_2" data-name="Layer 2"><g id="Layer_1-2" data-name="Layer 1"><path id="assignment_late" data-name="assignment late" d="M34.5,7H31.65A9.49,9.49,0,0,0,13.34,7H10.5A10.51,10.51,0,0,0,0,17.5v31A10.51,10.51,0,0,0,10.5,59h24A10.51,10.51,0,0,0,45,48.5v-31A10.51,10.51,0,0,0,34.5,7ZM25,43a2.5,2.5,0,0,1-5,0V42a2.5,2.5,0,0,1,5,0Zm0-8.29a2.5,2.5,0,0,1-5,0V23a2.5,2.5,0,0,1,5,0ZM22.5,9.5A2.5,2.5,0,1,1,25,7,2.5,2.5,0,0,1,22.5,9.5Z"/></g></g></svg>