<svg xmlns="http://www.w3.org/2000/svg" viewBox="0 0 45 59"><title>assignment</title><g id="Layer_2" data-name="Layer 2"><g id="Layer_1-2" data-name="Layer 1"><path id="assignment" d="M22.49,4.5A2.5,2.5,0,1,1,20,7,2.49,2.49,0,0,1,22.49,4.5ZM34.5,7H31.65A9.49,9.49,0,0,0,13.34,7H10.5A10.51,10.51,0,0,0,0,17.5v31A10.51,10.51,0,0,0,10.5,59h24A10.51,10.51,0,0,0,45,48.5v-31A10.51,10.51,0,0,0,34.5,7Zm-4,40h-16a2.5,2.5,0,0,1,0-5h16a2.5,2.5,0,0,1,0,5Zm1-11.5h-18a2.5,2.5,0,0,1,0-5h18a2.5,2.5,0,0,1,0,5Zm0-11.5h-18a2.5,2.5,0,0,1,0-5h18a2.5,2.5,0,0,1,0,5Z"/></g></g></svg>