<svg xmlns="http://www.w3.org/2000/svg" viewBox="0 0 59 52.04"><title>atm machine</title><g id="Layer_2" data-name="Layer 2"><g id="Layer_1-2" data-name="Layer 1"><g id="atm_machine" data-name="atm machine"><path d="M50.5,0H8.5A8.51,8.51,0,0,0,0,8.5v13A8.51,8.51,0,0,0,8.5,30h3.87V15.67H11.5a2.5,2.5,0,0,1,0-5h36a2.5,2.5,0,0,1,0,5h-.88V30H50.5A8.51,8.51,0,0,0,59,21.5V8.5A8.52,8.52,0,0,0,50.5,0Z"/><path d="M17.37,48a4,4,0,0,0,4,4H37.62a4,4,0,0,0,4-4V15.67H17.37ZM27.5,25.77V24.66a2,2,0,0,1,2.32-2,2.06,2.06,0,0,1,1.68,2.07v.62h.62a2.06,2.06,0,0,1,2.07,1.68,2,2,0,0,1-2,2.32H29.5a1.5,1.5,0,1,0,.07,3,4.71,4.71,0,0,1,4.22,1.84c2.53,3.69.77,7.58-2.29,8.78v1a2.06,2.06,0,0,1-1.68,2.07,2,2,0,0,1-2.32-2v-.73h-.73a2,2,0,0,1-2-2.32,2.06,2.06,0,0,1,2.07-1.68H29.5A1.51,1.51,0,0,0,31,37.6a1.56,1.56,0,0,0-1.53-1.22A5.49,5.49,0,0,1,27.5,25.77Z"/></g></g></g></svg>