<svg xmlns="http://www.w3.org/2000/svg" viewBox="0 0 59 37"><title>backspace</title><g id="Layer_2" data-name="Layer 2"><g id="Layer_1-2" data-name="Layer 1"><g id="backspace"><path d="M56.5,0h-41a2.51,2.51,0,0,0-1.95.92l-13,16a2.54,2.54,0,0,0,0,3.15l13,16A2.52,2.52,0,0,0,15.5,37h41A2.5,2.5,0,0,0,59,34.5V2.5A2.49,2.49,0,0,0,56.5,0ZM43.26,23.73a2.5,2.5,0,1,1-3.53,3.53L34.5,22l-5.24,5.23a2.5,2.5,0,0,1-3.53-3.53L31,18.5l-5.25-5.24a2.5,2.5,0,0,1,3.53-3.53L34.5,15l5.23-5.24a2.5,2.5,0,0,1,3.53,3.53L38,18.5Z"/></g></g></g></svg>