<svg xmlns="http://www.w3.org/2000/svg" viewBox="0 0 34.81 59"><title>balloon</title><g id="Layer_2" data-name="Layer 2"><g id="Layer_1-2" data-name="Layer 1"><path id="balloon" d="M34.81,20.56C34.81,9.22,27,0,17.4,0S0,9.22,0,20.56c0,8.67,4.57,16.09,11,19.1.05,2.27.42,5.27,3,6.65a6.36,6.36,0,0,0-.07,2.38,6.72,6.72,0,0,0,1.21,2.85,6.49,6.49,0,0,1,.59,1.05,5.4,5.4,0,0,1,0,3.3,2.5,2.5,0,0,0,4.85,1.22,10.23,10.23,0,0,0-.23-6.35,10.6,10.6,0,0,0-1.06-2c-.33-.51-.42-.65-.45-.89a2,2,0,0,1,.14-1c4.22-.75,4.74-4.54,4.8-7.27C30.23,36.65,34.81,29.23,34.81,20.56ZM17.41,42.08h0c-.87,0-1.19,0-1.31-1,.44,0,.88.08,1.32.08s.89,0,1.33-.08C18.61,42.07,18.28,42.08,17.41,42.08Z"/></g></g></svg>