<svg xmlns="http://www.w3.org/2000/svg" viewBox="0 0 59 59"><title>basketball</title><g id="Layer_2" data-name="Layer 2"><g id="Layer_1-2" data-name="Layer 1"><g id="basketball"><path d="M0,32.24A29.57,29.57,0,0,0,7.78,49.65a30.55,30.55,0,0,0,6.79-17.41Z"/><path d="M14.57,26.76A30.55,30.55,0,0,0,7.78,9.35,29.57,29.57,0,0,0,0,26.76Z"/><path d="M44.43,32.24a30.55,30.55,0,0,0,6.79,17.41A29.57,29.57,0,0,0,59,32.24Z"/><path d="M59,26.76A29.57,29.57,0,0,0,51.22,9.35a30.55,30.55,0,0,0-6.79,17.41Z"/><path d="M26.76,32.24H20.07a36.15,36.15,0,0,1-8.2,21.08A29.49,29.49,0,0,0,26.76,59Z"/><path d="M32.24,26.76h6.69a36.15,36.15,0,0,1,8.2-21.08A29.49,29.49,0,0,0,32.24,0Z"/><path d="M38.93,32.24H32.24V59a29.49,29.49,0,0,0,14.89-5.68A36.15,36.15,0,0,1,38.93,32.24Z"/><path d="M20.07,26.76h6.69V0A29.49,29.49,0,0,0,11.87,5.68,36.15,36.15,0,0,1,20.07,26.76Z"/></g></g></g></svg>