<svg xmlns="http://www.w3.org/2000/svg" viewBox="0 0 59 58.65"><title>bathtub</title><g id="Layer_2" data-name="Layer 2"><g id="Layer_1-2" data-name="Layer 1"><path id="bathtub" d="M59,32.77a2.5,2.5,0,0,0-2.5-2.5H15.15V10.48a4.11,4.11,0,0,1,1.2-2.88l1.42-1.41A4,4,0,0,1,21,5a4.85,4.85,0,0,1,.86.17,9.57,9.57,0,0,0-2.35,10,2.51,2.51,0,0,0,2.37,1.68,2.54,2.54,0,0,0,.81-.13l13.43-4.63A2.51,2.51,0,0,0,37.68,8.9,9.58,9.58,0,0,0,27,2.58a9.05,9.05,0,0,0-12.72.06L12.82,4.05a9.13,9.13,0,0,0-2.67,6.43V30.27H2.5A2.5,2.5,0,0,0,0,32.77,21.74,21.74,0,0,0,15.89,53.69l-.65.56a2.5,2.5,0,0,0,1.62,4.4,2.45,2.45,0,0,0,1.62-.6l4.17-3.55h13.7l4.17,3.55a2.43,2.43,0,0,0,1.62.6,2.5,2.5,0,0,0,1.62-4.4l-.65-.55A21.77,21.77,0,0,0,59,32.77Z"/></g></g></svg>