<svg xmlns="http://www.w3.org/2000/svg" viewBox="0 0 59 55.68"><title>bed</title><g id="Layer_2" data-name="Layer 2"><g id="Layer_1-2" data-name="Layer 1"><g id="bed"><path d="M50.5,31.73h-28V31a6.51,6.51,0,0,0-6.5-6.5H5V19.72a2.5,2.5,0,0,0-5,0V53.18a2.5,2.5,0,0,0,5,0V48.61H54v4.57a2.5,2.5,0,1,0,5,0v-13A8.51,8.51,0,0,0,50.5,31.73Z"/><path d="M25.66,21.57A2.48,2.48,0,0,0,28,23.11h8.52a2.5,2.5,0,0,0,0-5H34l4.25-4.25a2.5,2.5,0,0,0-1.77-4.27H28.1a2.5,2.5,0,0,0,0,5h2.35L26.2,18.84A2.49,2.49,0,0,0,25.66,21.57Z"/><path d="M45.67,12A2.51,2.51,0,0,0,48,13.52H56.5a2.5,2.5,0,0,0,0-5H54l4.25-4.25A2.5,2.5,0,0,0,56.5,0H48.11a2.5,2.5,0,0,0,0,5h2.35L46.21,9.25A2.51,2.51,0,0,0,45.67,12Z"/></g></g></g></svg>