<svg xmlns="http://www.w3.org/2000/svg" viewBox="0 0 59 38.94"><title>behance</title><g id="Layer_2" data-name="Layer 2"><g id="Layer_1-2" data-name="Layer 1"><g id="behance"><path d="M21.3,18A11,11,0,0,0,12.87,0H2.5A2.5,2.5,0,0,0,0,2.5V36.44a2.5,2.5,0,0,0,2.5,2.5H16.64A11,11,0,0,0,21.3,18Zm-2.44-7a6,6,0,0,1-6,6H5V5h7.87A6,6,0,0,1,18.86,11ZM16.64,33.94H5V22H16.64a6,6,0,1,1,0,12Z"/><path d="M45.19,11.31a13.82,13.82,0,1,0,10.34,23A2.5,2.5,0,0,0,51.78,31a8.81,8.81,0,0,1-15.05-3.34H56.5a2.5,2.5,0,0,0,2.5-2.5A13.83,13.83,0,0,0,45.19,11.31ZM36.73,22.63a8.82,8.82,0,0,1,16.91,0Z"/><path d="M39.09,6.89H51.28a2.5,2.5,0,0,0,0-5H39.09a2.5,2.5,0,0,0,0,5Z"/></g></g></g></svg>