<svg xmlns="http://www.w3.org/2000/svg" viewBox="0 0 59 43.19"><title>bicycle</title><g id="Layer_2" data-name="Layer 2"><g id="Layer_1-2" data-name="Layer 1"><path id="bicycle" d="M47.5,20.19h-.08L44,5.3,44.15,5a2.5,2.5,0,0,0-.44-5H35.27a2.5,2.5,0,0,0,0,5h3.38L36.88,9h-15l-.46-1H23.5a2.5,2.5,0,0,0,0-5h-6l-.32,0-.18,0-.21.07a1.22,1.22,0,0,0-.27.09h0a.57.57,0,0,0-.13.08l-.27.15-.17.15a1,1,0,0,0-.19.17,1.3,1.3,0,0,0-.15.18,1.49,1.49,0,0,0-.15.2l-.11.19a2.56,2.56,0,0,0-.11.24,1.42,1.42,0,0,0-.07.22,2.1,2.1,0,0,0-.06.24,1.24,1.24,0,0,0,0,.27,1.1,1.1,0,0,0,0,.18v0a2.48,2.48,0,0,0,0,.27,1.81,1.81,0,0,0,0,.23,1.27,1.27,0,0,0,.06.18,2.47,2.47,0,0,0,.1.29,0,0,0,0,0,0,0l2.4,5.25-3.84,8.64a11.5,11.5,0,1,0,8.93,13.77H29.5l.19,0a3.16,3.16,0,0,0,.32,0l.12,0h0l.16-.05.22-.08h0a.57.57,0,0,0,.13-.08l.1-.05.09,0,.08-.05.17-.14.19-.17a.46.46,0,0,1,.07-.07s0-.05.06-.08l0,0A1.39,1.39,0,0,0,31.6,33c0-.07.07-.14.11-.2a.41.41,0,0,1,.05-.09s0,0,0,0l0,0h0l8.81-19.77,1.94,8.44a11.47,11.47,0,1,0,5-1.14Zm-18,5.43L24.14,14H34.65Zm-9.06-7.78,5.2,11.35H22.72a11.52,11.52,0,0,0-4.38-6.72Zm-4.19,9.4a6.4,6.4,0,0,1,1.28,2H15.35Zm-4.72,11a6.5,6.5,0,0,1,0-13h.16L9.22,30.67a2.5,2.5,0,0,0,2.28,3.52h6A6.5,6.5,0,0,1,11.5,38.19Zm36,0a6.49,6.49,0,0,1-3.78-11.78l1.34,5.84a2.51,2.51,0,0,0,2.44,1.94,2.74,2.74,0,0,0,.56-.06,2.5,2.5,0,0,0,1.88-3l-1.35-5.84a6.5,6.5,0,0,1-1.09,12.9Z"/></g></g></svg>