<svg xmlns="http://www.w3.org/2000/svg" viewBox="0 0 59 60"><title>bluetooth off</title><g id="Layer_2" data-name="Layer 2"><g id="Layer_1-2" data-name="Layer 1"><g id="bluetooth_off" data-name="bluetooth off"><path d="M33.75,10.24,40,16.5l-6.19,6.19,4.24,4.24,8.31-8.31a3,3,0,0,0,0-4.24L32.87.88A3,3,0,0,0,27.75,3V16.63l6,6Z"/><polygon points="33.75 22.76 33.82 22.69 33.75 22.63 33.75 22.76"/><path d="M58.14,54,5,.86A3,3,0,0,0,.86,5l25.31,25.3L12.63,43.88a3,3,0,0,0,4.24,4.24L27.75,37.24V57a3,3,0,0,0,1.85,2.77,3.06,3.06,0,0,0,1.15.23,3,3,0,0,0,2.12-.88l11-11L54,58.14A3,3,0,0,0,58.14,54Zm-24.39-4.2V37.92l5.92,5.92Z"/></g></g></g></svg>