<svg xmlns="http://www.w3.org/2000/svg" viewBox="0 0 57.28 59"><title>bug report</title><g id="Layer_2" data-name="Layer 2"><g id="Layer_1-2" data-name="Layer 1"><path id="bug_report" data-name="bug report" d="M54.78,37.82a2.5,2.5,0,0,0,0-5H48.67a26.72,26.72,0,0,0-2-7.95h2.51a2.5,2.5,0,0,0,2-.94l4.68-5.88A2.5,2.5,0,1,0,52,14.93L48,19.87H43.89a21.53,21.53,0,0,0-5.36-5.17L39,12.39a10.49,10.49,0,1,0-20.63,0l.42,2.31a21.53,21.53,0,0,0-5.36,5.17H9.27L5.33,14.93a2.5,2.5,0,1,0-3.91,3.12l4.69,5.88a2.47,2.47,0,0,0,2,.94h2.51a26.72,26.72,0,0,0-2,8H2.5a2.5,2.5,0,0,0,0,5H8.6a27,27,0,0,0,2,7.94H8.06a2.48,2.48,0,0,0-1.95,1L1.42,52.59a2.5,2.5,0,0,0,.4,3.51,2.48,2.48,0,0,0,3.51-.4l3.94-4.94h4.11c3.7,5,9.17,8.24,15.26,8.24S40.2,55.8,43.9,50.76H48L52,55.7a2.51,2.51,0,0,0,2,.95,2.5,2.5,0,0,0,2-4.06l-4.68-5.88a2.51,2.51,0,0,0-2-1h-2.5a27,27,0,0,0,2-7.94ZM34.64,44.08h-12a2.5,2.5,0,0,1,0-5h12a2.5,2.5,0,0,1,0,5Zm0-12.53h-12a2.5,2.5,0,0,1,0-5h12a2.5,2.5,0,0,1,0,5Z"/></g></g></svg>