<svg xmlns="http://www.w3.org/2000/svg" viewBox="0 0 53 59"><title>bus (2)</title><g id="Layer_2" data-name="Layer 2"><g id="Layer_1-2" data-name="Layer 1"><path id="bus" d="M42.5,0h-32A10.51,10.51,0,0,0,0,10.5V41.09a10.5,10.5,0,0,0,6.88,9.84V56.5A2.5,2.5,0,0,0,9.38,59H11.5A2.5,2.5,0,0,0,14,56.5V51.59H39V56.5A2.5,2.5,0,0,0,41.5,59h2.12a2.5,2.5,0,0,0,2.5-2.5V50.93A10.51,10.51,0,0,0,53,41.09V10.5A10.51,10.51,0,0,0,42.5,0ZM16.77,42.81A4.23,4.23,0,1,1,21.63,38,4.25,4.25,0,0,1,16.77,42.81Zm18.12,0A4.23,4.23,0,1,1,39.74,38,4.25,4.25,0,0,1,34.89,42.81ZM48,26.38H5V10.5A5.51,5.51,0,0,1,10.5,5h32A5.51,5.51,0,0,1,48,10.5Z"/></g></g></svg>