<svg xmlns="http://www.w3.org/2000/svg" viewBox="0 0 59 39.34"><title>bus</title><g id="Layer_2" data-name="Layer 2"><g id="Layer_1-2" data-name="Layer 1"><path id="bus" d="M46.5,0H2.5A2.5,2.5,0,0,0,0,2.5V31.84a2.5,2.5,0,0,0,2.5,2.5H7.44a7.48,7.48,0,0,0,14.12,0H37.44a7.48,7.48,0,0,0,14.12,0H56.5a2.5,2.5,0,0,0,2.5-2.5V12.5A12.52,12.52,0,0,0,46.5,0ZM54,12.5v5.06l-9.5-3.43V5h2A7.5,7.5,0,0,1,54,12.5Zm-36.5.88V5H26v8.38ZM31,5h8.5v8.38H31ZM12.5,5v8.38H5V5Zm2,29.34a2.5,2.5,0,1,1,2.5-2.5A2.5,2.5,0,0,1,14.5,34.34Zm30,0a2.5,2.5,0,1,1,2.5-2.5A2.5,2.5,0,0,1,44.5,34.34Z"/></g></g></svg>