<svg xmlns="http://www.w3.org/2000/svg" viewBox="0 0 60 46.21"><title>cached</title><g id="Layer_2" data-name="Layer 2"><g id="Layer_1-2" data-name="Layer 1"><g id="cached"><path d="M59.19,21.28l-7.92-8.49A3,3,0,0,0,47,12.64l-8.49,7.92A3,3,0,0,0,42.63,25l4.54-4.23a18.5,18.5,0,0,1-25.6,18.07,3,3,0,0,0-2.3,5.54A24.47,24.47,0,0,0,53.11,23.55l1.7,1.82a3,3,0,1,0,4.38-4.09Z"/><path d="M40.73,1.88A24.48,24.48,0,0,0,6.89,22.65l-1.7-1.82a3,3,0,0,0-4.38,4.1l7.92,8.49a3,3,0,0,0,2.08.95h.11a3,3,0,0,0,2-.8l8.5-7.92a3,3,0,1,0-4.09-4.39l-4.53,4.22A18.5,18.5,0,0,1,38.43,7.41a3,3,0,1,0,2.3-5.53Z"/></g></g></g></svg>