<svg xmlns="http://www.w3.org/2000/svg" viewBox="0 0 59 59"><title>cafe</title><g id="Layer_2" data-name="Layer 2"><g id="Layer_1-2" data-name="Layer 1"><g id="cafe"><path d="M48.34,22.92H4a4,4,0,0,0-4,4v9.49C0,48.27,9.15,58.37,21,59A22.17,22.17,0,0,0,43.21,43.63h5.44A10.36,10.36,0,0,0,59,32.28,10.56,10.56,0,0,0,48.34,22.92Zm.07,15.71H44.27V27.92h4.38A5.36,5.36,0,0,1,54,33.81,5.51,5.51,0,0,1,48.41,38.63Z"/><path d="M7.37,18.27A2.49,2.49,0,0,0,9.14,19a2.45,2.45,0,0,0,1.76-.73,2.5,2.5,0,0,0,0-3.54,2.46,2.46,0,0,1,0-3.46A7.44,7.44,0,0,0,10.9.73,2.5,2.5,0,0,0,7.37,4.27a2.44,2.44,0,0,1,0,3.46A7.45,7.45,0,0,0,7.37,18.27Z"/><path d="M20.37,18.27a2.49,2.49,0,0,0,1.77.73,2.45,2.45,0,0,0,1.76-.73,2.5,2.5,0,0,0,0-3.54,2.46,2.46,0,0,1,0-3.46A7.44,7.44,0,0,0,23.9.73a2.5,2.5,0,1,0-3.53,3.54,2.44,2.44,0,0,1,0,3.46A7.45,7.45,0,0,0,20.37,18.27Z"/><path d="M33.37,18.27a2.49,2.49,0,0,0,1.77.73,2.45,2.45,0,0,0,1.76-.73,2.5,2.5,0,0,0,0-3.54,2.46,2.46,0,0,1,0-3.46A7.44,7.44,0,0,0,36.9.73a2.5,2.5,0,0,0-3.53,3.54,2.44,2.44,0,0,1,0,3.46A7.45,7.45,0,0,0,33.37,18.27Z"/></g></g></g></svg>