<svg xmlns="http://www.w3.org/2000/svg" viewBox="0 0 53 59"><title>calendar</title><g id="Layer_2" data-name="Layer 2"><g id="Layer_1-2" data-name="Layer 1"><g id="calendar"><path d="M39.5,30h-1a2.5,2.5,0,0,0,0,5h1a2.5,2.5,0,0,0,0-5Z"/><path d="M39.5,44h-1a2.5,2.5,0,0,0,0,5h1a2.5,2.5,0,0,0,0-5Z"/><path d="M14.5,30h-1a2.5,2.5,0,0,0,0,5h1a2.5,2.5,0,0,0,0-5Z"/><path d="M14.5,44h-1a2.5,2.5,0,0,0,0,5h1a2.5,2.5,0,0,0,0-5Z"/><path d="M27,30H26a2.5,2.5,0,0,0,0,5h1a2.5,2.5,0,0,0,0-5Z"/><path d="M27,44H26a2.5,2.5,0,0,0,0,5h1a2.5,2.5,0,0,0,0-5Z"/><path d="M42.5,7h-1V2.5a2.5,2.5,0,0,0-5,0V7h-20V2.5a2.5,2.5,0,0,0-5,0V7h-1A10.51,10.51,0,0,0,0,17.5v31A10.51,10.51,0,0,0,10.5,59h32A10.51,10.51,0,0,0,53,48.5v-31A10.51,10.51,0,0,0,42.5,7Zm0,47h-32A5.51,5.51,0,0,1,5,48.5V25H48V48.5A5.51,5.51,0,0,1,42.5,54Z"/></g></g></g></svg>