<svg xmlns="http://www.w3.org/2000/svg" viewBox="0 0 59 51"><title>camera</title><g id="Layer_2" data-name="Layer 2"><g id="Layer_1-2" data-name="Layer 1"><g id="camera"><path d="M48.5,6H42.15L40.08,1.46A2.51,2.51,0,0,0,37.8,0H21.2a2.51,2.51,0,0,0-2.27,1.46L16.86,6H10.5A10.51,10.51,0,0,0,0,16.5v24A10.51,10.51,0,0,0,10.5,51h38A10.51,10.51,0,0,0,59,40.5v-24A10.51,10.51,0,0,0,48.5,6Zm-19,33A10.5,10.5,0,1,1,40,28.5,10.51,10.51,0,0,1,29.5,39Zm0-16A5.5,5.5,0,1,0,35,28.5,5.5,5.5,0,0,0,29.5,23Z"/></g></g></g></svg>