<svg xmlns="http://www.w3.org/2000/svg" viewBox="0 0 59 46.19"><title>car trailer</title><g id="Layer_2" data-name="Layer 2"><g id="Layer_1-2" data-name="Layer 1"><path id="car_trailer" data-name="car trailer" d="M56.5,36.17H50.41V6.52A6.52,6.52,0,0,0,43.89,0H6.52A6.52,6.52,0,0,0,0,6.52V38.67a2.5,2.5,0,0,0,2.5,2.5H7a7.51,7.51,0,0,0,14.17,0H45.41v2.52a2.5,2.5,0,0,0,5,0V41.17H56.5a2.5,2.5,0,0,0,0-5ZM14,41.19a2.53,2.53,0,1,1,2.53-2.52A2.52,2.52,0,0,1,14,41.19Zm7.59-20.78a1.85,1.85,0,0,1-1.86,1.86H11.49a1.86,1.86,0,0,1-1.86-1.86V13.62a1.86,1.86,0,0,1,1.86-1.86h8.28a1.85,1.85,0,0,1,1.86,1.86Zm18.3,15.78H28.77V18.1a2,2,0,0,1,2-2h7.16a2,2,0,0,1,2,2Z"/></g></g></svg>