<svg xmlns="http://www.w3.org/2000/svg" viewBox="0 0 59 54.47"><title>car</title><g id="Layer_2" data-name="Layer 2"><g id="Layer_1-2" data-name="Layer 1"><path id="car" d="M58.66,23.23a2.77,2.77,0,0,0-.15-.49,10.92,10.92,0,0,0-.74-1.81L51.29,6.26A10.51,10.51,0,0,0,41.69,0H17.31a10.49,10.49,0,0,0-9.6,6.26L1.22,20.93a11.81,11.81,0,0,0-.73,1.81,2.77,2.77,0,0,0-.15.49A10.52,10.52,0,0,0,0,25.85V52a2.5,2.5,0,0,0,2.5,2.5h2A2.5,2.5,0,0,0,7,52v-5.5H52V52a2.5,2.5,0,0,0,2.5,2.5h2A2.5,2.5,0,0,0,59,52V25.85A10.58,10.58,0,0,0,58.66,23.23ZM17,37.89a4,4,0,1,1,4-4A4,4,0,0,1,17,37.89Zm25,0a4,4,0,1,1,4-4A4,4,0,0,1,42,37.89ZM6.56,21.23,12.28,8.28a5.5,5.5,0,0,1,5-3.28H41.69a5.5,5.5,0,0,1,5,3.28l5.72,13Z"/></g></g></svg>