<svg xmlns="http://www.w3.org/2000/svg" viewBox="0 0 59 49"><title>cast</title><g id="Layer_2" data-name="Layer 2"><g id="Layer_1-2" data-name="Layer 1"><g id="cast"><path d="M48.5,0h-38A10.51,10.51,0,0,0,0,10.5v1.94A7.43,7.43,0,0,1,2.5,12,34.54,34.54,0,0,1,37,46.5a7.38,7.38,0,0,1-.44,2.5H48.5A10.51,10.51,0,0,0,59,38.5v-28A10.51,10.51,0,0,0,48.5,0Z"/><path d="M2.5,17a2.5,2.5,0,0,0,0,5A24.53,24.53,0,0,1,27,46.5a2.5,2.5,0,0,0,5,0A29.53,29.53,0,0,0,2.5,17Z"/><path d="M2.5,24.71a2.5,2.5,0,0,0,0,5A16.82,16.82,0,0,1,19.29,46.5a2.5,2.5,0,0,0,5,0A21.82,21.82,0,0,0,2.5,24.71Z"/><path d="M2.5,32.43a2.5,2.5,0,0,0,0,5,9.08,9.08,0,0,1,9.07,9.07,2.5,2.5,0,0,0,5,0A14.08,14.08,0,0,0,2.5,32.43Z"/><path d="M2.5,40.14A2.5,2.5,0,0,0,0,42.64V46.5A2.5,2.5,0,0,0,2.5,49H6.36a2.5,2.5,0,0,0,2.5-2.5A6.37,6.37,0,0,0,2.5,40.14Z"/></g></g></g></svg>