<svg xmlns="http://www.w3.org/2000/svg" viewBox="0 0 59 48.8"><title>cctv-2</title><g id="Layer_2" data-name="Layer 2"><g id="Layer_1-2" data-name="Layer 1"><g id="cctv-2"><path d="M56.5,0H2.5A2.5,2.5,0,0,0,0,2.5v12A2.5,2.5,0,0,0,2.5,17H4.87v7.17A24.65,24.65,0,0,0,18.22,46.05V36.37a11.28,11.28,0,0,1,22.56,0v9.68A24.65,24.65,0,0,0,54.13,24.17V17H56.5A2.5,2.5,0,0,0,59,14.5V2.5A2.5,2.5,0,0,0,56.5,0ZM5,5H54v7H5Z"/><path d="M29.5,30.09a6.29,6.29,0,0,0-6.29,6.28V48a24.5,24.5,0,0,0,12.57,0V36.37A6.29,6.29,0,0,0,29.5,30.09Zm0,10.75a3.5,3.5,0,1,1,3.5-3.5A3.5,3.5,0,0,1,29.5,40.84Z"/></g></g></g></svg>