<svg xmlns="http://www.w3.org/2000/svg" viewBox="0 0 60.2 59.06"><title>cctv-1</title><g id="Layer_2" data-name="Layer 2"><g id="Layer_1-2" data-name="Layer 1"><path id="cctv-1" d="M59.72,30a8.67,8.67,0,0,0-4.44-5l3-2.68a2.5,2.5,0,0,0-.56-4.12L22.7,1.07a10.51,10.51,0,0,0-14,4.83l-3.89,8a10.53,10.53,0,0,0,4.84,14l14.4,7L17.59,46.06H14.73a10.35,10.35,0,0,0-10.06-8H2.5A2.5,2.5,0,0,0,0,40.56v16a2.5,2.5,0,0,0,2.5,2.5H4.67a10.34,10.34,0,0,0,10.06-8H19a2.79,2.79,0,0,0,.58-.07l.15-.05a2.9,2.9,0,0,0,.41-.16l.15-.09a2.53,2.53,0,0,0,.42-.31.1.1,0,0,1,.05,0,2.15,2.15,0,0,0,.36-.48.1.1,0,0,0,0,0l7.32-12.67,6.87,3.35a2.48,2.48,0,0,0,1.09.25,2.52,2.52,0,0,0,1.66-.62l3-2.62,6.51,3.18a8.72,8.72,0,0,0,6.69.41A8.76,8.76,0,0,0,59.72,30Zm-4.9,4.49a3.76,3.76,0,0,1-5,1.73l-4.65-2.27,6.08-5.38,1.86.91A3.7,3.7,0,0,1,55,31.6,3.74,3.74,0,0,1,54.82,34.46Z"/></g></g></svg>