<svg xmlns="http://www.w3.org/2000/svg" viewBox="0 0 42.24 59"><title>chair</title><g id="Layer_2" data-name="Layer 2"><g id="Layer_1-2" data-name="Layer 1"><path id="chair" d="M42.17,28.78a.88.88,0,0,1-.05-.15c0-.14-.1-.27-.16-.4l-.09-.15a1.78,1.78,0,0,0-.28-.38l-.06-.08a2.54,2.54,0,0,0-.45-.36l0,0L22.78,16.17V2.5a2.5,2.5,0,0,0-5,0V4.81L5,12.55V10a2.5,2.5,0,0,0-5,0V51.5a2.5,2.5,0,0,0,5,0V46l14.46,8.76V56.5a2.5,2.5,0,0,0,5,0v-15L27.05,40l10.19,6.17v2.18a2.5,2.5,0,0,0,5,0V29.37A2.88,2.88,0,0,0,42.17,28.78ZM5,32.78l3.56,2.16L5,37.1ZM17.78,10.66v5.51L5,23.91V18.39ZM7.33,41.53l6.06-3.67,6.07,3.68v7.34Zm24.55-4.48,5.36-3.25v6.5Z"/></g></g></svg>