<svg xmlns="http://www.w3.org/2000/svg" viewBox="0 0 47.36 59"><title>charger</title><g id="Layer_2" data-name="Layer 2"><g id="Layer_1-2" data-name="Layer 1"><path id="charger" d="M44.86,10.22a2.5,2.5,0,0,0-2.5,2.5V48.18A5.76,5.76,0,0,1,36.69,54H21.9a5.76,5.76,0,0,1-5.67-5.82v-1h1.5a2.5,2.5,0,0,0,2.5-2.5V43H23a4.51,4.51,0,0,0,4.5-4.5V14.41A4.51,4.51,0,0,0,23,9.91H21.34V2.5A2.5,2.5,0,0,0,18.84,0H8.63a2.5,2.5,0,0,0-2.5,2.5V9.91H4.5A4.51,4.51,0,0,0,0,14.41V38.48A4.51,4.51,0,0,0,4.5,43H7.23v1.68a2.5,2.5,0,0,0,2.5,2.5h1.5v1A10.76,10.76,0,0,0,21.9,59H36.69A10.76,10.76,0,0,0,47.36,48.18V12.72A2.5,2.5,0,0,0,44.86,10.22ZM11.13,5h5.21V9.91H11.13Zm2.74,29.71a2.5,2.5,0,0,1-4-3L11.94,29H10.51a2.51,2.51,0,0,1-2-4l5.11-6.77a2.5,2.5,0,1,1,4,3L15.53,24H17a2.5,2.5,0,0,1,2,4Z"/></g></g></svg>