<svg xmlns="http://www.w3.org/2000/svg" viewBox="0 0 59 59"><title>cloud off</title><g id="Layer_2" data-name="Layer 2"><g id="Layer_1-2" data-name="Layer 1"><g id="cloud_off" data-name="cloud off"><path d="M54.38,41a2.5,2.5,0,0,0,4.2-1.15A13.5,13.5,0,0,0,45.9,23,17.56,17.56,0,0,0,28.77,9,2.5,2.5,0,0,0,27,13.3Z"/><path d="M4.27.73A2.5,2.5,0,0,0,.73,4.27L13.85,17.39a17.31,17.31,0,0,0-2.24,5.7A13.5,13.5,0,0,0,13.5,50h32c.3,0,.59,0,.89,0l8.34,8.34a2.51,2.51,0,0,0,3.54,0,2.52,2.52,0,0,0,0-3.54Z"/></g></g></g></svg>