<svg xmlns="http://www.w3.org/2000/svg" viewBox="0 0 59 45"><title>cloudy</title><g id="Layer_2" data-name="Layer 2"><g id="Layer_1-2" data-name="Layer 1"><g id="cloudy"><path d="M36.5,9.44A2.49,2.49,0,0,1,34,6.94V2.5a2.5,2.5,0,0,1,5,0V6.94A2.49,2.49,0,0,1,36.5,9.44Z"/><path d="M56.5,25H52.06a2.5,2.5,0,0,1,0-5H56.5a2.5,2.5,0,0,1,0,5Z"/><path d="M47.5,14a2.5,2.5,0,0,1-1.77-4.27l2.1-2.09a2.5,2.5,0,1,1,3.53,3.53l-2.09,2.1A2.49,2.49,0,0,1,47.5,14Z"/><path d="M25.5,14a2.49,2.49,0,0,1-1.77-.73l-2.09-2.1a2.5,2.5,0,0,1,3.53-3.53l2.1,2.09a2.52,2.52,0,0,1,0,3.54A2.49,2.49,0,0,1,25.5,14Z"/><path d="M49.59,38.09a2.48,2.48,0,0,1-1.76-.73l-2.1-2.09a2.5,2.5,0,1,1,3.54-3.54l2.09,2.1a2.5,2.5,0,0,1-1.77,4.26Z"/><path d="M47.89,22.5A11.39,11.39,0,0,0,27,16.21a12.89,12.89,0,0,0-6-1.49,13.12,13.12,0,0,0-12.7,10,10.24,10.24,0,0,0,2,20.3H32.76a10.22,10.22,0,0,0,9.88-12.91A11.4,11.4,0,0,0,47.89,22.5Zm-7.72,5.21a10.16,10.16,0,0,0-6.53-3.15,13,13,0,0,0-2.7-5.19,6.38,6.38,0,1,1,9.23,8.34Z"/></g></g></g></svg>