<svg xmlns="http://www.w3.org/2000/svg" viewBox="0 0 59 59"><title>colorize</title><g id="Layer_2" data-name="Layer 2"><g id="Layer_1-2" data-name="Layer 1"><path id="colorize" d="M58.27,9.75l-9-9a2.52,2.52,0,0,0-3.54,0l-6,6-3-3a2.5,2.5,0,0,0-3.53,3.54l3,3L3.83,42.61a2.54,2.54,0,0,0-.65,1.15L.08,55.88a2.51,2.51,0,0,0,.65,2.39A2.54,2.54,0,0,0,2.5,59a2.64,2.64,0,0,0,.62-.08l12.12-3.1a2.54,2.54,0,0,0,1.15-.65L48.76,22.79l3,3a2.5,2.5,0,0,0,3.54-3.53l-3-3,6-6A2.52,2.52,0,0,0,58.27,9.75Zm-9.51,6-5.48-5.48L47.48,6,53,11.52Z"/></g></g></svg>