<svg xmlns="http://www.w3.org/2000/svg" viewBox="0 0 60 60"><title>compare arrows</title><g id="Layer_2" data-name="Layer 2"><g id="Layer_1-2" data-name="Layer 1"><g id="compare_arrows" data-name="compare arrows"><path d="M15,30a3,3,0,0,0,2.12-.88,3,3,0,0,0,0-4.24L10.24,18H47a3,3,0,0,0,0-6H10.24l6.88-6.88A3,3,0,0,0,12.88.88l-12,12a3,3,0,0,0,0,4.24l12,12A3,3,0,0,0,15,30Z"/><path d="M59.12,42.88l-12-12a3,3,0,0,0-4.24,4.24L49.76,42H13a3,3,0,0,0,0,6H49.76l-6.88,6.88a3,3,0,0,0,0,4.24,3,3,0,0,0,4.24,0l12-12A3,3,0,0,0,59.12,42.88Z"/></g></g></g></svg>