<svg xmlns="http://www.w3.org/2000/svg" viewBox="0 0 59 59"><title>computer</title><g id="Layer_2" data-name="Layer 2"><g id="Layer_1-2" data-name="Layer 1"><g id="computer"><path d="M50.65,11.27H30.85v35h3.42v4.5H30a2.5,2.5,0,1,0,0,5H43.54a2.5,2.5,0,0,0,0-5H39.27v-4.5H50.65A8.35,8.35,0,0,0,59,37.88V19.62A8.35,8.35,0,0,0,50.65,11.27Z"/><path d="M19.35,0H6.5A6.51,6.51,0,0,0,0,6.5v46A6.51,6.51,0,0,0,6.5,59H19.35a6.51,6.51,0,0,0,6.5-6.5V6.5A6.51,6.51,0,0,0,19.35,0ZM13.42,49.13h-1a2.5,2.5,0,0,1,0-5h1a2.5,2.5,0,1,1,0,5Zm2.5-8h-6a2.5,2.5,0,0,1,0-5h6a2.5,2.5,0,1,1,0,5Zm4.93-11H5v-5H20.85Zm0-11H5v-5H20.85Z"/></g></g></g></svg>