<svg xmlns="http://www.w3.org/2000/svg" viewBox="0 0 59 44.58"><title>concrete truck</title><g id="Layer_2" data-name="Layer 2"><g id="Layer_1-2" data-name="Layer 1"><path id="concrete_truck" data-name="concrete truck" d="M58.39,17.45,49,6.64a2.49,2.49,0,0,0-1.89-.86H38.52A2.49,2.49,0,0,0,36,8.28V25.59H27.48a11.58,11.58,0,0,0-2.28-22L7.53.05a2.5,2.5,0,0,0-2.84,1.6L.41,13.41a2.51,2.51,0,0,0,1.15,3.05L4.3,18v7.63H2.5A2.5,2.5,0,0,0,0,28.09V38a2.5,2.5,0,0,0,2.5,2.5H5.06a6.6,6.6,0,0,0,11.47,1.37A6.6,6.6,0,0,0,28,40.47h13.4a6.61,6.61,0,0,0,12.24,0H56.5A2.5,2.5,0,0,0,59,38V19.09A2.52,2.52,0,0,0,58.39,17.45ZM46,10.78l6.65,7.64H41V10.78ZM9.3,20.7l8.06,4.41c.33.18.67.33,1,.48H9.3Zm1.88,19.77a2.5,2.5,0,1,1,2.5-2.5A2.51,2.51,0,0,1,11.18,40.47Zm10.69,0a2.51,2.51,0,1,1,2.5-2.5A2.51,2.51,0,0,1,21.87,40.47Zm25.64,0A2.5,2.5,0,1,1,50,38,2.51,2.51,0,0,1,47.51,40.47Z"/></g></g></svg>