<svg xmlns="http://www.w3.org/2000/svg" viewBox="0 0 59 59"><title>coupon-2</title><g id="Layer_2" data-name="Layer 2"><g id="Layer_1-2" data-name="Layer 1"><path id="coupon-2" d="M50.29,42.22a2.18,2.18,0,0,0,3.1,0l5-5a2.22,2.22,0,0,0,0-3.11L24.85.64a2.22,2.22,0,0,0-3.11,0l-5,5a2.18,2.18,0,0,0,0,3.1,5.71,5.71,0,0,1-8.07,8.07,2.18,2.18,0,0,0-3.1,0l-5,5a2.22,2.22,0,0,0,0,3.11L34.15,58.36a2.22,2.22,0,0,0,3.11,0l5-5a2.18,2.18,0,0,0,0-3.1,5.71,5.71,0,1,1,8.07-8.07ZM37.46,25.79A2.19,2.19,0,0,1,39.65,28v3a2.2,2.2,0,0,1-4.39,0V28A2.2,2.2,0,0,1,37.46,25.79ZM21.54,33.21A2.23,2.23,0,0,1,20,32.57,2.18,2.18,0,0,1,19.35,31V28a2.2,2.2,0,0,1,4.39,0v3A2.2,2.2,0,0,1,21.54,33.21Zm8,10.28A2.18,2.18,0,0,1,28,42.84a2.15,2.15,0,0,1-.64-1.55V17.71a2.19,2.19,0,1,1,4.38,0V41.29A2.2,2.2,0,0,1,29.5,43.49Z"/></g></g></svg>