<svg xmlns="http://www.w3.org/2000/svg" viewBox="0 0 59 39"><title>coupon-1</title><g id="Layer_2" data-name="Layer 2"><g id="Layer_1-2" data-name="Layer 1"><path id="coupon-1" d="M56.5,13A2.5,2.5,0,0,0,59,10.5v-8A2.5,2.5,0,0,0,56.5,0H2.5A2.5,2.5,0,0,0,0,2.5v8A2.5,2.5,0,0,0,2.5,13a6.5,6.5,0,0,1,0,13A2.5,2.5,0,0,0,0,28.5v8A2.5,2.5,0,0,0,2.5,39h54A2.5,2.5,0,0,0,59,36.5v-8A2.5,2.5,0,0,0,56.5,26a6.5,6.5,0,0,1,0-13ZM32.92,10.1a2.5,2.5,0,0,1,3.54,0l2.44,2.44a2.5,2.5,0,0,1-1.77,4.27,2.45,2.45,0,0,1-1.76-.73l-2.45-2.44A2.52,2.52,0,0,1,32.92,10.1ZM26.08,28.9a2.51,2.51,0,0,1-3.54,0L20.1,26.46a2.5,2.5,0,0,1,3.53-3.54l2.45,2.45A2.5,2.5,0,0,1,26.08,28.9Zm14.69,1.87a2.51,2.51,0,0,1-3.54,0l-19-19a2.5,2.5,0,0,1,3.54-3.54l19,19A2.52,2.52,0,0,1,40.77,30.77Z"/></g></g></svg>