<svg xmlns="http://www.w3.org/2000/svg" viewBox="0 0 59 45.23"><title>credit card</title><g id="Layer_2" data-name="Layer 2"><g id="Layer_1-2" data-name="Layer 1"><g id="credit_card" data-name="credit card"><path d="M48.18,0H10.82A10.83,10.83,0,0,0,0,10.82v23.6A10.83,10.83,0,0,0,10.82,45.23H48.18A10.83,10.83,0,0,0,59,34.42V10.82A10.83,10.83,0,0,0,48.18,0ZM10.82,5.9H48.18a4.93,4.93,0,0,1,4.92,4.92v2.29H5.9V10.82A4.93,4.93,0,0,1,10.82,5.9ZM48.18,39.33H10.82A4.92,4.92,0,0,1,5.9,34.42V19H53.1V34.42A4.92,4.92,0,0,1,48.18,39.33Z"/><path d="M28.55,32.12H12.82a2.95,2.95,0,0,1,0-5.9H28.55a2.95,2.95,0,0,1,0,5.9Z"/></g></g></g></svg>