<svg xmlns="http://www.w3.org/2000/svg" viewBox="0 0 43 60"><title>directions</title><g id="Layer_2" data-name="Layer 2"><g id="Layer_1-2" data-name="Layer 1"><g id="directions"><path d="M42.12,27.88l-10-10a3,3,0,0,0-4.24,4.24L32.76,27H26.5A16.52,16.52,0,0,0,10,43.5V57a3,3,0,0,0,6,0V43.5A10.51,10.51,0,0,1,26.5,33h6.26l-4.88,4.88a3,3,0,0,0,0,4.24,3,3,0,0,0,4.24,0l10-10A3,3,0,0,0,42.12,27.88Z"/><path d="M10,25.22a3,3,0,0,0,6,0v-15l4.88,4.88a3,3,0,0,0,4.24,0,3,3,0,0,0,0-4.24l-10-10a3,3,0,0,0-4.24,0l-10,10a3,3,0,0,0,4.24,4.24L10,10.24Z"/></g></g></g></svg>