<svg xmlns="http://www.w3.org/2000/svg" viewBox="0 0 56.71 58.99"><title>discount</title><g id="Layer_2" data-name="Layer 2"><g id="Layer_1-2" data-name="Layer 1"><g id="discount"><path d="M54,30a1.12,1.12,0,0,1,0-1l2-3.95a6.12,6.12,0,0,0-2.67-8.21l-4-2a1.14,1.14,0,0,1-.59-.82l-.7-4.38a6.12,6.12,0,0,0-7-5.07l-4.38.69a1.14,1.14,0,0,1-1-.32L32.68,1.78a6.14,6.14,0,0,0-8.64,0L20.9,4.91a1.14,1.14,0,0,1-1,.32l-4.38-.69a6.12,6.12,0,0,0-7,5.07L7.88,14a1.13,1.13,0,0,1-.6.82l-3.95,2A6.11,6.11,0,0,0,.67,25l2,3.95a1.12,1.12,0,0,1,0,1l-2,4a6.12,6.12,0,0,0,2.66,8.21l4,2a1.11,1.11,0,0,1,.6.81l.7,4.38a6.13,6.13,0,0,0,7,5.08l4.38-.69a1.1,1.1,0,0,1,1,.31L24,57.21a6.13,6.13,0,0,0,8.64,0l3.14-3.13a1.09,1.09,0,0,1,1-.31l4.38.69a6.11,6.11,0,0,0,7-5.08l.7-4.38a1.13,1.13,0,0,1,.59-.81l4-2A6.12,6.12,0,0,0,56.05,34ZM32.3,20.61a2.49,2.49,0,0,1,3.53,0L37.25,22a2.5,2.5,0,0,1-3.54,3.53L32.3,24.15A2.5,2.5,0,0,1,32.3,20.61ZM24.42,38.38a2.49,2.49,0,0,1-3.53,0L19.47,37A2.5,2.5,0,0,1,23,33.43l1.41,1.42A2.49,2.49,0,0,1,24.42,38.38Zm15.21,2.39a2.51,2.51,0,0,1-3.54,0l-19-19a2.5,2.5,0,0,1,3.54-3.54l19,19A2.52,2.52,0,0,1,39.63,40.77Z"/></g></g></g></svg>