<svg xmlns="http://www.w3.org/2000/svg" viewBox="0 0 58.49 53.34"><title>dislike</title><g id="Layer_2" data-name="Layer 2"><g id="Layer_1-2" data-name="Layer 1"><g id="dislike"><path d="M8.57,29.54H6.16A6.16,6.16,0,0,1,0,23.39V11.92A6.16,6.16,0,0,1,6.16,5.77H8.57Z"/><path d="M13.1,5.77l4.74-3.34A13.14,13.14,0,0,1,25.48,0H43.79a8,8,0,0,1,7.55,5.32L58,24a8,8,0,0,1-7.55,10.71H35.12v7.46A11.14,11.14,0,0,1,24,53.34a4.26,4.26,0,0,1-4.25-4.25V39.17a1.76,1.76,0,0,0-.37-1.08l-6.65-8.55Z"/></g></g></g></svg>