<svg xmlns="http://www.w3.org/2000/svg" viewBox="0 0 59 59"><title>document search</title><g id="Layer_2" data-name="Layer 2"><g id="Layer_1-2" data-name="Layer 1"><g id="document_search" data-name="document search"><path d="M58.27,54.73l-5.19-5.18a10.16,10.16,0,0,0,1.48-5.27A10.28,10.28,0,1,0,44.28,54.56a10.16,10.16,0,0,0,5.27-1.48l5.18,5.19a2.51,2.51,0,0,0,3.54,0A2.52,2.52,0,0,0,58.27,54.73Zm-14-5.17a5.28,5.28,0,1,1,5.28-5.28A5.29,5.29,0,0,1,44.28,49.56Z"/><path d="M29,45.56a17.53,17.53,0,0,1,17.5-17.5,2.49,2.49,0,0,0,2.5-2.5V14.5a2.51,2.51,0,0,0-.73-1.77l-12-12A2.51,2.51,0,0,0,34.5,0h-24A10.51,10.51,0,0,0,0,10.5v38A10.51,10.51,0,0,0,10.5,59H29.75a2.5,2.5,0,0,0,2.09-3.87A17.42,17.42,0,0,1,29,45.56ZM33,5h.46L44,15.54V16H33ZM21.5,46.33h-10a2.5,2.5,0,0,1,0-5h10a2.5,2.5,0,0,1,0,5Zm4.12-12.66H11.5a2.5,2.5,0,0,1,0-5H25.62a2.5,2.5,0,1,1,0,5Z"/></g></g></g></svg>