<svg xmlns="http://www.w3.org/2000/svg" viewBox="0 0 58.78 59"><title>document view</title><g id="Layer_2" data-name="Layer 2"><g id="Layer_1-2" data-name="Layer 1"><g id="document_view" data-name="document view"><path d="M48.27,12.73l-12-12A2.51,2.51,0,0,0,34.5,0h-24A10.51,10.51,0,0,0,0,10.5v38A10.51,10.51,0,0,0,10.5,59H29.75a2.48,2.48,0,0,0,1.12-.26,2.51,2.51,0,0,0,1.32-2.81,2.62,2.62,0,0,0-.4-.88,17.5,17.5,0,0,1,14.71-27,2.5,2.5,0,0,0,2.5-2.5V14.5A2.51,2.51,0,0,0,48.27,12.73ZM21.5,46.33h-10a2.5,2.5,0,0,1,0-5h10a2.5,2.5,0,0,1,0,5Zm4.12-12.66H11.5a2.5,2.5,0,0,1,0-5H25.62a2.5,2.5,0,1,1,0,5ZM44,16H33V5h.46L44,15.54Z"/><path d="M57.78,41.6c-2.06-2.41-6.28-6.45-11.5-6.45s-9.45,4-11.5,6.45a4.16,4.16,0,0,0,0,5.42c2,2.41,6.28,6.45,11.5,6.45s9.44-4,11.5-6.45A4.16,4.16,0,0,0,57.78,41.6Zm-11.5,6.21a3.5,3.5,0,1,1,3.5-3.5A3.5,3.5,0,0,1,46.28,47.81Z"/></g></g></g></svg>