<svg xmlns="http://www.w3.org/2000/svg" viewBox="0 0 58.78 59"><title>document editing</title><g id="Layer_2" data-name="Layer 2"><g id="Layer_1-2" data-name="Layer 1"><g id="document_editing" data-name="document editing"><path d="M46.5,28.07a2.5,2.5,0,0,0,2.5-2.5V14.5a2.51,2.51,0,0,0-.73-1.77l-12-12A2.51,2.51,0,0,0,34.5,0h-24A10.51,10.51,0,0,0,0,10.5v38A10.51,10.51,0,0,0,10.5,59H29.75a2.5,2.5,0,0,0,2.09-3.87A17.5,17.5,0,0,1,46.5,28.07Zm-25,18.26h-10a2.5,2.5,0,0,1,0-5h10a2.5,2.5,0,0,1,0,5Zm4.12-12.66H11.5a2.5,2.5,0,0,1,0-5H25.62a2.5,2.5,0,1,1,0,5ZM33,5h.46L44,15.54V16H33Z"/><path d="M58.05,36.62l-4.12-4.11a2.49,2.49,0,0,0-3.53,0L37.92,45a2.51,2.51,0,0,0-.65,1.14l-1.41,5.53a2.49,2.49,0,0,0,2.42,3.12,2.64,2.64,0,0,0,.62-.08l5.52-1.41a2.56,2.56,0,0,0,1.15-.66L58.05,40.16a2.51,2.51,0,0,0,0-3.54Z"/></g></g></g></svg>