<svg xmlns="http://www.w3.org/2000/svg" viewBox="0 0 54 54"><title>dribbble</title><g id="Layer_2" data-name="Layer 2"><g id="Layer_1-2" data-name="Layer 1"><g id="dribbble"><path d="M.49,21.92A27,27,0,0,1,15.13,2.75a2.06,2.06,0,0,0,.33.57A105.89,105.89,0,0,1,25.84,19.11,58.33,58.33,0,0,1,.49,21.92Z"/><path d="M30.5,17.2A111.38,111.38,0,0,0,20,.94,26.48,26.48,0,0,1,27,0,26.85,26.85,0,0,1,44.74,6.65l-.1.1A41.89,41.89,0,0,1,30.5,17.2Z"/><path d="M28.13,23.6c.46.95.89,1.9,1.32,2.86-9,3.05-16.94,9.58-22.4,18.73A26.89,26.89,0,0,1,0,27v-.11a64.79,64.79,0,0,0,6.93.38A61.84,61.84,0,0,0,28.13,23.6Z"/><path d="M54,26.85a36.3,36.3,0,0,0-19.66-1.69c-.51-1.17-1-2.33-1.59-3.49A47,47,0,0,0,48.2,10.28,26.86,26.86,0,0,1,54,26.85Z"/><path d="M37,51.39a2.62,2.62,0,0,0,.19.62,27,27,0,0,1-26.38-3.42,1.55,1.55,0,0,0,.24-.33C16,39.79,23.19,33.78,31.36,31.09A104.8,104.8,0,0,1,37,51.39Z"/><path d="M53.54,32a26.92,26.92,0,0,1-11.8,17.67A110,110,0,0,0,36.26,29.9a31,31,0,0,1,4.91-.39A31.43,31.43,0,0,1,53,31.8,2,2,0,0,0,53.54,32Z"/></g></g></g></svg>