<svg xmlns="http://www.w3.org/2000/svg" viewBox="0 0 59 56.88"><title>dropbox</title><g id="Layer_2" data-name="Layer 2"><g id="Layer_1-2" data-name="Layer 1"><g id="dropbox"><path d="M46.21,42.07a6,6,0,0,1-6.49,0L29.57,35.48,19.25,42.07a6,6,0,0,1-6.48,0L8,39l0,4.57a2.52,2.52,0,0,0,1.27,2.2l19,10.79a2.48,2.48,0,0,0,2.47,0l19-10.79A2.52,2.52,0,0,0,51,43.58V39Z"/><path d="M57.84,26.28,47.63,19.76l10.21-6.52a2.5,2.5,0,0,0,0-4.22L44.33.39a2.51,2.51,0,0,0-2.7,0L29.53,8.16,17.36.39a2.51,2.51,0,0,0-2.69,0L1.16,9a2.5,2.5,0,0,0,0,4.22l10.2,6.45L1.16,26.21A2.48,2.48,0,0,0,0,28.31a2.52,2.52,0,0,0,1.15,2.11l13.51,8.7a2.58,2.58,0,0,0,1.36.39,2.49,2.49,0,0,0,1.34-.39l12.22-7.8,12,7.79a2.52,2.52,0,0,0,2.71,0l13.51-8.63a2.49,2.49,0,0,0,0-4.21ZM29.48,28.94,15.09,19.76l14.45-9.22L44,19.68Z"/></g></g></g></svg>