<svg xmlns="http://www.w3.org/2000/svg" viewBox="0 0 57 46.71"><title>dumper</title><g id="Layer_2" data-name="Layer 2"><g id="Layer_1-2" data-name="Layer 1"><g id="dumper"><path d="M56.59,20,48.18,7.16A2.49,2.49,0,0,0,46.09,6h-4.9L39.82,9.68,32.7,31.1a3.51,3.51,0,0,1-3.32,2.4,3.56,3.56,0,0,1-1.12-.19L5.38,25.58A3.51,3.51,0,0,1,4,24.7v7.46a8.5,8.5,0,1,0,14.08,8.55H34.5a8.49,8.49,0,0,0,16.24,0H54.5a2.49,2.49,0,0,0,2.5-2.5V21.34A2.47,2.47,0,0,0,56.59,20ZM10,41.71a3.5,3.5,0,1,1,3.5-3.5A3.5,3.5,0,0,1,10,41.71Zm32.66,0a3.5,3.5,0,1,1,3.5-3.5A3.5,3.5,0,0,1,42.62,41.71Zm-1.12-23L44.13,11h.61l5,7.64Z"/><path d="M6.34,22.74l22.88,7.73.16,0a.46.46,0,0,0,.23-.06.48.48,0,0,0,.25-.29L37,8.68l3-8a.52.52,0,0,0,0-.47A.52.52,0,0,0,39.52,0h-7a6.56,6.56,0,0,0-6.4,5.23l-.16.8H.5a.49.49,0,0,0-.41.22A.47.47,0,0,0,0,6.71L6,22.44A.54.54,0,0,0,6.34,22.74Z"/></g></g></g></svg>