<svg xmlns="http://www.w3.org/2000/svg" viewBox="0 0 55 59"><title>elevator</title><g id="Layer_2" data-name="Layer 2"><g id="Layer_1-2" data-name="Layer 1"><g id="elevator"><path d="M44.5,0h-34A10.51,10.51,0,0,0,0,10.5v44A4.51,4.51,0,0,0,4.5,59h46A4.51,4.51,0,0,0,55,54.5v-44A10.51,10.51,0,0,0,44.5,0ZM44,54H11V18.5A6.51,6.51,0,0,1,17.5,12h20A6.51,6.51,0,0,1,44,18.5Z"/><path d="M37.5,17h-20A1.5,1.5,0,0,0,16,18.5V49H39V18.5A1.5,1.5,0,0,0,37.5,17ZM34.27,39.86l-5,5a2.51,2.51,0,0,1-3.54,0l-5-5a2.5,2.5,0,0,1,3.54-3.54l3.23,3.23,3.23-3.23a2.5,2.5,0,0,1,3.54,3.54Zm0-10a2.51,2.51,0,0,1-3.54,0L27.5,26.62l-3.23,3.24a2.5,2.5,0,0,1-3.54-3.54l5-5a2.5,2.5,0,0,1,3.54,0l5,5A2.52,2.52,0,0,1,34.27,29.86Z"/></g></g></g></svg>