<svg xmlns="http://www.w3.org/2000/svg" viewBox="0 0 58.85 60"><title>equalizer-2</title><g id="Layer_2" data-name="Layer 2"><g id="Layer_1-2" data-name="Layer 1"><g id="equalizer-2"><path d="M17,18H13V3A3,3,0,0,0,7,3V18H3a3,3,0,0,0,0,6H17a3,3,0,0,0,0-6Z"/><path d="M10,28a3,3,0,0,0-3,3V57a3,3,0,0,0,6,0V31A3,3,0,0,0,10,28Z"/><path d="M55.85,18h-4V3a3,3,0,0,0-6,0V18h-4a3,3,0,0,0,0,6h14a3,3,0,0,0,0-6Z"/><path d="M48.85,27a3,3,0,0,0-3,3V57a3,3,0,0,0,6,0V30A3,3,0,0,0,48.85,27Z"/><path d="M36.43,36h-14a3,3,0,0,0,0,6h4V57a3,3,0,0,0,6,0V42h4a3,3,0,1,0,0-6Z"/><path d="M29.43,33a3,3,0,0,0,3-3V3a3,3,0,0,0-6,0V30A3,3,0,0,0,29.43,33Z"/></g></g></g></svg>