<svg xmlns="http://www.w3.org/2000/svg" viewBox="0 0 60 60"><title>equalizer-1</title><g id="Layer_2" data-name="Layer 2"><g id="Layer_1-2" data-name="Layer 1"><g id="equalizer-1"><path d="M33,30.46V3a3,3,0,0,0-6,0V30.46a10,10,0,0,0,0,19.08V57a3,3,0,0,0,6,0V49.54a10,10,0,0,0,0-19.08ZM30,44a4,4,0,1,1,4-4A4,4,0,0,1,30,44Z"/><path d="M20,20a10,10,0,0,0-7-9.54V3A3,3,0,0,0,7,3v7.46A10,10,0,0,0,7,29.54V57a3,3,0,0,0,6,0V29.54A10,10,0,0,0,20,20ZM10,24a4,4,0,1,1,4-4A4,4,0,0,1,10,24Z"/><path d="M60,20a10,10,0,0,0-7-9.54V3a3,3,0,0,0-6,0v7.46a10,10,0,0,0,0,19.08V57a3,3,0,0,0,6,0V29.54A10,10,0,0,0,60,20ZM50,24a4,4,0,1,1,4-4A4,4,0,0,1,50,24Z"/></g></g></g></svg>