<svg xmlns="http://www.w3.org/2000/svg" viewBox="0 0 60 58.85"><title>equalizer-3</title><g id="Layer_2" data-name="Layer 2"><g id="Layer_1-2" data-name="Layer 1"><g id="equalizer-3"><path d="M39,20a3,3,0,0,0,3-3V13H57a3,3,0,0,0,0-6H42V3a3,3,0,0,0-6,0V17A3,3,0,0,0,39,20Z"/><path d="M3,13H29a3,3,0,0,0,0-6H3a3,3,0,0,0,0,6Z"/><path d="M30,45.85H3a3,3,0,0,0,0,6H30a3,3,0,0,0,0-6Z"/><path d="M57,45.85H42v-4a3,3,0,1,0-6,0v14a3,3,0,0,0,6,0v-4H57a3,3,0,0,0,0-6Z"/><path d="M57,26.43H30a3,3,0,0,0,0,6H57a3,3,0,0,0,0-6Z"/><path d="M3,32.43H18v4a3,3,0,0,0,6,0v-14a3,3,0,0,0-6,0v4H3a3,3,0,0,0,0,6Z"/></g></g></g></svg>