<svg xmlns="http://www.w3.org/2000/svg" viewBox="0 0 53 59"><title>event available</title><g id="Layer_2" data-name="Layer 2"><g id="Layer_1-2" data-name="Layer 1"><g id="event_available" data-name="event available"><path d="M42.5,7h-1V2.5a2.5,2.5,0,0,0-5,0V7h-20V2.5a2.5,2.5,0,0,0-5,0V7h-1A10.51,10.51,0,0,0,0,17.5v31A10.51,10.51,0,0,0,10.5,59h32A10.51,10.51,0,0,0,53,48.5v-31A10.51,10.51,0,0,0,42.5,7Zm0,47h-32A5.51,5.51,0,0,1,5,48.5V25H48V48.5A5.51,5.51,0,0,1,42.5,54Z"/><path d="M35.73,30.71,23.45,43l-6.18-6.18a2.5,2.5,0,1,0-3.54,3.54l8,7.94a2.5,2.5,0,0,0,1.77.74,2.46,2.46,0,0,0,1.76-.74l14.06-14a2.5,2.5,0,0,0-3.54-3.53Z"/></g></g></g></svg>