<svg xmlns="http://www.w3.org/2000/svg" viewBox="0 0 59 57.28"><title>excavator</title><g id="Layer_2" data-name="Layer 2"><g id="Layer_1-2" data-name="Layer 1"><path id="excavator" d="M59,38.5a5.53,5.53,0,0,0-5.5-5.45H48.16l-2-8.53a6.48,6.48,0,0,0-6.32-5H28.41L4.06.55A2.51,2.51,0,0,0,2.57,0H2.24A2.56,2.56,0,0,0,.82.65L.64.83A2.51,2.51,0,0,0,0,2.51V34.38s0,.06,0,.09,0,.05,0,.08a10.21,10.21,0,1,0,20.41,0,2.5,2.5,0,0,0-2.5-2.5H5V8.44L25.05,28v14.8a7.32,7.32,0,0,0,1.54,14.47H45.85A7.32,7.32,0,0,0,53.16,50a7.08,7.08,0,0,0-.38-2.31h.72a5.5,5.5,0,0,0,5.5-5.5C59,41,59,39.65,59,38.5ZM14.77,37.05a5.2,5.2,0,0,1-9.13,0ZM48.16,50a2.32,2.32,0,0,1-2.31,2.32H26.59a2.32,2.32,0,1,1,0-4.63H45.85A2.32,2.32,0,0,1,48.16,50Z"/></g></g></svg>