<svg xmlns="http://www.w3.org/2000/svg" viewBox="0 0 60 60"><title>exit full screen</title><g id="Layer_2" data-name="Layer 2"><g id="Layer_1-2" data-name="Layer 1"><g id="exit_full_screen" data-name="exit full screen"><path d="M39,24H55a3,3,0,0,0,0-6H46.24L59.12,5.12A3,3,0,0,0,54.88.88L42,13.76V5a3,3,0,0,0-6,0V21A3,3,0,0,0,39,24Z"/><path d="M46.24,42H55a3,3,0,0,0,0-6H39a3,3,0,0,0-3,3V55a3,3,0,0,0,6,0V46.24L54.88,59.12a3,3,0,0,0,4.24,0,3,3,0,0,0,0-4.24Z"/><path d="M21,2a3,3,0,0,0-3,3v8.76L5.12.88A3,3,0,0,0,.88,5.12L13.76,18H5a3,3,0,0,0,0,6H21a3,3,0,0,0,3-3V5A3,3,0,0,0,21,2Z"/><path d="M21,36H5a3,3,0,0,0,0,6h8.76L.88,54.88a3,3,0,0,0,0,4.24,3,3,0,0,0,4.24,0L18,46.24V55a3,3,0,0,0,6,0V39A3,3,0,0,0,21,36Z"/></g></g></g></svg>