<svg xmlns="http://www.w3.org/2000/svg" viewBox="0 0 58.97 58.99"><title>explore</title><g id="Layer_2" data-name="Layer 2"><g id="Layer_1-2" data-name="Layer 1"><g id="explore"><path d="M50.35,8.64a29.49,29.49,0,1,0,0,41.72A29.33,29.33,0,0,0,50.35,8.64Zm-6.54,9.77L37,35.69a2.54,2.54,0,0,1-1.42,1.42L18.4,43.83a2.66,2.66,0,0,1-.91.17,2.54,2.54,0,0,1-1.77-.73,2.51,2.51,0,0,1-.56-2.68l6.72-17.22A2.48,2.48,0,0,1,23.3,22l17.27-6.78a2.51,2.51,0,0,1,2.68.56A2.48,2.48,0,0,1,43.81,18.41Z"/><polygon points="21.89 37.1 32.78 32.84 37.07 21.92 26.14 26.2 21.89 37.1"/></g></g></g></svg>