<svg xmlns="http://www.w3.org/2000/svg" viewBox="0 0 59 59"><title>explore off</title><g id="Layer_2" data-name="Layer 2"><g id="Layer_1-2" data-name="Layer 1"><g id="explore_off" data-name="explore off"><path d="M40.58,15.17a2.5,2.5,0,0,1,3.24,3.25l-4,10.25L55.17,44A29.5,29.5,0,0,0,15,3.83L30.33,19.2Z"/><polygon points="37.08 21.92 34.19 23.07 35.94 24.82 37.08 21.92"/><path d="M58.14,54,5,.86A3,3,0,0,0,.86,5l5.8,5.79A29.5,29.5,0,0,0,48.17,52.34L54,58.14A3,3,0,0,0,58.14,54ZM18.41,43.83a2.44,2.44,0,0,1-.91.17,2.5,2.5,0,0,1-2.33-3.41l6-15.28L25,29.17,21.9,37.1,29.84,34l3.86,3.86Z"/></g></g></g></svg>