<svg xmlns="http://www.w3.org/2000/svg" viewBox="0 0 59 55.11"><title>fan-2</title><g id="Layer_2" data-name="Layer 2"><g id="Layer_1-2" data-name="Layer 1"><path id="fan-2" d="M58.42,34.33a2,2,0,0,0-1.71-1.49L39.65,30.67A10.16,10.16,0,0,0,35.24,23L41.89,7.17A2,2,0,0,0,41.46,5,16.92,16.92,0,0,0,17.54,5a2,2,0,0,0-.44,2.22L23.76,23a10.16,10.16,0,0,0-4.41,7.65L2.29,32.84A2,2,0,0,0,.58,34.33,16.92,16.92,0,0,0,12.54,55a1.86,1.86,0,0,0,.52.07,2,2,0,0,0,1.62-.8l10.41-13.7a10,10,0,0,0,8.82,0l10.41,13.7a2,2,0,0,0,1.62.8,1.86,1.86,0,0,0,.52-.07A16.92,16.92,0,0,0,58.42,34.33Zm-34-2.89a5.09,5.09,0,1,1,5.09,5.08A5.1,5.1,0,0,1,24.41,31.44Z"/></g></g></svg>