<svg xmlns="http://www.w3.org/2000/svg" viewBox="0 0 50.99 59"><title>fan-1</title><g id="Layer_2" data-name="Layer 2"><g id="Layer_1-2" data-name="Layer 1"><g id="fan-1"><path d="M33.22,49.79a25.5,25.5,0,1,0-15.45,0A3.14,3.14,0,0,1,18.82,52a3.31,3.31,0,0,1-1.41,2.54A2.5,2.5,0,0,0,19,59H32a2.5,2.5,0,0,0,1.55-4.46A3.31,3.31,0,0,1,32.17,52,3.14,3.14,0,0,1,33.22,49.79ZM5,25.5A20.5,20.5,0,1,1,31.72,45a2.51,2.51,0,0,0-.7.19,20,20,0,0,1-11,0,2.42,2.42,0,0,0-.7-.19A20.53,20.53,0,0,1,5,25.5Z"/><path d="M23,29.1a9.84,9.84,0,0,0,.28,3.32,9.56,9.56,0,0,0,17.51,2.3,1.5,1.5,0,0,0-.55-2L29.54,26.51a9.55,9.55,0,0,0-4-18.2A1.5,1.5,0,0,0,24,9.81V22.13A9.54,9.54,0,0,0,10.25,34.72a1.5,1.5,0,0,0,1.3.75,1.48,1.48,0,0,0,.75-.2Z"/></g></g></g></svg>