<svg xmlns="http://www.w3.org/2000/svg" viewBox="0 0 50.99 59"><title>fan-3</title><g id="Layer_2" data-name="Layer 2"><g id="Layer_1-2" data-name="Layer 1"><g id="fan-3"><path d="M33.22,49.79a25.5,25.5,0,1,0-15.45,0A3.14,3.14,0,0,1,18.82,52a3.31,3.31,0,0,1-1.41,2.54A2.5,2.5,0,0,0,19,59H32a2.5,2.5,0,0,0,1.55-4.46A3.31,3.31,0,0,1,32.17,52,3.14,3.14,0,0,1,33.22,49.79ZM5,25.5A20.5,20.5,0,1,1,31.72,45a2.51,2.51,0,0,0-.7.19,20,20,0,0,1-11,0,2.42,2.42,0,0,0-.7-.19A20.53,20.53,0,0,1,5,25.5Z"/><path d="M22.85,32.11a6.32,6.32,0,0,0,5.29,0l4.43,5.83a1.38,1.38,0,0,0,1.09.54,1.48,1.48,0,0,0,.35,0,8.75,8.75,0,0,0,6.18-10.71,1.35,1.35,0,0,0-1.14-1l-7.26-.92a6.35,6.35,0,0,0-2.65-4.59L32,14.46A1.35,1.35,0,0,0,31.68,13a8.76,8.76,0,0,0-12.37,0A1.35,1.35,0,0,0,19,14.46l2.83,6.75a6.33,6.33,0,0,0-2.65,4.58l-7.26.93a1.35,1.35,0,0,0-1.14,1A8.75,8.75,0,0,0,17,38.43a1.49,1.49,0,0,0,.36,0,1.38,1.38,0,0,0,1.08-.54Z"/></g></g></g></svg>