<svg xmlns="http://www.w3.org/2000/svg" viewBox="0 0 56.79 45.48"><title>faucet</title><g id="Layer_2" data-name="Layer 2"><g id="Layer_1-2" data-name="Layer 1"><path id="faucet" d="M41.29,22.87H37.08V16.08a1.5,1.5,0,0,0-1.5-1.5h-6V5h6a2.5,2.5,0,0,0,0-5H18.14a2.5,2.5,0,0,0,0,5h6.4v9.58h-6.3c-1.6,0-1.6,1.76-1.6,2.61v5.37H1.5A1.5,1.5,0,0,0,0,24.06V34.49A1.5,1.5,0,0,0,1.5,36H17.8a9.46,9.46,0,0,0,8.34,5h1.44a9.46,9.46,0,0,0,8.86-6.09h3.75a3.5,3.5,0,0,1,3.5,3.5V44a1.5,1.5,0,0,0,1.5,1.5h10.1a1.5,1.5,0,0,0,1.5-1.5V38.37A15.53,15.53,0,0,0,41.29,22.87Z"/></g></g></svg>