<svg xmlns="http://www.w3.org/2000/svg" viewBox="0 0 52 60"><title>file copy</title><g id="Layer_2" data-name="Layer 2"><g id="Layer_1-2" data-name="Layer 1"><g id="file_copy" data-name="file copy"><path d="M41.88,60H11.64A11.65,11.65,0,0,1,0,48.36v-41a3,3,0,0,1,6,0v41A5.65,5.65,0,0,0,11.64,54H41.88a3,3,0,0,1,0,6Z"/><path d="M51.12,10.48,41.52.88A3,3,0,0,0,39.4,0H20.2a9.41,9.41,0,0,0-9.4,9.4V39.8a9.41,9.41,0,0,0,9.4,9.4H42.6A9.41,9.41,0,0,0,52,39.8V12.6A3,3,0,0,0,51.12,10.48ZM42.6,43.2H20.2a3.41,3.41,0,0,1-3.4-3.4V9.4A3.41,3.41,0,0,1,20.2,6h13v9.8a3,3,0,0,0,3,3H46v21A3.41,3.41,0,0,1,42.6,43.2Z"/></g></g></g></svg>