<svg xmlns="http://www.w3.org/2000/svg" viewBox="0 0 63 57.52"><title>find replace</title><g id="Layer_2" data-name="Layer 2"><g id="Layer_1-2" data-name="Layer 1"><g id="find_replace" data-name="find replace"><path d="M62.14,52.51,46.37,36.75A23.92,23.92,0,0,0,52,23.08l1.63,1.75a2.93,2.93,0,0,0,2.15.93,3,3,0,0,0,2-.78,2.93,2.93,0,0,0,.14-4.15l-7.75-8.31A2.93,2.93,0,0,0,46,12.37l-8.31,7.75a2.94,2.94,0,0,0,4,4.3l4.44-4.15A18.12,18.12,0,0,1,21.11,38a2.93,2.93,0,1,0-2.25,5.42A24,24,0,0,0,42,40.72L58,56.66a2.93,2.93,0,0,0,4.15,0A2.93,2.93,0,0,0,62.14,52.51Z"/><path d="M21.15,21A2.94,2.94,0,0,0,17,20.81L12.55,25A18.11,18.11,0,0,1,37.61,7.26a2.94,2.94,0,0,0,2.26-5.42A24,24,0,0,0,6.72,22.14L5.08,20.39a2.94,2.94,0,1,0-4.29,4l7.75,8.31a2.94,2.94,0,0,0,4.15.14L21,25.1A2.94,2.94,0,0,0,21.15,21Z"/></g></g></g></svg>