<svg xmlns="http://www.w3.org/2000/svg" viewBox="0 0 59 59"><title>find in page</title><g id="Layer_2" data-name="Layer 2"><g id="Layer_1-2" data-name="Layer 1"><g id="find_in_page" data-name="find in page"><path d="M48.5,0h-38A10.51,10.51,0,0,0,0,10.5v38A10.51,10.51,0,0,0,10.5,59h38A10.51,10.51,0,0,0,59,48.5v-38A10.51,10.51,0,0,0,48.5,0ZM23,8h2a2.5,2.5,0,0,1,0,5H23a2.5,2.5,0,1,1,0-5ZM12,8h2a2.5,2.5,0,0,1,0,5H12a2.5,2.5,0,0,1,0-5ZM54,48.5A5.51,5.51,0,0,1,48.5,54h-38A5.51,5.51,0,0,1,5,48.5V21H54Z"/><path d="M42.27,46.89l-5.84-5.84a11,11,0,0,0,1.68-5.83,11.06,11.06,0,1,0-11,11.05,11,11,0,0,0,5.83-1.68l5.84,5.84a2.51,2.51,0,0,0,3.54,0A2.52,2.52,0,0,0,42.27,46.89ZM21,35.22a6.06,6.06,0,1,1,6.06,6.05A6.07,6.07,0,0,1,21,35.22Z"/></g></g></g></svg>