<svg xmlns="http://www.w3.org/2000/svg" viewBox="0 0 46.1 59"><title>fingerprint-2</title><g id="Layer_2" data-name="Layer 2"><g id="Layer_1-2" data-name="Layer 1"><g id="fingerprint-2"><path d="M3,56.81a3,3,0,0,1,0-5.9A17.61,17.61,0,0,0,20.54,33.32V22.61a3,3,0,0,1,5.9,0V33.32A23.52,23.52,0,0,1,3,56.81Z"/><path d="M23.07,59a3,3,0,0,1-2-5.16,27.45,27.45,0,0,0,9.26-20.52V22.61a6.88,6.88,0,0,0-13.76,0V33.32A13.68,13.68,0,0,1,3,47a2.95,2.95,0,0,1,0-5.9,7.77,7.77,0,0,0,7.76-7.76V22.61a12.78,12.78,0,0,1,25.56,0V33.32A33.34,33.34,0,0,1,25,58.26,2.92,2.92,0,0,1,23.07,59Z"/><path d="M36.12,59a2.94,2.94,0,0,1-2.43-4.62,37,37,0,0,0,6.51-21V23.05a17.15,17.15,0,0,0-34.3,0v4.47a2.95,2.95,0,0,1-5.9,0V23.05a23.05,23.05,0,0,1,46.1,0V33.32A42.88,42.88,0,0,1,38.55,57.7,2.92,2.92,0,0,1,36.12,59Z"/></g></g></g></svg>