<svg xmlns="http://www.w3.org/2000/svg" viewBox="0 0 59 59"><title>fingerprint-1</title><g id="Layer_2" data-name="Layer 2"><g id="Layer_1-2" data-name="Layer 1"><g id="fingerprint-1"><path d="M13.87,50.9a2.46,2.46,0,1,1,0-4.92A13.52,13.52,0,0,0,27.38,32.47V24.14a2.46,2.46,0,1,1,4.92,0v8.33A18.45,18.45,0,0,1,13.87,50.9Z"/><path d="M29.51,52.61a2.46,2.46,0,0,1-1.63-4.3A21.16,21.16,0,0,0,35,32.47V24.14a5.19,5.19,0,0,0-10.38,0v8.33A10.79,10.79,0,0,1,13.87,43.26a2.46,2.46,0,1,1,0-4.92,5.88,5.88,0,0,0,5.87-5.87V24.14a10.11,10.11,0,0,1,20.21,0v8.33A26.1,26.1,0,0,1,31.14,52,2.46,2.46,0,0,1,29.51,52.61Z"/><path d="M39.66,52.59a2.4,2.4,0,0,1-1.39-.43,2.45,2.45,0,0,1-.63-3.41,28.67,28.67,0,0,0,5-16.28v-8a13.17,13.17,0,0,0-26.34,0V28a2.46,2.46,0,1,1-4.92,0V24.48a18.09,18.09,0,0,1,36.18,0v8a33.54,33.54,0,0,1-5.9,19.06A2.44,2.44,0,0,1,39.66,52.59Z"/><path d="M56.05,15.73a3,3,0,0,1-2.95-3V5.9H46.22a3,3,0,1,1,0-5.9h9.83a3,3,0,0,1,3,3v9.83A3,3,0,0,1,56.05,15.73Z"/><path d="M3,15.73a3,3,0,0,1-2.95-3V3A3,3,0,0,1,3,0h9.83a3,3,0,1,1,0,5.9H5.9v6.88A3,3,0,0,1,3,15.73Z"/><path d="M56.05,59H46.22a3,3,0,1,1,0-5.9H53.1V46.22a3,3,0,0,1,5.9,0v9.83A3,3,0,0,1,56.05,59Z"/><path d="M12.78,59H3a3,3,0,0,1-2.95-3V46.22a3,3,0,0,1,5.9,0V53.1h6.88a3,3,0,1,1,0,5.9Z"/></g></g></g></svg>