<svg xmlns="http://www.w3.org/2000/svg" viewBox="0 0 40.06 57"><title>fire</title><g id="Layer_2" data-name="Layer 2"><g id="Layer_1-2" data-name="Layer 1"><path id="fire" d="M39.48,40.29a1.52,1.52,0,0,0-1.67-.11A13.66,13.66,0,0,1,31.3,42h0A5.34,5.34,0,0,1,26,36.67,5.24,5.24,0,0,1,26.66,34c4.52-7.92,6.46-13.71,6.28-18.78C32.64,6.57,24,.52,23.63.26a1.51,1.51,0,0,0-2.3.84A34.23,34.23,0,0,1,12.9,15.75c-1.13,1.2-2.28,2.32-3.73,3.62l-.3.26L6.41,21.84a20.35,20.35,0,0,0-.9,28.75A20.45,20.45,0,0,0,20.34,57h0c.55,0,1.11,0,1.61-.06A20.4,20.4,0,0,0,40,41.87,1.49,1.49,0,0,0,39.48,40.29Z"/></g></g></svg>