<svg xmlns="http://www.w3.org/2000/svg" viewBox="0 0 59 59"><title>first aid</title><g id="Layer_2" data-name="Layer 2"><g id="Layer_1-2" data-name="Layer 1"><path id="first_aid" data-name="first aid" d="M48.5,12H43.77a14.48,14.48,0,0,0-28.54,0H10.5A10.51,10.51,0,0,0,0,22.5v26A10.51,10.51,0,0,0,10.5,59h38A10.51,10.51,0,0,0,59,48.5v-26A10.51,10.51,0,0,0,48.5,12Zm-19-7a9.5,9.5,0,0,1,9.15,7H20.36A9.65,9.65,0,0,1,29.5,5ZM42,39.48a2.16,2.16,0,0,1-2.16,2.15H35.63v3.42a2.16,2.16,0,0,1-2.16,2.16H25.52a2.16,2.16,0,0,1-2.16-2.16V41.63h-4.2A2.16,2.16,0,0,1,17,39.48v-8a2.16,2.16,0,0,1,2.16-2.16h4.2V26a2.16,2.16,0,0,1,2.16-2.16h8A2.16,2.16,0,0,1,35.63,26v3.41h4.21A2.16,2.16,0,0,1,42,31.52Z"/></g></g></svg>