<svg xmlns="http://www.w3.org/2000/svg" viewBox="0 0 58.89 48.6"><title>fish</title><g id="Layer_2" data-name="Layer 2"><g id="Layer_1-2" data-name="Layer 1"><path id="fish" d="M58.48,23.52C53.65,16.23,47,11.47,39.79,10a.38.38,0,0,1,0-.1A15,15,0,0,0,20.55.9a2.51,2.51,0,0,0-1.49,3.21l3.19,8.76a28.23,28.23,0,0,0-4.65,3.25,13.79,13.79,0,0,0-2.3-3.61C12.1,9,7.31,7.6,2.14,8.77a2.5,2.5,0,0,0-1.91,2A16.85,16.85,0,0,0,4.52,24.82l.07.08a.46.46,0,0,1-.07.07A16.91,16.91,0,0,0,.23,39a2.5,2.5,0,0,0,1.91,2,16.31,16.31,0,0,0,3.55.4,12.67,12.67,0,0,0,9.61-4.16,13.43,13.43,0,0,0,2.3-3.59,29.51,29.51,0,0,0,6.06,4l-2.5,6.87a2.5,2.5,0,0,0,1.5,3.2,13.42,13.42,0,0,0,17.17-8c7.2-1.52,13.81-6.27,18.64-13.54A2.51,2.51,0,0,0,58.48,23.52Zm-13.39-.14a3.75,3.75,0,0,1-.53.44,4.86,4.86,0,0,1-.6.32,3.23,3.23,0,0,1-.65.2,4,4,0,0,1-.68.07,3.53,3.53,0,0,1-3.51-3.52,3.94,3.94,0,0,1,.07-.69,4,4,0,0,1,.21-.67,3.46,3.46,0,0,1,.32-.6,3.25,3.25,0,0,1,.44-.54,3.58,3.58,0,0,1,4.93,0,3.91,3.91,0,0,1,.45.54,4.2,4.2,0,0,1,.3.6,3.25,3.25,0,0,1,.21.67,3.94,3.94,0,0,1,.07.69A3.53,3.53,0,0,1,45.09,23.38Z"/></g></g></svg>