<svg xmlns="http://www.w3.org/2000/svg" viewBox="0 0 57.5 57.49"><title>fishing</title><g id="Layer_2" data-name="Layer 2"><g id="Layer_1-2" data-name="Layer 1"><path id="fishing" d="M57.49,45V2.5A2.5,2.5,0,0,0,53.23.73L27.12,26.84a10,10,0,0,0-10.06,0L13.63,23.4a2.51,2.51,0,0,0-3.54,0L6.87,26.62a2.5,2.5,0,0,0,3.54,3.54l1.45-1.46,1.66,1.67a10,10,0,0,0-1.12,7.21L1.55,48.43a5.31,5.31,0,0,0,7.51,7.51L19.91,45.1a9.93,9.93,0,0,0,12-11.31H32a12.15,12.15,0,0,0,8.83-3.37,12.42,12.42,0,0,0,3.33-9.67c.4,0,.79,0,1.17,0a12.67,12.67,0,0,0,7.18-2V45.09a2,2,0,0,1-4,0,2.5,2.5,0,1,0-5,0,7,7,0,0,0,14,0ZM25.59,38.9a4.94,4.94,0,1,1,0-7A5,5,0,0,1,25.59,38.9Zm11.68-12a7.09,7.09,0,0,1-5,1.89l6.91-6.91A7.18,7.18,0,0,1,37.27,26.89Zm13.33-13a7.33,7.33,0,0,1-5.36,1.88l7.24-7.24A7.33,7.33,0,0,1,50.6,13.9Z"/></g></g></svg>