<svg xmlns="http://www.w3.org/2000/svg" viewBox="0 0 57.5 57.5"><title>flashlight</title><g id="Layer_2" data-name="Layer 2"><g id="Layer_1-2" data-name="Layer 1"><g id="flashlight"><path d="M27.48,13.14a1,1,0,0,0-1.41,0l-4.78,4.78a9.36,9.36,0,0,0-2.69,5.63l-.39,3.57a7.33,7.33,0,0,1-2.11,4.43L2,45.61a7,7,0,0,0,0,9.85,7,7,0,0,0,9.85,0L26,41.4a7.4,7.4,0,0,1,4.43-2.12L34,38.9a9.42,9.42,0,0,0,5.63-2.69l4.78-4.78a1,1,0,0,0,0-1.42Z"/><path d="M57,17.13a2.5,2.5,0,0,0-3.48-.61L47.7,20.63a2.49,2.49,0,0,0,1.43,4.54,2.48,2.48,0,0,0,1.44-.45l5.86-4.11A2.49,2.49,0,0,0,57,17.13Z"/><path d="M33.39,10.41a2.48,2.48,0,0,0,1.43.46,2.52,2.52,0,0,0,2-1.07L41,3.93a2.5,2.5,0,1,0-4.1-2.86l-4.1,5.86A2.49,2.49,0,0,0,33.39,10.41Z"/><path d="M50.46,7a2.5,2.5,0,0,0-3.54,0L41.86,12.1a2.5,2.5,0,0,0,1.77,4.27,2.45,2.45,0,0,0,1.76-.73l5.07-5.06A2.52,2.52,0,0,0,50.46,7Z"/></g></g></g></svg>