<svg xmlns="http://www.w3.org/2000/svg" viewBox="0 0 59 59"><title>flash off</title><g id="Layer_2" data-name="Layer 2"><g id="Layer_1-2" data-name="Layer 1"><g id="flash_off" data-name="flash off"><path d="M50.89,25.38a2.5,2.5,0,0,0-2-3.93H33.57L35.32,2.73a2.5,2.5,0,0,0-4.54-1.66L23.15,12,45,33.86Z"/><path d="M58.14,54,5,.86A3,3,0,0,0,.86,5l16,16L8.11,33.6a2.49,2.49,0,0,0,2.05,3.92H25.43L23.68,56.27a2.49,2.49,0,0,0,1.63,2.58,2.55,2.55,0,0,0,.86.15,2.51,2.51,0,0,0,2-1.07l10.49-15L54,58.14A3,3,0,0,0,58.14,54Z"/></g></g></g></svg>