<svg xmlns="http://www.w3.org/2000/svg" viewBox="0 0 59 48.09"><title>flight land</title><g id="Layer_2" data-name="Layer 2"><g id="Layer_1-2" data-name="Layer 1"><g id="flight_land" data-name="flight land"><path d="M13.77,18.3,47,34.92A4.61,4.61,0,0,0,53.06,33h0a4.6,4.6,0,0,0-1.79-6.25L39.69,20.38,38.4,4.83a2,2,0,0,0-1-1.59L32.9.76a2,2,0,0,0-3,1.52L28.38,15.56,16.23,10l.53-6.3L9.33,0,8.64,9.25A9.36,9.36,0,0,0,13.77,18.3Z"/><path d="M56.5,48.09H2.5a2.5,2.5,0,0,1,0-5h54a2.5,2.5,0,0,1,0,5Z"/></g></g></g></svg>