<svg xmlns="http://www.w3.org/2000/svg" viewBox="0 0 58 58"><title>flight</title><g id="Layer_2" data-name="Layer 2"><g id="Layer_1-2" data-name="Layer 1"><path id="flight" d="M52.61,46,45.44,22.63,55.64,13A7.54,7.54,0,0,0,55.8,2.2,7.54,7.54,0,0,0,45,2.36L34.87,13.08,11.46,5.91A5.65,5.65,0,0,0,6.8,16.1L22.64,26l-8.4,8.88L6.72,34a1.22,1.22,0,0,0-1,.34L.35,39.67A1.18,1.18,0,0,0,0,40.76a1.16,1.16,0,0,0,.73.86L12,46l4.42,11.2a1.15,1.15,0,0,0,.26.41,1.21,1.21,0,0,0,1.69,0l5.38-5.37a1.22,1.22,0,0,0,.34-1l-1-7.52,9.41-8.89,9.92,15.82A5.66,5.66,0,0,0,52.61,46Z"/></g></g></svg>