<svg xmlns="http://www.w3.org/2000/svg" viewBox="0 0 37.2 59"><title>flower</title><g id="Layer_2" data-name="Layer 2"><g id="Layer_1-2" data-name="Layer 1"><g id="flower"><path d="M7.3,28.88A9.14,9.14,0,0,0,8.67,29a8,8,0,0,0,1.39-.13A8.64,8.64,0,0,0,26.3,31.49a8.39,8.39,0,0,0,.83-2.63,8.08,8.08,0,0,0,1.39.13,8.94,8.94,0,0,0,1.37-.11,8.65,8.65,0,0,0,4.77-14.65,8.76,8.76,0,0,0-2.25-1.61,8.63,8.63,0,0,0-13.81-10,8.62,8.62,0,0,0-13.81,10A8.64,8.64,0,0,0,7.3,28.88ZM31.12,17.76a3.64,3.64,0,0,1-2,6.18,3.56,3.56,0,0,1-3.52-1.46l-.8-1.1a7.53,7.53,0,0,0,1.33-4.08l1.3-.43A3.58,3.58,0,0,1,31.12,17.76Zm-10-9.11a3.64,3.64,0,1,1,7.24.57,3.57,3.57,0,0,1-2.47,2.9l-1.3.42A7.5,7.5,0,0,0,21.1,10ZM16.45,24.32a7,7,0,0,0,2.16.32,7.35,7.35,0,0,0,2.14-.32l.8,1.1a3.65,3.65,0,1,1-5.9,0ZM10.31,5.7a3.65,3.65,0,0,1,5.79,3V10a7.75,7.75,0,0,0-1.93,1,7.45,7.45,0,0,0-1.55,1.52l-1.29-.42a3.65,3.65,0,0,1-1-6.42ZM6.08,17.76a3.58,3.58,0,0,1,3.7-.89l1.3.43a7.39,7.39,0,0,0,1.33,4.08l-.81,1.1a3.56,3.56,0,0,1-3.52,1.46,3.65,3.65,0,0,1-2-6.18Z"/><path d="M34.7,37.9a18.6,18.6,0,0,0-16.1,9.32A18.6,18.6,0,0,0,2.5,37.9,2.5,2.5,0,0,0,0,40.4a18.6,18.6,0,0,0,37.2,0A2.5,2.5,0,0,0,34.7,37.9Z"/></g></g></g></svg>