<svg xmlns="http://www.w3.org/2000/svg" viewBox="0 0 61.51 61.21"><title>folder view</title><g id="Layer_2" data-name="Layer 2"><g id="Layer_1-2" data-name="Layer 1"><g id="folder_view" data-name="folder view"><path d="M20.55,54.68a9.56,9.56,0,0,1,0-13c3.79-4.12,11.61-11,21.43-11,6.89,0,12.79,3.4,17,6.86V21.21a10.51,10.51,0,0,0-10.5-10.5H32.87l-9-9.89A2.52,2.52,0,0,0,22.06,0H2.5A2.5,2.5,0,0,0,0,2.5V48.21a10.51,10.51,0,0,0,10.5,10.5H24.79A43.58,43.58,0,0,1,20.55,54.68ZM5,10.71V5H21l5.17,5.71Z"/><path d="M60.22,45.19c-3.22-3.51-9.79-9.4-17.73-9.4s-14.44,5.84-17.65,9.32a5,5,0,0,0,0,6.77c3.21,3.48,9.76,9.33,17.65,9.33S57,55.32,60.22,51.8A4.88,4.88,0,0,0,60.22,45.19ZM42.49,53.5a5,5,0,1,1,5-5A5,5,0,0,1,42.49,53.5Z"/></g></g></g></svg>