<svg xmlns="http://www.w3.org/2000/svg" viewBox="0 0 61.5 61.21"><title>folder settings</title><g id="Layer_2" data-name="Layer 2"><g id="Layer_1-2" data-name="Layer 1"><g id="folder_settings" data-name="folder settings"><path d="M46,22.89A22.43,22.43,0,0,1,59,27V21.21a10.51,10.51,0,0,0-10.5-10.5H32.87l-9-9.89A2.52,2.52,0,0,0,22.06,0H2.5A2.5,2.5,0,0,0,0,2.5V48.21a10.51,10.51,0,0,0,10.5,10.5H27.87A22.5,22.5,0,0,1,46,22.89ZM5,10.71V5H21l5.17,5.71Z"/><path d="M60.43,47.76l-2.32-1.34a1.18,1.18,0,0,1-.59-1,1.17,1.17,0,0,1,.59-1L60.43,43a2.13,2.13,0,0,0,.78-2.92l-3-5.25a2.13,2.13,0,0,0-2.91-.78l-2.33,1.34a1.18,1.18,0,0,1-1.18,0,1.17,1.17,0,0,1-.59-1V31.71A2.13,2.13,0,0,0,49,29.58H43a2.13,2.13,0,0,0-2.14,2.13V34.4a1.17,1.17,0,0,1-.59,1,1.18,1.18,0,0,1-1.18,0l-2.32-1.34a2.13,2.13,0,0,0-2.92.78l-3,5.25A2.14,2.14,0,0,0,31.57,43l2.32,1.34a1.17,1.17,0,0,1,.59,1,1.18,1.18,0,0,1-.59,1l-2.32,1.34a2.13,2.13,0,0,0-.78,2.91l3,5.26a2.15,2.15,0,0,0,2.92.78l2.32-1.34a1.18,1.18,0,0,1,1.18,0,1.17,1.17,0,0,1,.59,1v2.68A2.14,2.14,0,0,0,43,61.21H49a2.14,2.14,0,0,0,2.13-2.14V56.39a1.18,1.18,0,0,1,1.77-1l2.33,1.34a2.13,2.13,0,0,0,2.91-.78l3-5.26A2.13,2.13,0,0,0,60.43,47.76ZM46,49.66a4.27,4.27,0,1,1,4.27-4.27A4.27,4.27,0,0,1,46,49.66Z"/></g></g></g></svg>