<svg xmlns="http://www.w3.org/2000/svg" viewBox="0 0 59 59"><title>football</title><g id="Layer_2" data-name="Layer 2"><g id="Layer_1-2" data-name="Layer 1"><path id="football" d="M57.54,20.39A29.3,29.3,0,0,0,42.88,3.23,30.39,30.39,0,0,0,39.3,1.69h0a29.29,29.29,0,0,0-18.91-.24l-.56.2-.16.06A29.31,29.31,0,0,0,6.11,11.55a2.42,2.42,0,0,0-.27.36A29.63,29.63,0,0,0,0,30.13v.14A29.16,29.16,0,0,0,5.15,46.12a2.67,2.67,0,0,0,.32.48,29.53,29.53,0,0,0,15.22,11,2.24,2.24,0,0,0,.59.17,28.74,28.74,0,0,0,16.47,0,1.78,1.78,0,0,0,.5-.14l.35-.1A29.49,29.49,0,0,0,57.54,20.39ZM51.31,40.62c-.28.56-.6,1.09-.92,1.62L41,40.85,37.89,36.8l2.5-8.08,4.8-1.78,8.72,4.56A24.19,24.19,0,0,1,51.31,40.62ZM48.07,13.53l-4.26,8.59-5,1.84-7-4.95V13.84l7.08-6.93c.57.24,1.13.49,1.68.77A24.35,24.35,0,0,1,48.07,13.53ZM18.43,40.79,8.57,42.24A24.33,24.33,0,0,1,6.2,37.07a23.92,23.92,0,0,1-1.12-5.58l8.37-4.37,5.17,2,2.72,8ZM20.05,6.91l6.8,6.65v5.55l-6.91,5.16-4.57-1.78-4.44-8.94A24.28,24.28,0,0,1,20.05,6.91Zm3.79,46.42L22.26,44l3.26-4.11,8.35-.12,2.92,3.83-1.65,9.72A24.24,24.24,0,0,1,23.84,53.33Z"/></g></g></svg>