<svg xmlns="http://www.w3.org/2000/svg" viewBox="0 0 59 48.07"><title>forklift</title><g id="Layer_2" data-name="Layer 2"><g id="Layer_1-2" data-name="Layer 1"><path id="forklift" d="M56.5,38.07H46.23V2.5a2.5,2.5,0,0,0-5,0V26.69H38.87L34,10.46A7.68,7.68,0,0,0,26.6,5H17a2.5,2.5,0,0,0-2.5,2.5V21.53H7.73A7.74,7.74,0,0,0,0,29.26V40.57a2.5,2.5,0,0,0,2.5,2.5H6.7a7.48,7.48,0,0,0,14.12,0h3.89a7.49,7.49,0,0,0,14.13,0H56.5a2.5,2.5,0,0,0,0-5ZM19.49,10H26.6a2.72,2.72,0,0,1,2.61,2l4.44,14.79H19.49ZM13.76,43.07a2.5,2.5,0,1,1,2.5-2.5A2.5,2.5,0,0,1,13.76,43.07Zm18,0a2.5,2.5,0,1,1,2.5-2.5A2.5,2.5,0,0,1,31.78,43.07Z"/></g></g></svg>