<svg xmlns="http://www.w3.org/2000/svg" viewBox="0 0 59 49.14"><title>format size</title><g id="Layer_2" data-name="Layer 2"><g id="Layer_1-2" data-name="Layer 1"><g id="format_size" data-name="format size"><path d="M29.36,43.14H25.17V6H38.35V9.39a3,3,0,0,0,6,0V3a3,3,0,0,0-3-3H3A3,3,0,0,0,0,3V9.39a3,3,0,0,0,6,0V6H19.17V43.14H15a3,3,0,0,0,0,6H29.36a3,3,0,0,0,0-6Z"/><path d="M56,15.28H33.23a3,3,0,0,0-3,3v4.13a3,3,0,0,0,6,0V21.28h5.39V43.14H40a3,3,0,0,0,0,6h9.29a3,3,0,1,0,0-6H47.62V21.28H53v1.13a3,3,0,0,0,6,0V18.28A3,3,0,0,0,56,15.28Z"/></g></g></g></svg>