<svg xmlns="http://www.w3.org/2000/svg" viewBox="0 0 59 59"><title>format shapes</title><g id="Layer_2" data-name="Layer 2"><g id="Layer_1-2" data-name="Layer 1"><g id="format_shapes" data-name="format shapes"><path d="M38.83,16.5H20.17a2.5,2.5,0,0,0-2.5,2.5v3.11a2.5,2.5,0,0,0,5,0V21.5H27v16H26a2.5,2.5,0,0,0,0,5h7a2.5,2.5,0,0,0,0-5H32v-16h4.33v.61a2.5,2.5,0,0,0,5,0V19A2.5,2.5,0,0,0,38.83,16.5Z"/><path d="M56.5,14.64a2.5,2.5,0,0,0,2.5-2.5V2.5A2.5,2.5,0,0,0,56.5,0H46.86a2.5,2.5,0,0,0-2.5,2.5V4.32H14.64V2.5A2.5,2.5,0,0,0,12.14,0H2.5A2.5,2.5,0,0,0,0,2.5v9.64a2.5,2.5,0,0,0,2.5,2.5H4.32V44.36H2.5A2.5,2.5,0,0,0,0,46.86V56.5A2.5,2.5,0,0,0,2.5,59h9.64a2.5,2.5,0,0,0,2.5-2.5V54.68H44.36V56.5a2.5,2.5,0,0,0,2.5,2.5H56.5A2.5,2.5,0,0,0,59,56.5V46.86a2.5,2.5,0,0,0-2.5-2.5H54.68V14.64ZM49.36,5H54V9.64H49.36ZM5,5H9.64V9.64H5ZM9.64,54H5V49.36H9.64ZM54,54H49.36V49.36H54Zm-5.32-9.64H46.86a2.5,2.5,0,0,0-2.5,2.5v1.82H14.64V46.86a2.5,2.5,0,0,0-2.5-2.5H10.32V14.64h1.82a2.5,2.5,0,0,0,2.5-2.5V10.32H44.36v1.82a2.5,2.5,0,0,0,2.5,2.5h1.82Z"/></g></g></g></svg>