<svg xmlns="http://www.w3.org/2000/svg" viewBox="0 0 58.78 59"><title>form editing</title><g id="Layer_2" data-name="Layer 2"><g id="Layer_1-2" data-name="Layer 1"><g id="form_editing" data-name="form editing"><path d="M58.05,36.62l-4.12-4.11a2.49,2.49,0,0,0-3.53,0L37.92,45a2.51,2.51,0,0,0-.65,1.14l-1.41,5.53a2.49,2.49,0,0,0,2.42,3.12,2.64,2.64,0,0,0,.62-.08l5.52-1.41a2.56,2.56,0,0,0,1.15-.66L58.05,40.16a2.51,2.51,0,0,0,0-3.54Z"/><path d="M46.54,28.07A2.49,2.49,0,0,0,49,25.57V10.5A10.5,10.5,0,0,0,38.5,0h-28A10.5,10.5,0,0,0,0,10.5v38A10.5,10.5,0,0,0,10.5,59H29.62a2.61,2.61,0,0,0,1.95-.79,2.49,2.49,0,0,0,.27-3.08,17.5,17.5,0,0,1,14.7-27.06Zm-25,18.26H11.64A2.6,2.6,0,0,1,9,44.09a2.5,2.5,0,0,1,2.49-2.76h9.86A2.6,2.6,0,0,1,24,43.58,2.5,2.5,0,0,1,21.5,46.33Zm4.12-12.66h-14A2.6,2.6,0,0,1,9,31.42a2.5,2.5,0,0,1,2.49-2.75h14a2.6,2.6,0,0,1,2.63,2.24A2.5,2.5,0,0,1,25.62,33.67Zm-14.12-13a2.5,2.5,0,0,1,0-5h24a2.5,2.5,0,0,1,0,5Z"/></g></g></g></svg>