<svg xmlns="http://www.w3.org/2000/svg" viewBox="0 0 51.71 59"><title>forward 10</title><g id="Layer_2" data-name="Layer 2"><g id="Layer_1-2" data-name="Layer 1"><g id="forward_10" data-name="forward 10"><path d="M47.71,19.42a3,3,0,1,0-5,3.14,20,20,0,1,1-17.53-9.3L21.44,17a2.95,2.95,0,0,0,2.09,5,2.9,2.9,0,0,0,2.08-.86l8.07-8.07.11-.13a2.65,2.65,0,0,0,.21-.26c0-.08.1-.15.14-.23a2.29,2.29,0,0,0,.14-.27,1.62,1.62,0,0,0,.11-.28,1.27,1.27,0,0,0,.06-.18s0-.06,0-.09a2.89,2.89,0,0,0,0-.29,1.53,1.53,0,0,0,0-.3c0-.08,0-.16,0-.24s0-.22,0-.33a1.8,1.8,0,0,0-.06-.22,3,3,0,0,0-.09-.32c0-.08-.07-.14-.1-.22s-.1-.2-.16-.3L34,9.28A3.25,3.25,0,0,0,33.73,9s0,0,0-.05L25.61.86A3,3,0,1,0,21.44,5l2.39,2.39a25.82,25.82,0,1,0,23.88,12Z"/><path d="M18.82,43a2,2,0,0,1-2-2V32l-.93.93a2,2,0,0,1-2.78-2.79l4.28-4.28a2,2,0,0,1,3.36,1.39V41A2,2,0,0,1,18.82,43Z"/><path d="M32,43c-3.93,0-7.13-4-7.13-8.85S28,25.3,32,25.3s7.13,4,7.13,8.86S35.89,43,32,43Zm0-13.77c-1.73,0-3.2,2.25-3.2,4.92s1.47,4.91,3.2,4.91,3.19-2.25,3.19-4.91S33.69,29.24,32,29.24Z"/></g></g></g></svg>