<svg xmlns="http://www.w3.org/2000/svg" viewBox="0 0 51.72 59"><title>forward 5</title><g id="Layer_2" data-name="Layer 2"><g id="Layer_1-2" data-name="Layer 1"><g id="forward_5" data-name="forward 5"><path d="M47.72,19.42a2.95,2.95,0,1,0-5,3.14,19.94,19.94,0,0,1-31,24.71,19.94,19.94,0,0,1,0-28.2A20,20,0,0,1,25.2,13.26L21.45,17a2.95,2.95,0,0,0,2.09,5,2.9,2.9,0,0,0,2.08-.86l8.08-8.07a1.71,1.71,0,0,1,.11-.14l.2-.24c.05-.08.1-.16.14-.24a2.15,2.15,0,0,0,.14-.26c0-.09.08-.19.11-.28s.05-.12.07-.19a.22.22,0,0,1,0-.08c0-.1,0-.2,0-.29a1.53,1.53,0,0,0,0-.3s0-.05,0-.07a1.23,1.23,0,0,0,0-.19,3.16,3.16,0,0,0,0-.32l-.06-.24L34.36,10a2.4,2.4,0,0,0-.11-.23c0-.09-.09-.19-.15-.28a2.43,2.43,0,0,0-.14-.2L33.75,9l0-.07L25.62.86A3,3,0,0,0,21.45,5l2.39,2.39a25.82,25.82,0,1,0,23.88,12Z"/><path d="M25.6,45.89a7,7,0,0,1-6.28-4,2,2,0,1,1,3.54-1.7A3.06,3.06,0,0,0,25.6,42a3,3,0,0,0,0-6.05H22.83a2,2,0,0,1-2-2V28.19a2,2,0,0,1,2-2H30a2,2,0,0,1,0,3.94H24.8V32h.8a7,7,0,0,1,0,13.92Z"/></g></g></g></svg>