<svg xmlns="http://www.w3.org/2000/svg" viewBox="0 0 51.71 59"><title>forward 30</title><g id="Layer_2" data-name="Layer 2"><g id="Layer_1-2" data-name="Layer 1"><g id="forward_30" data-name="forward 30"><path d="M47.71,19.42a3,3,0,1,0-5,3.14,20,20,0,1,1-17.53-9.3L21.44,17a2.95,2.95,0,0,0,2.09,5,2.9,2.9,0,0,0,2.08-.86l8.07-8.07a1.71,1.71,0,0,0,.11-.14l.21-.25.15-.24a2,2,0,0,0,.13-.25c0-.1.08-.2.11-.3a1.15,1.15,0,0,0,.06-.17s0-.06,0-.08,0-.21,0-.31a1.41,1.41,0,0,0,0-.28c0-.09,0-.18,0-.27s0-.2,0-.3l-.06-.25c0-.1,0-.2-.09-.3a2.4,2.4,0,0,0-.11-.23,2.49,2.49,0,0,0-.15-.28A1.33,1.33,0,0,0,34,9.27,3,3,0,0,0,33.73,9s0,0,0-.05L25.61.86A3,3,0,1,0,21.44,5l2.39,2.39a25.82,25.82,0,1,0,23.88,12Z"/><path d="M32.76,43.4c-3.64,0-6.49-3.51-6.49-8s2.85-8,6.49-8,6.49,3.51,6.49,8S36.4,43.4,32.76,43.4Zm0-12c-1.21,0-2.55,1.67-2.55,4.06s1.34,4.05,2.55,4.05,2.55-1.66,2.55-4.05S34,31.35,32.76,31.35Z"/><path d="M17.82,37.37a2,2,0,1,1,0-3.93A1.48,1.48,0,1,0,16.5,31.3,2,2,0,1,1,13,29.53a5.41,5.41,0,1,1,4.83,7.84Z"/><path d="M17.82,44.26a5.39,5.39,0,0,1-4.83-3,2,2,0,1,1,3.51-1.78,1.47,1.47,0,1,0,1.32-2.14,2,2,0,1,1,0-3.93,5.41,5.41,0,0,1,0,10.82Z"/></g></g></g></svg>