<svg xmlns="http://www.w3.org/2000/svg" viewBox="0 0 60 60"><title>fullscreen</title><g id="Layer_2" data-name="Layer 2"><g id="Layer_1-2" data-name="Layer 1"><g id="fullscreen"><g id="arrow_drop_down" data-name="arrow drop down"><path d="M57,18a3,3,0,0,1-3-3V6H45a3,3,0,0,1,0-6H57a3,3,0,0,1,3,3V15A3,3,0,0,1,57,18Z"/></g><g id="arrow_drop_down-2" data-name="arrow drop down"><path d="M3,18a3,3,0,0,1-3-3V3A3,3,0,0,1,3,0H15a3,3,0,0,1,0,6H6v9A3,3,0,0,1,3,18Z"/></g><g id="arrow_drop_down-3" data-name="arrow drop down"><path d="M15,60H3a3,3,0,0,1-3-3V45a3,3,0,0,1,6,0v9h9a3,3,0,0,1,0,6Z"/></g><g id="arrow_drop_down-4" data-name="arrow drop down"><path d="M57,60H45a3,3,0,0,1,0-6h9V45a3,3,0,0,1,6,0V57A3,3,0,0,1,57,60Z"/></g></g></g></g></svg>