<svg xmlns="http://www.w3.org/2000/svg" viewBox="0 0 60 60"><title>fullscreen exit</title><g id="Layer_2" data-name="Layer 2"><g id="Layer_1-2" data-name="Layer 1"><g id="fullscreen_exit" data-name="fullscreen exit"><g id="arrow_drop_down" data-name="arrow drop down"><path d="M57,18H45a3,3,0,0,1-3-3V3a3,3,0,0,1,6,0v9h9a3,3,0,0,1,0,6Z"/></g><g id="arrow_drop_down-2" data-name="arrow drop down"><path d="M15,18H3a3,3,0,0,1,0-6h9V3a3,3,0,0,1,6,0V15A3,3,0,0,1,15,18Z"/></g><g id="arrow_drop_down-3" data-name="arrow drop down"><path d="M15,60a3,3,0,0,1-3-3V48H3a3,3,0,0,1,0-6H15a3,3,0,0,1,3,3V57A3,3,0,0,1,15,60Z"/></g><g id="arrow_drop_down-4" data-name="arrow drop down"><path d="M45,60a3,3,0,0,1-3-3V45a3,3,0,0,1,3-3H57a3,3,0,0,1,0,6H48v9A3,3,0,0,1,45,60Z"/></g></g></g></g></svg>