<svg xmlns="http://www.w3.org/2000/svg" viewBox="0 0 60 60"><title>full screen</title><g id="Layer_2" data-name="Layer 2"><g id="Layer_1-2" data-name="Layer 1"><g id="full_screen" data-name="full screen"><path d="M57,0H41a3,3,0,0,0,0,6h8.76L36.88,18.88a3,3,0,0,0,0,4.24,3,3,0,0,0,4.24,0L54,10.24V19a3,3,0,0,0,6,0V3A3,3,0,0,0,57,0Z"/><path d="M57,38a3,3,0,0,0-3,3v8.76L41.12,36.88a3,3,0,0,0-4.24,4.24L49.76,54H41a3,3,0,0,0,0,6H57a3,3,0,0,0,3-3V41A3,3,0,0,0,57,38Z"/><path d="M3,22a3,3,0,0,0,3-3V10.24L18.88,23.12a3,3,0,0,0,4.24,0,3,3,0,0,0,0-4.24L10.24,6H19a3,3,0,0,0,0-6H3A3,3,0,0,0,0,3V19A3,3,0,0,0,3,22Z"/><path d="M18.88,36.88,6,49.76V41a3,3,0,0,0-6,0V57a3,3,0,0,0,3,3H19a3,3,0,0,0,0-6H10.24L23.12,41.12a3,3,0,0,0-4.24-4.24Z"/></g></g></g></svg>