<svg xmlns="http://www.w3.org/2000/svg" viewBox="0 0 59 59"><title>g translate</title><g id="Layer_2" data-name="Layer 2"><g id="Layer_1-2" data-name="Layer 1"><g id="g_translate" data-name="g translate"><path d="M17.32,18.63a11.06,11.06,0,0,0,3.18,5.52,11,11,0,0,0,3.17-5.52Zm0,0a11.06,11.06,0,0,0,3.18,5.52,11,11,0,0,0,3.17-5.52ZM51.1,18H41V7.9A7.92,7.92,0,0,0,33.1,0H7.9A7.91,7.91,0,0,0,0,7.9V33.1A7.9,7.9,0,0,0,7.9,41H18V51.1A7.9,7.9,0,0,0,25.9,59H51.1A7.91,7.91,0,0,0,59,51.1V25.9A7.92,7.92,0,0,0,51.1,18ZM20.5,30.27a16,16,0,0,1-7.57,1.9,2.5,2.5,0,0,1,0-5A10.64,10.64,0,0,0,16,26.71a15.9,15.9,0,0,1-3.8-8.08H10.15a2.5,2.5,0,1,1,0-5H18V11.34a2.5,2.5,0,0,1,5,0v2.29h7.85a2.5,2.5,0,1,1,0,5h-2.1A15.9,15.9,0,0,1,25,26.71a10.69,10.69,0,0,0,3.11.46,2.5,2.5,0,1,1,0,5A15.93,15.93,0,0,1,20.5,30.27ZM45.73,49.18a2.49,2.49,0,0,1-3.25-1.38l-.77-1.9H35.28l-.77,1.9a2.51,2.51,0,0,1-2.31,1.57,2.39,2.39,0,0,1-.94-.19,2.49,2.49,0,0,1-1.38-3.25l6.3-15.61a2.49,2.49,0,0,1,4.63,0l6.3,15.61A2.49,2.49,0,0,1,45.73,49.18ZM37.3,40.9h2.39l-1.19-3ZM20.5,24.15a11,11,0,0,0,3.17-5.52H17.32A11.06,11.06,0,0,0,20.5,24.15Z"/></g></g></g></svg>