<svg xmlns="http://www.w3.org/2000/svg" viewBox="0 0 58 59"><title>gas station</title><g id="Layer_2" data-name="Layer 2"><g id="Layer_1-2" data-name="Layer 1"><g id="gas_station" data-name="gas station"><path d="M53.75,12.9l-3.7-3.7h0l-2.7-2.7A2.5,2.5,0,0,0,43.82,10l2,2V25.15a2.5,2.5,0,0,0,2.5,2.5H53V45.18a2.5,2.5,0,1,1-5,0v-7a6.51,6.51,0,0,0-6.5-6.5H39V10.5A10.51,10.51,0,0,0,28.5,0h-18A10.51,10.51,0,0,0,0,10.5v38A10.51,10.51,0,0,0,10.5,59h18A10.51,10.51,0,0,0,39,48.5V36.68h2.5a1.5,1.5,0,0,1,1.5,1.5v7a7.5,7.5,0,1,0,15,0v-22A14.39,14.39,0,0,0,53.75,12.9ZM19.5,46.47a6.94,6.94,0,0,1-6.94-6.94c0-5.31,4.88-9.14,5.44-9.56a2.52,2.52,0,0,1,3,0c.56.42,5.44,4.25,5.44,9.56A6.94,6.94,0,0,1,19.5,46.47ZM5,23.56v-5H34v5Zm45.79-6.5A9.45,9.45,0,0,1,53,22.65H50.79Z"/><path d="M17.56,39.53a1.94,1.94,0,0,0,3.88,0,6.77,6.77,0,0,0-1.94-4.12A6.77,6.77,0,0,0,17.56,39.53Z"/></g></g></g></svg>