<svg xmlns="http://www.w3.org/2000/svg" viewBox="0 0 55.04 55.04"><title>gavel</title><g id="Layer_2" data-name="Layer 2"><g id="Layer_1-2" data-name="Layer 1"><g id="gavel"><path d="M20.78,19.3,35.59,4.49,31.84.74A2.56,2.56,0,0,0,30.05,0a2.52,2.52,0,0,0-1.78.74L17,12a2.52,2.52,0,0,0,0,3.57Z"/><path d="M54.3,23.2l-3.75-3.75L35.74,34.26,39.49,38a2.56,2.56,0,0,0,1.79.74A2.52,2.52,0,0,0,43.06,38L54.3,26.77A2.48,2.48,0,0,0,55,25,2.56,2.56,0,0,0,54.3,23.2Z"/><path d="M33.41,30.89,47.17,17.12a21.62,21.62,0,0,1-9.25-9.25L24.15,21.64a15.46,15.46,0,0,1,1.38.74L.44,47.46a1.51,1.51,0,0,0,0,2.14l5,5a1.52,1.52,0,0,0,2.14,0L32.67,29.51C32.94,30,33.19,30.43,33.41,30.89Z"/></g></g></g></svg>