<svg xmlns="http://www.w3.org/2000/svg" viewBox="0 0 39.81 59.99"><title>gesture</title><g id="Layer_2" data-name="Layer 2"><g id="Layer_1-2" data-name="Layer 1"><g id="gesture"><path d="M26.37,60C13.93,60,3.45,54.72,2.07,47.26a10.15,10.15,0,0,1,1.18-6.71A11.16,11.16,0,0,1,0,33.27c0-5.73,6.08-8.81,11.92-11.8,3.6-1.83,8.52-4.34,8.5-6.3,0-.68-.81-4.32-15.85-9.32A3,3,0,0,1,6.46.15c13.55,4.51,19.89,9.26,20,15s-6,8.74-11.77,11.71C11,28.68,6,31.23,6,33.3a4.43,4.43,0,0,0,1,2.39c.65-.61,1.35-1.23,2.11-1.84a44.94,44.94,0,0,1,14.58-7.56c3.55-1,11-3.21,14.48,1.05,1.45,1.76,1.93,4.26,1.39,7.24a19.17,19.17,0,0,1-8.67,12.55c-6.87,4-15.69,1.66-21.64-1.81-.43-.24-.84-.5-1.24-.75A3.61,3.61,0,0,0,8,46.16c.76,4.05,9.58,8.91,22.27,7.64a3,3,0,0,1,.6,6C29.32,59.92,27.83,60,26.37,60ZM11.54,39.68l.76.46c4.3,2.5,11,4.47,15.64,1.79a13.15,13.15,0,0,0,5.75-8.42,3.55,3.55,0,0,0-.1-2.34c-.11-.13-1.21-1.16-8.18.88A37.89,37.89,0,0,0,11.54,39.68Z"/></g></g></g></svg>