<svg xmlns="http://www.w3.org/2000/svg" viewBox="0 0 57.5 60"><defs><style>.cls-1{fill:none;stroke:#000;stroke-linecap:round;stroke-linejoin:round;stroke-width:5px;}</style></defs><title>gif</title><g id="Layer_2" data-name="Layer 2"><g id="Layer_1-2" data-name="Layer 1"><g id="gif"><path d="M39,60H11A11,11,0,0,1,0,49V11A11,11,0,0,1,11,0H35a3,3,0,0,1,2.12.88l12,12A3,3,0,0,1,50,15v4a3,3,0,0,1-3,3H31a3,3,0,0,1-3-3V6H11a5,5,0,0,0-5,5V49a5,5,0,0,0,5,5H39a3,3,0,0,1,0,6Z"/><path d="M18.79,49.5a8.3,8.3,0,0,1-8.29-8.29V34.6a8.29,8.29,0,0,1,16-3,2.5,2.5,0,1,1-4.68,1.78A3.29,3.29,0,0,0,15.5,34.6v6.61a3.29,3.29,0,0,0,6.46.85H20.44a2.5,2.5,0,1,1,0-5h4.14a2.5,2.5,0,0,1,2.5,2.5v1.65A8.3,8.3,0,0,1,18.79,49.5Z"/><path d="M34.19,49.5a2.5,2.5,0,0,1-2.5-2.5V28.81a2.5,2.5,0,1,1,5,0V47A2.5,2.5,0,0,1,34.19,49.5Z"/><path d="M45.08,49.5a2.5,2.5,0,0,1-2.5-2.5V32.12a5.81,5.81,0,0,1,5.8-5.81H55a2.5,2.5,0,0,1,0,5H48.38a.8.8,0,0,0-.8.81V47A2.5,2.5,0,0,1,45.08,49.5Z"/><line class="cls-1" x1="45.08" y1="37.9" x2="55" y2="37.9"/></g></g></g></svg>