<svg xmlns="http://www.w3.org/2000/svg" viewBox="0 0 51 59"><title>gift</title><g id="Layer_2" data-name="Layer 2"><g id="Layer_1-2" data-name="Layer 1"><g id="gift"><path d="M40.5,16H38.29a11.49,11.49,0,0,0,1.13-1A8.8,8.8,0,1,0,27,2.57,11.66,11.66,0,0,0,25.5,4.42,11.66,11.66,0,0,0,24,2.57,8.8,8.8,0,0,0,11.58,15a11.49,11.49,0,0,0,1.13,1H10.5A10.51,10.51,0,0,0,0,26.5V28H51V26.5A10.51,10.51,0,0,0,40.5,16Zm-10-9.89a3.8,3.8,0,0,1,5.37,5.37C33.76,13.61,30.07,14,28,14h0C28,11.77,28.39,8.24,30.52,6.11Zm-15.41,0a3.8,3.8,0,0,1,5.37,0C22.61,8.24,23,11.78,23,14c-2,0-5.75-.37-7.89-2.51A3.8,3.8,0,0,1,15.11,6.11Z"/><path d="M28,59h8.67a10.51,10.51,0,0,0,10.5-10.5V33H28Z"/><path d="M3.83,48.5A10.51,10.51,0,0,0,14.33,59H23V33H3.83Z"/></g></g></g></svg>