<svg xmlns="http://www.w3.org/2000/svg" viewBox="0 0 59 58.94"><title>golf</title><g id="Layer_2" data-name="Layer 2"><g id="Layer_1-2" data-name="Layer 1"><g id="golf"><path d="M29.5,58.94C10.13,58.94,0,52.53,0,46.21c0-5.77,7.63-10.4,19.92-12.09a2.5,2.5,0,1,1,.68,5C9.84,40.55,5,44.14,5,46.21c0,3.15,9.54,7.73,24.5,7.73S54,49.36,54,46.21c0-2-5-5.73-15.83-7.17a2.5,2.5,0,1,1,.66-5C51.27,35.75,59,40.39,59,46.21,59,52.53,48.87,58.94,29.5,58.94Z"/><path d="M45.86,9.43,30.79.36h0A2.43,2.43,0,0,0,29.5,0,2.5,2.5,0,0,0,27,2.5v44a2.5,2.5,0,0,0,5,0V22.05l13.86-8.34a2.5,2.5,0,0,0,0-4.28Z"/></g></g></g></svg>