<svg xmlns="http://www.w3.org/2000/svg" viewBox="0 0 50.92 56.17"><title>google play</title><g id="Layer_2" data-name="Layer 2"><g id="Layer_1-2" data-name="Layer 1"><g id="google_play" data-name="google play"><path d="M6.7.58a4.46,4.46,0,0,0-4.48,0,2.6,2.6,0,0,0-.36.25L25.18,24.52l8.59-8.71ZM25.18,31.65,1.86,55.3a2.6,2.6,0,0,0,.36.25,4.54,4.54,0,0,0,2.27.62,4.48,4.48,0,0,0,2.21-.58L33.77,40.36Zm23.44-7.49L38.29,18.35l-9.6,9.74,9.6,9.73L48.62,32a4.5,4.5,0,0,0,0-7.85ZM0,6.11V50.05l21.66-22Z"/></g></g></g></svg>