<svg xmlns="http://www.w3.org/2000/svg" viewBox="0 0 49.95 59"><title>grill</title><g id="Layer_2" data-name="Layer 2"><g id="Layer_1-2" data-name="Layer 1"><g id="grill"><path d="M8,13.26a2.5,2.5,0,0,0,3.53,0,2.5,2.5,0,0,0,0-3.54.69.69,0,0,1,0-1,5.66,5.66,0,0,0,0-8A2.5,2.5,0,0,0,8,4.27a.69.69,0,0,1,0,1A5.67,5.67,0,0,0,8,13.26Z"/><path d="M19.61,13.26a2.49,2.49,0,0,0,1.77.73,2.45,2.45,0,0,0,1.76-.73,2.51,2.51,0,0,0,0-3.54.68.68,0,0,1,0-1,5.66,5.66,0,0,0,0-8,2.5,2.5,0,0,0-3.53,3.54.69.69,0,0,1,0,1A5.69,5.69,0,0,0,19.61,13.26Z"/><path d="M31.25,13.26a2.51,2.51,0,0,0,3.54,0,2.52,2.52,0,0,0,0-3.54.67.67,0,0,1,0-1,5.69,5.69,0,0,0,0-8,2.5,2.5,0,1,0-3.54,3.54.67.67,0,0,1,0,1A5.69,5.69,0,0,0,31.25,13.26Z"/><path d="M47.45,19.63H42.71c0-.32,0-.63,0-.95a2.49,2.49,0,0,0-2.5-2.5H2.5A2.5,2.5,0,0,0,0,18.68,21.39,21.39,0,0,0,11.15,37.45L9.68,43.24a7.89,7.89,0,1,0,8,10.37H31.11l.9,3.13a2.5,2.5,0,0,0,2.4,1.81,2.35,2.35,0,0,0,.69-.1,2.48,2.48,0,0,0,1.71-3.09L31.65,37.42A21.47,21.47,0,0,0,41.9,24.61l.16,0h5.39a2.5,2.5,0,0,0,0-5ZM10.15,54A2.9,2.9,0,1,1,13,51.11,2.9,2.9,0,0,1,10.15,54Zm19.52-5.39h-12a7.9,7.9,0,0,0-3.12-4.08l1.33-5.23a21.11,21.11,0,0,0,5.54.76A21.64,21.64,0,0,0,27,39.29Z"/></g></g></g></svg>