<svg xmlns="http://www.w3.org/2000/svg" viewBox="0 0 58.91 58.91"><title>gym</title><g id="Layer_2" data-name="Layer 2"><g id="Layer_1-2" data-name="Layer 1"><g id="gym"><rect x="36.33" y="-0.34" width="11.46" height="34.39" rx="5.05" transform="translate(0.4 34.68) rotate(-45)"/><path d="M47.42-3.14h.66A9.53,9.53,0,0,1,57.6,6.39v0A9.53,9.53,0,0,1,48.07,16h-.66a0,0,0,0,1,0,0V-3.14A0,0,0,0,1,47.42-3.14Z" transform="translate(10.85 39) rotate(-45)"/><rect x="11.12" y="24.87" width="11.46" height="34.39" rx="5.05" transform="translate(58.51 59.88) rotate(135)"/><path d="M1.31,43H2a9.53,9.53,0,0,1,9.53,9.53v0A9.53,9.53,0,0,1,2,62.06H1.31a0,0,0,0,1,0,0V43A0,0,0,0,1,1.31,43Z" transform="translate(48.06 85.11) rotate(135)"/><rect x="20.86" y="24.34" width="16.81" height="10.62" transform="translate(-12.39 29.38) rotate(-45)"/></g></g></g></svg>