<svg xmlns="http://www.w3.org/2000/svg" viewBox="0 0 59 44.21"><title>hairdryer</title><g id="Layer_2" data-name="Layer 2"><g id="Layer_1-2" data-name="Layer 1"><g id="hairdryer"><path d="M46,3.54a2.53,2.53,0,0,0-2.18-.42l-9,2.49L18.47.63A14.3,14.3,0,0,0,0,14.31a14.19,14.19,0,0,0,5.79,11.5,14.39,14.39,0,0,0,4.78,2.31l2.34,12.07a5,5,0,1,0,9.75-1.89L20.54,27.37,34.83,23l9,2.49A2.5,2.5,0,0,0,47,23.09V5.53A2.49,2.49,0,0,0,46,3.54ZM42,19.81l-4.71-1.3V10.12L42,8.82Z"/><path d="M53.5,8.81h3a2.5,2.5,0,0,0,0-5h-3a2.5,2.5,0,0,0,0,5Z"/><path d="M56.5,11.81h-3a2.5,2.5,0,0,0,0,5h3a2.5,2.5,0,1,0,0-5Z"/><path d="M56.5,19.81h-3a2.5,2.5,0,0,0,0,5h3a2.5,2.5,0,0,0,0-5Z"/></g></g></g></svg>