<svg xmlns="http://www.w3.org/2000/svg" viewBox="0 0 56 55.48"><title>hatchet</title><g id="Layer_2" data-name="Layer 2"><g id="Layer_1-2" data-name="Layer 1"><path id="hatchet" d="M56,12.2a1,1,0,0,0-1.05-.93l-4.11.21A17.18,17.18,0,0,1,40.11,8.4l-.35-.24,2.42-3.47A.93.93,0,0,0,42.35,4a1,1,0,0,0-.41-.65L37.48.18a1,1,0,0,0-1.39.25L33.66,3.89,29.6,1a1,1,0,0,0-1.39.25L19.88,13.18a1,1,0,0,0,.25,1.39l2.9,2L.18,49.23A1,1,0,0,0,0,50a1,1,0,0,0,.41.65L7.11,55.3a1,1,0,0,0,.58.18,1,1,0,0,0,.81-.42L31.43,22.52a17.19,17.19,0,0,1,5.75,8.4l1.22,3.93a1,1,0,0,0,1.23.67C49.3,32.71,56.63,22.25,56,12.2Z"/></g></g></svg>