<svg xmlns="http://www.w3.org/2000/svg" viewBox="0 0 59 57"><title>hd</title><g id="Layer_2" data-name="Layer 2"><g id="Layer_1-2" data-name="Layer 1"><g id="hd"><path d="M48.5,0h-38A10.51,10.51,0,0,0,0,10.5v25A10.51,10.51,0,0,0,10.5,46H27v6H17.5a2.5,2.5,0,0,0,0,5h24a2.5,2.5,0,0,0,0-5H32V46H48.5A10.51,10.51,0,0,0,59,35.5v-25A10.51,10.51,0,0,0,48.5,0ZM25.73,31.73a2.5,2.5,0,1,1-5,0V25.51H15v6.22a2.5,2.5,0,0,1-5,0V14.3a2.5,2.5,0,0,1,5,0v6.21h5.73V14.3a2.5,2.5,0,0,1,5,0Zm12.05,2.5H32.45a2.5,2.5,0,0,1-2.5-2.5V14.3a2.5,2.5,0,0,1,2.5-2.5h5.33a11.22,11.22,0,1,1,0,22.43Zm0-17.43H35V29.23h2.83a6.22,6.22,0,1,0,0-12.43Z"/></g></g></g></svg>