<svg xmlns="http://www.w3.org/2000/svg" viewBox="0 0 50.69 59"><title>headset mic</title><g id="Layer_2" data-name="Layer 2"><g id="Layer_1-2" data-name="Layer 1"><path id="headset_mic" data-name="headset mic" d="M25.35,0A25.38,25.38,0,0,0,0,25.35V40.64a9,9,0,0,0,9,9h.44a7.4,7.4,0,0,0,7.39-7.39V36.81a7.4,7.4,0,0,0-7.39-7.39H5V25.35a20.35,20.35,0,1,1,40.69,0v4.07H41.24a7.4,7.4,0,0,0-7.39,7.39v5.45a7.39,7.39,0,0,0,7.39,7.39h.43a9,9,0,0,0,4-.95v1.8a3.5,3.5,0,0,1-3.5,3.5H39.88a2.5,2.5,0,1,0,0,5h2.31a8.51,8.51,0,0,0,8.5-8.5V25.35A25.37,25.37,0,0,0,25.35,0Z"/></g></g></svg>