<svg xmlns="http://www.w3.org/2000/svg" viewBox="0 0 59 45.33"><title>helicopter</title><g id="Layer_2" data-name="Layer 2"><g id="Layer_1-2" data-name="Layer 1"><path id="helicopter" d="M44.49,10.91h-7V5h19a2.5,2.5,0,0,0,0-5h-43a2.5,2.5,0,0,0,0,5h19v5.91H27.09A2.49,2.49,0,0,0,25,12l-2.79,4H13.46V12.41A2.49,2.49,0,0,0,11,9.91H2.5a2.49,2.49,0,0,0-1.89.87,2.47,2.47,0,0,0-.58,2l2,13a2.49,2.49,0,0,0,2.08,2.1L22.11,30.7l.54.78a10.51,10.51,0,0,0,8.12,4.46v4.39H27.26a2.5,2.5,0,0,0,0,5h23a2.5,2.5,0,1,0,0-5H46.78V36H52.5a6.51,6.51,0,0,0,6.5-6.5v-4A14.53,14.53,0,0,0,44.49,10.91Zm9.38,13H48.49A2.51,2.51,0,0,1,46,21.42V16A9.52,9.52,0,0,1,53.87,23.93ZM41.78,40.33h-6V36h6Z"/></g></g></svg>