<svg xmlns="http://www.w3.org/2000/svg" viewBox="0 0 59 50.94"><title>history</title><g id="Layer_2" data-name="Layer 2"><g id="Layer_1-2" data-name="Layer 1"><g id="history"><path d="M33.53,0A25.49,25.49,0,0,0,8.11,24L5,20.88A3,3,0,0,0,.86,25.05L9.76,34a3,3,0,0,0,4.17,0l8.89-8.9a2.95,2.95,0,0,0-4.17-4.17L14,25.57v-.1a19.56,19.56,0,1,1,8.18,15.92,2.95,2.95,0,0,0-3.43,4.8A25.47,25.47,0,1,0,33.53,0Z"/><path d="M33.53,14.39a3,3,0,0,0-3,2.95V29.85a3,3,0,0,0,1.47,2.56l6.51,3.75a2.89,2.89,0,0,0,1.47.39,2.95,2.95,0,0,0,1.48-5.5l-5-2.9V17.34A3,3,0,0,0,33.53,14.39Z"/></g></g></g></svg>