<svg xmlns="http://www.w3.org/2000/svg" viewBox="0 0 59 53.6"><title>http</title><g id="Layer_2" data-name="Layer 2"><g id="Layer_1-2" data-name="Layer 1"><g id="http"><path d="M43.9,48.6H9.7A4.71,4.71,0,0,1,5,43.9V19.4H51.1a2.5,2.5,0,0,0,2.5-2.5V9.7A9.71,9.71,0,0,0,43.9,0H9.7A9.71,9.71,0,0,0,0,9.7V43.9a9.71,9.71,0,0,0,9.7,9.7H43.9a2.5,2.5,0,0,0,0-5ZM21,7.2h1.8a2.5,2.5,0,1,1,0,5H21a2.5,2.5,0,0,1,0-5Zm-9.9,0h1.8a2.5,2.5,0,1,1,0,5h-1.8a2.5,2.5,0,0,1,0-5Z"/><path d="M18.29,42.8a2.5,2.5,0,0,0,2.5-2.5V29.22a2.5,2.5,0,0,0-5,0v3H14v-3a2.5,2.5,0,0,0-5,0V40.3a2.5,2.5,0,0,0,5,0v-3h1.79v3A2.5,2.5,0,0,0,18.29,42.8Z"/><path d="M27.31,42.8a2.5,2.5,0,0,0,2.5-2.5V31.72h.9a2.5,2.5,0,0,0,0-5H23.92a2.5,2.5,0,0,0,0,5h.89V40.3A2.5,2.5,0,0,0,27.31,42.8Z"/><path d="M40.05,42.8a2.5,2.5,0,0,0,2.5-2.5V31.72h.89a2.5,2.5,0,0,0,0-5H36.65a2.5,2.5,0,0,0,0,5h.9V40.3A2.5,2.5,0,0,0,40.05,42.8Z"/><path d="M53.73,26.72H49.39a2.49,2.49,0,0,0-2.5,2.5V40.3a2.5,2.5,0,0,0,5,0v-3h1.84a5.27,5.27,0,1,0,0-10.54Zm0,5.54H51.89v-.54h1.84a.27.27,0,0,1,0,.54Z"/></g></g></g></svg>