<svg xmlns="http://www.w3.org/2000/svg" viewBox="0 0 33 59"><title>ice cream</title><g id="Layer_2" data-name="Layer 2"><g id="Layer_1-2" data-name="Layer 1"><path id="ice_cream" data-name="ice cream" d="M32.92,14.84a2.49,2.49,0,0,0-3-2.18,7.59,7.59,0,0,1-1.45.13A8,8,0,0,1,20.7,3.13a2.52,2.52,0,0,0-2.14-3A18.23,18.23,0,0,0,16.5,0,16.52,16.52,0,0,0,0,16.5v26A2.5,2.5,0,0,0,2.5,45H10v7.5a6.5,6.5,0,0,0,13,0V45h7.5A2.5,2.5,0,0,0,33,42.5v-26C33,15.91,33,15.37,32.92,14.84ZM18,52.5a1.5,1.5,0,0,1-3,0V45h3ZM9.5,22.63a2.5,2.5,0,1,1,5,0v11a2.5,2.5,0,0,1-5,0Zm14,11a2.5,2.5,0,0,1-5,0v-11a2.5,2.5,0,1,1,5,0Z"/></g></g></svg>