<svg xmlns="http://www.w3.org/2000/svg" viewBox="0 0 59 45"><title>id</title><g id="Layer_2" data-name="Layer 2"><g id="Layer_1-2" data-name="Layer 1"><g id="id"><path d="M50.5,0H8.5A8.51,8.51,0,0,0,0,8.5v28A8.51,8.51,0,0,0,8.5,45h42A8.51,8.51,0,0,0,59,36.5V8.5A8.51,8.51,0,0,0,50.5,0Zm-30,11.43a5,5,0,1,1-5,5A5,5,0,0,1,20.5,11.43Zm6.43,22.14H14.07a1.55,1.55,0,0,1-1.53-1.88,8.18,8.18,0,0,1,15.92,0A1.55,1.55,0,0,1,26.93,33.57ZM46.5,31h-9a2.5,2.5,0,0,1,0-5h9a2.5,2.5,0,0,1,0,5Zm0-12h-9a2.5,2.5,0,0,1,0-5h9a2.5,2.5,0,0,1,0,5Z"/></g></g></g></svg>