<svg xmlns="http://www.w3.org/2000/svg" viewBox="0 0 59 59"><title>injection</title><g id="Layer_2" data-name="Layer 2"><g id="Layer_1-2" data-name="Layer 1"><path id="injection" d="M58.27,11.15,53.06,5.94h0L47.86.73a2.5,2.5,0,0,0-3.54,3.54l3.44,3.44L40.47,15,31.2,5.72a2.5,2.5,0,0,0-3.53,3.53l3.16,3.17L11.92,31.33a10.94,10.94,0,0,0-3.16,9.09L9.43,46,.73,54.73a2.52,2.52,0,0,0,0,3.54,2.51,2.51,0,0,0,3.54,0L13,49.57l5.62.67a11.66,11.66,0,0,0,1.31.08,11,11,0,0,0,7.78-3.24l3.19-3.19-5.38-5.38A2.5,2.5,0,1,1,29,35l5.38,5.39,2.79-2.79-5.38-5.39a2.5,2.5,0,0,1,3.53-3.53L40.72,34l5.86-5.86,3.17,3.16a2.46,2.46,0,0,0,1.76.74,2.51,2.51,0,0,0,1.77-4.27L44,18.53l7.28-7.29,3.44,3.44a2.5,2.5,0,0,0,3.54-3.53Z"/></g></g></svg>