<svg xmlns="http://www.w3.org/2000/svg" viewBox="0 0 41 59"><title>intercom</title><g id="Layer_2" data-name="Layer 2"><g id="Layer_1-2" data-name="Layer 1"><g id="intercom"><circle cx="20.5" cy="16.72" r="3.5"/><path d="M32.5,0H8.5A8.51,8.51,0,0,0,0,8.5v42A8.51,8.51,0,0,0,8.5,59h24A8.51,8.51,0,0,0,41,50.5V8.5A8.51,8.51,0,0,0,32.5,0Zm-12,8.22a8.5,8.5,0,1,1-8.5,8.5A8.51,8.51,0,0,1,20.5,8.22Zm-8.91,41.2a2.5,2.5,0,1,1,2.5-2.5A2.5,2.5,0,0,1,11.59,49.42Zm0-6.72a2.5,2.5,0,1,1,2.5-2.5A2.5,2.5,0,0,1,11.59,42.7Zm7,6.72a2.5,2.5,0,1,1,2.5-2.5A2.5,2.5,0,0,1,18.59,49.42Zm0-6.72a2.5,2.5,0,1,1,2.5-2.5A2.5,2.5,0,0,1,18.59,42.7Zm9.29,4.89a4,4,0,1,1,4-4A4,4,0,0,1,27.88,47.59ZM30.5,33.86h-20a2.5,2.5,0,0,1,0-5h20a2.5,2.5,0,0,1,0,5Z"/></g></g></g></svg>