<svg xmlns="http://www.w3.org/2000/svg" viewBox="0 0 49 59"><title>invoice</title><g id="Layer_2" data-name="Layer 2"><g id="Layer_1-2" data-name="Layer 1"><path id="invoice" d="M38.5,0h-28A10.51,10.51,0,0,0,0,10.5v38A10.51,10.51,0,0,0,10.5,59h28A10.51,10.51,0,0,0,49,48.5v-38A10.51,10.51,0,0,0,38.5,0ZM11.78,14.17h10a2.5,2.5,0,0,1,0,5h-10a2.5,2.5,0,0,1,0-5Zm0,13.33h10a2.5,2.5,0,0,1,0,5h-10a2.5,2.5,0,0,1,0-5Zm24,18.33h-24a2.5,2.5,0,0,1,0-5h24a2.5,2.5,0,0,1,0,5Zm.34-13v.84a2.5,2.5,0,0,1-5,0v-.3h-.3a2.5,2.5,0,0,1,0-5h2.8a1.1,1.1,0,1,0,0-2.2,6.1,6.1,0,0,1-2.5-11.66v-.84a2.5,2.5,0,0,1,5,0V14h.3a2.5,2.5,0,1,1,0,5h-2.8a1.1,1.1,0,0,0,0,2.2,6.1,6.1,0,0,1,2.5,11.66Z"/></g></g></svg>