<svg xmlns="http://www.w3.org/2000/svg" viewBox="0 0 59 59"><title>islamic art</title><g id="Layer_2" data-name="Layer 2"><g id="Layer_1-2" data-name="Layer 1"><g id="islamic_art" data-name="islamic art"><path d="M29.5,59a4.48,4.48,0,0,1-3.18-1.32l-6-6H11.82a4.51,4.51,0,0,1-4.5-4.5V38.69l-6-6a4.49,4.49,0,0,1,0-6.36l6-6V11.82a4.51,4.51,0,0,1,4.5-4.5h8.49l6-6a4.49,4.49,0,0,1,6.36,0l6,6h8.49a4.51,4.51,0,0,1,4.5,4.5v8.49l6,6a4.49,4.49,0,0,1,0,6.36l-6,6v8.49a4.51,4.51,0,0,1-4.5,4.5H38.69l-6,6A4.48,4.48,0,0,1,29.5,59Z"/></g></g></g></svg>