<svg xmlns="http://www.w3.org/2000/svg" viewBox="0 0 59 56.35"><title>keyboard</title><g id="Layer_2" data-name="Layer 2"><g id="Layer_1-2" data-name="Layer 1"><path id="keyboard" d="M50.5,19.35H31.82V16.61a2.85,2.85,0,0,1,2.85-2.84,7.85,7.85,0,0,0,7.84-7.84V2.5a2.5,2.5,0,0,0-5,0V5.93a2.85,2.85,0,0,1-2.84,2.84,7.85,7.85,0,0,0-7.85,7.84v2.74H8.5A8.51,8.51,0,0,0,0,27.85v20a8.51,8.51,0,0,0,8.5,8.5h42a8.51,8.51,0,0,0,8.5-8.5v-20A8.51,8.51,0,0,0,50.5,19.35Zm-27.17,8h1a2.5,2.5,0,0,1,0,5h-1a2.5,2.5,0,0,1,0-5Zm0,8h1a2.5,2.5,0,0,1,0,5h-1a2.5,2.5,0,0,1,0-5ZM13,48.35H12a2.5,2.5,0,0,1,0-5h1a2.5,2.5,0,0,1,0,5Zm0-8H12a2.5,2.5,0,0,1,0-5h1a2.5,2.5,0,0,1,0,5Zm0-8H12a2.5,2.5,0,0,1,0-5h1a2.5,2.5,0,0,1,0,5Zm22.67,16H23.33a2.5,2.5,0,0,1,0-5H35.67a2.5,2.5,0,0,1,0,5Zm0-8h-1a2.5,2.5,0,0,1,0-5h1a2.5,2.5,0,0,1,0,5Zm0-8h-1a2.5,2.5,0,0,1,0-5h1a2.5,2.5,0,0,1,0,5ZM47,48.35H46a2.5,2.5,0,0,1,0-5h1a2.5,2.5,0,0,1,0,5Zm0-8H46a2.5,2.5,0,0,1,0-5h1a2.5,2.5,0,0,1,0,5Zm0-8H46a2.5,2.5,0,0,1,0-5h1a2.5,2.5,0,0,1,0,5Z"/></g></g></svg>