<svg xmlns="http://www.w3.org/2000/svg" viewBox="0 0 62.87 46.74"><title>lawnmower</title><g id="Layer_2" data-name="Layer 2"><g id="Layer_1-2" data-name="Layer 1"><path id="lawnmower" d="M53.37,27.74a9.44,9.44,0,0,0-5.6,1.84l-1.44-2.14a10.49,10.49,0,0,0-8.73-4.66H26.32a9.93,9.93,0,0,0-7.2,3.09L10.68,1.68l0-.07-.12-.25a1.28,1.28,0,0,0-.11-.2A1.33,1.33,0,0,0,10.28,1a1.46,1.46,0,0,0-.16-.19A1.29,1.29,0,0,0,10,.62C9.89.57,9.83.51,9.77.47L9.54.33,9.36.23,9.1.14,8.9.07,8.64,0,8.4,0H2.5a2.5,2.5,0,0,0,0,5h4l8,22.79c-.32,0-.65-.05-1-.05a9.5,9.5,0,1,0,7.35,15.5H46a9.5,9.5,0,1,0,7.36-15.5Zm-39.86,14a4.5,4.5,0,1,1,4.5-4.5A4.5,4.5,0,0,1,13.51,41.74Zm39.86,0a4.5,4.5,0,1,1,4.5-4.5A4.51,4.51,0,0,1,53.37,41.74Z"/></g></g></svg>