<svg xmlns="http://www.w3.org/2000/svg" viewBox="0 0 59 53"><title>layers</title><g id="Layer_2" data-name="Layer 2"><g id="Layer_1-2" data-name="Layer 1"><g id="layers"><path d="M29.5,41a2.39,2.39,0,0,1-1-.22l-27-12a2.5,2.5,0,1,1,2-4.56l26,11.54,26-11.54a2.5,2.5,0,0,1,2,4.56l-27,12A2.43,2.43,0,0,1,29.5,41Z"/><path d="M29.5,29a2.39,2.39,0,0,1-1-.22l-27-12a2.49,2.49,0,0,1,0-4.56l27-12a2.48,2.48,0,0,1,2,0l27,12a2.5,2.5,0,0,1,0,4.56l-27,12A2.43,2.43,0,0,1,29.5,29Z"/><path d="M29.5,53a2.39,2.39,0,0,1-1-.22l-27-12a2.5,2.5,0,1,1,2-4.56l26,11.54,26-11.54a2.5,2.5,0,0,1,2,4.56l-27,12A2.43,2.43,0,0,1,29.5,53Z"/></g></g></g></svg>