<svg xmlns="http://www.w3.org/2000/svg" viewBox="0 0 59 59"><title>linkedin</title><g id="Layer_2" data-name="Layer 2"><g id="Layer_1-2" data-name="Layer 1"><path id="linkedin" d="M48.5,0h-38A10.51,10.51,0,0,0,0,10.5v38A10.51,10.51,0,0,0,10.5,59h38A10.51,10.51,0,0,0,59,48.5v-38A10.51,10.51,0,0,0,48.5,0ZM21.22,44.5H15v-20h6.22ZM18.11,21.74a3.62,3.62,0,1,1,3.6-3.63A3.63,3.63,0,0,1,18.11,21.74ZM44.5,44.5H38.29V34.75c0-2.32,0-5.3-3.23-5.3S31.33,32,31.33,34.59V44.5H25.11v-20h6v2.74h.09A6.52,6.52,0,0,1,37.05,24c6.29,0,7.45,4.15,7.45,9.53Z"/></g></g></svg>