<svg xmlns="http://www.w3.org/2000/svg" viewBox="0 0 60 60"><title>link off</title><g id="Layer_2" data-name="Layer 2"><g id="Layer_1-2" data-name="Layer 1"><g id="link_off" data-name="link off"><path d="M40.66,45.84a3,3,0,0,1,0-6,17.68,17.68,0,0,0,1.78-.09,3,3,0,1,1,.59,6A23.51,23.51,0,0,1,40.66,45.84Z"/><path d="M52.77,41.62a3,3,0,0,1-2-5.26A8.52,8.52,0,0,0,54,30c0-5.42-6-9.84-13.34-9.84A17,17,0,0,0,34,21.48,3,3,0,0,1,31.68,16a23,23,0,0,1,9-1.8C51.33,14.16,60,21.27,60,30a14.37,14.37,0,0,1-5.27,10.89A3,3,0,0,1,52.77,41.62Z"/><path d="M59.12,54.88l-54-54A3,3,0,0,0,.88,5.12L11.34,15.59C4.61,18.09,0,23.65,0,30c0,8.73,8.67,15.84,19.34,15.84,6.36,0,12.13-2.49,15.69-6.56L54.88,59.12a3,3,0,0,0,4.24,0A3,3,0,0,0,59.12,54.88Zm-39.78-15C12,39.84,6,35.42,6,30c0-4.56,4.3-8.5,10.2-9.56l5.72,5.72A13.15,13.15,0,0,0,21.33,30,3,3,0,0,0,27,31.27L30.77,35C28.38,38,24.06,39.84,19.34,39.84Z"/></g></g></g></svg>