<svg xmlns="http://www.w3.org/2000/svg" viewBox="0 0 60 31.67"><title>link</title><g id="Layer_2" data-name="Layer 2"><g id="Layer_1-2" data-name="Layer 1"><g id="link"><path d="M19.34,31.67C8.67,31.67,0,24.57,0,15.84S8.67,0,19.34,0a3,3,0,0,1,0,6C12,6,6,10.41,6,15.84s6,9.83,13.34,9.83,13.33-4.41,13.33-9.83a3,3,0,0,1,6,0C38.67,24.57,30,31.67,19.34,31.67Z"/><path d="M40.66,31.67a3,3,0,0,1,0-6C48,25.67,54,21.26,54,15.84S48,6,40.66,6s-13.33,4.41-13.33,9.84a3,3,0,1,1-6,0C21.33,7.1,30,0,40.66,0S60,7.1,60,15.84,51.33,31.67,40.66,31.67Z"/></g></g></g></svg>