<svg xmlns="http://www.w3.org/2000/svg" viewBox="0 0 58 58"><title>meat</title><g id="Layer_2" data-name="Layer 2"><g id="Layer_1-2" data-name="Layer 1"><g id="meat"><path d="M50.82,7.17C43.45-.2,33.9-2.2,29.09,2.62L22.26,9.45c-7,7-8.91,16.88-5.35,24.21L8.6,42a.47.47,0,0,1-.66,0A3.39,3.39,0,0,0,4.81,41a6.22,6.22,0,0,0,.05,12.12,6.21,6.21,0,0,0,12.12,0A3.38,3.38,0,0,0,16,50.06a.47.47,0,0,1,0-.66l8.31-8.31a17.86,17.86,0,0,0,7.84,1.76,23.51,23.51,0,0,0,16.37-7.11l6.83-6.83C60.19,24.09,58.2,14.54,50.82,7.17Zm1,18.21c-2.39,2.38-9,1.11-14.67-4.56S30.23,8.55,32.62,6.16A4.66,4.66,0,0,1,36,5c3.11,0,7.43,1.83,11.3,5.7C53,16.37,54.23,23,51.84,25.38Z"/><path d="M42.41,12.41a2.5,2.5,0,0,0-3.54,3.53l3.18,3.18a2.5,2.5,0,0,0,3.54-3.53Z"/></g></g></g></svg>