<svg xmlns="http://www.w3.org/2000/svg" viewBox="0 0 44.93 59"><title>medal-2</title><g id="Layer_2" data-name="Layer 2"><g id="Layer_1-2" data-name="Layer 1"><path id="medal-2" d="M44.93,22.47A22.47,22.47,0,1,0,7.26,39V56.5a2.5,2.5,0,0,0,3.62,2.24l11.59-5.8,11.58,5.8a2.62,2.62,0,0,0,1.12.26,2.48,2.48,0,0,0,2.5-2.5V39A22.42,22.42,0,0,0,44.93,22.47ZM13.55,20.3A1.74,1.74,0,0,1,15,19.12l4.12-.6,1.84-3.73a1.73,1.73,0,0,1,3.11,0l1.84,3.73,4.12.6a1.73,1.73,0,0,1,1,2.95L28,25l.7,4.11A1.71,1.71,0,0,1,28,30.78a1.75,1.75,0,0,1-1,.33,1.68,1.68,0,0,1-.81-.2L22.47,29l-3.69,1.94a1.73,1.73,0,0,1-2.51-1.82L17,25l-3-2.91A1.73,1.73,0,0,1,13.55,20.3ZM32.67,52.46l-9.09-4.55a2.5,2.5,0,0,0-2.23,0l-9.09,4.55v-10a22.4,22.4,0,0,0,20.41,0Z"/></g></g></svg>