<svg xmlns="http://www.w3.org/2000/svg" viewBox="0 0 59 59"><title>memory</title><g id="Layer_2" data-name="Layer 2"><g id="Layer_1-2" data-name="Layer 1"><g id="memory"><path d="M56.5,26.9a2.5,2.5,0,0,0,0-5H51.8V16.7h4.7a2.5,2.5,0,0,0,0-5h-5A6.5,6.5,0,0,0,47.3,7.52v-5a2.5,2.5,0,0,0-5,0V7.2H37.1V2.5a2.5,2.5,0,0,0-5,0V7.2H26.9V2.5a2.5,2.5,0,0,0-5,0V7.2H16.7V2.5a2.5,2.5,0,0,0-5,0v5A6.5,6.5,0,0,0,7.52,11.7h-5a2.5,2.5,0,0,0,0,5H7.2v5.2H2.5a2.5,2.5,0,0,0,0,5H7.2v5.2H2.5a2.5,2.5,0,0,0,0,5H7.2v5.2H2.5a2.5,2.5,0,0,0,0,5h5a6.5,6.5,0,0,0,4.18,4.18v5a2.5,2.5,0,0,0,5,0V51.8h5.2v4.7a2.5,2.5,0,0,0,5,0V51.8h5.2v4.7a2.5,2.5,0,0,0,5,0V51.8h5.2v4.7a2.5,2.5,0,0,0,5,0v-5a6.5,6.5,0,0,0,4.18-4.18h5a2.5,2.5,0,0,0,0-5H51.8V37.1h4.7a2.5,2.5,0,0,0,0-5H51.8V26.9ZM42,39.5A2.5,2.5,0,0,1,39.5,42h-20A2.5,2.5,0,0,1,17,39.5v-20A2.5,2.5,0,0,1,19.5,17h20A2.5,2.5,0,0,1,42,19.5ZM22,37H37V22H22Z"/></g></g></g></svg>