<svg xmlns="http://www.w3.org/2000/svg" viewBox="0 0 59 57"><title>message-1</title><g id="Layer_2" data-name="Layer 2"><g id="Layer_1-2" data-name="Layer 1"><path id="message-1" d="M40.5,0h-22A18.52,18.52,0,0,0,0,18.5v10A18.53,18.53,0,0,0,14,46.42V54.5a2.5,2.5,0,0,0,1.22,2.15,2.54,2.54,0,0,0,1.28.35,2.5,2.5,0,0,0,1.19-.3L35.54,47h5A18.52,18.52,0,0,0,59,28.5v-10A18.52,18.52,0,0,0,40.5,0ZM41,35.5H18a2.5,2.5,0,0,1,0-5H41a2.5,2.5,0,0,1,0,5ZM41,26H18a2.5,2.5,0,0,1,0-5H41a2.5,2.5,0,0,1,0,5Zm0-9.5H18a2.5,2.5,0,0,1,0-5H41a2.5,2.5,0,0,1,0,5Z"/></g></g></svg>