<svg xmlns="http://www.w3.org/2000/svg" viewBox="0 0 35 59"><title>milk-1</title><g id="Layer_2" data-name="Layer 2"><g id="Layer_1-2" data-name="Layer 1"><path id="milk-1" d="M30,18V14.56A7.49,7.49,0,0,0,27.5,0H7.5A7.49,7.49,0,0,0,5,14.56V18a9.13,9.13,0,0,1-1.57,5.14A14.12,14.12,0,0,0,1,31.07V56.5A2.5,2.5,0,0,0,3.5,59h28A2.5,2.5,0,0,0,34,56.5V31.07a14.12,14.12,0,0,0-2.43-7.93A9.13,9.13,0,0,1,30,18ZM10,18V15H25v3a14.13,14.13,0,0,0,2.43,7.94A9.14,9.14,0,0,1,29,30.79a12.11,12.11,0,0,1-8.83,1A5.55,5.55,0,0,1,18,30.37a12.84,12.84,0,0,0-4-2.57A14.76,14.76,0,0,0,7,27a8.61,8.61,0,0,1,.58-1A14.15,14.15,0,0,0,10,18ZM7.5,5h20a2.5,2.5,0,0,1,0,5H7.5a2.5,2.5,0,0,1,0-5Z"/></g></g></svg>