<svg xmlns="http://www.w3.org/2000/svg" viewBox="0 0 51.15 59"><title>milk-2</title><g id="Layer_2" data-name="Layer 2"><g id="Layer_1-2" data-name="Layer 1"><path id="milk-2" d="M50.41,16.44,44.27,10.3V2.5A2.5,2.5,0,0,0,41.77,0H12.32a2.5,2.5,0,0,0-2.5,2.5v7.8L.73,19.39a2.59,2.59,0,0,0-.39.53.83.83,0,0,0-.07.13,2.23,2.23,0,0,0-.22.61v0a2.42,2.42,0,0,0,0,.47V56.5A2.5,2.5,0,0,0,2.5,59H32a2,2,0,0,0,.42,0L49.08,56a2.51,2.51,0,0,0,2.07-2.47V18.21A2.52,2.52,0,0,0,50.41,16.44ZM14.09,13.1a2.47,2.47,0,0,0,.73-1.76V5H39.27v5.3l-8.35,8.36H8.54ZM46.15,51.46l-11.7,2.06V22.19l7.32-7.32,4.38,4.38Z"/></g></g></svg>