<svg xmlns="http://www.w3.org/2000/svg" viewBox="0 0 53.94 57"><title>molecules</title><g id="Layer_2" data-name="Layer 2"><g id="Layer_1-2" data-name="Layer 1"><path id="molecules" d="M47.35,36.68a6.55,6.55,0,0,0-3.42,1l-8.24-6.07a8.07,8.07,0,0,0,0-5.14l8.24-6.07a6.66,6.66,0,1,0-3-4l-8.24,6.07A8,8,0,0,0,28,20.89a7.91,7.91,0,0,0-1.55.15l-3.53-6.39a8.63,8.63,0,1,0-6.19,2.61,8.23,8.23,0,0,0,1.81-.19l3.54,6.4a8.15,8.15,0,0,0-1.81,3H12.69a6.59,6.59,0,1,0,0,5h7.58a8.22,8.22,0,0,0,1.85,3.1l-3.94,7.27A8.26,8.26,0,0,0,17,41.77a7.65,7.65,0,1,0,5.61,2.49L26.51,37a8,8,0,0,0,6.21-1.39L41,41.67a6.59,6.59,0,1,0,6.39-5Z"/></g></g></svg>