<svg xmlns="http://www.w3.org/2000/svg" viewBox="0 0 59 59"><title>money circle</title><g id="Layer_2" data-name="Layer 2"><g id="Layer_1-2" data-name="Layer 1"><g id="money_circle" data-name="money circle"><path d="M29.5,0A29.5,29.5,0,1,0,59,29.5,29.54,29.54,0,0,0,29.5,0ZM32,43.13V45.5a2.5,2.5,0,0,1-5,0v-2H25a2.5,2.5,0,0,1,0-5H29.5a3.26,3.26,0,0,0,0-6.52A8.26,8.26,0,0,1,27,15.87V13.5a2.5,2.5,0,0,1,5,0v2h2a2.5,2.5,0,0,1,0,5H29.5a3.26,3.26,0,0,0,0,6.52A8.26,8.26,0,0,1,32,43.13Z"/></g></g></g></svg>