<svg xmlns="http://www.w3.org/2000/svg" viewBox="0 0 52.18 59"><title>mosque</title><g id="Layer_2" data-name="Layer 2"><g id="Layer_1-2" data-name="Layer 1"><path id="mosque" d="M49.68,33h-5a11.62,11.62,0,0,0-9.14-10.81V20.41a7.72,7.72,0,0,0,3.78-2.06,2.5,2.5,0,0,0-3.53-3.55,2.81,2.81,0,0,1-3.95,0,2.7,2.7,0,0,1,0-3.86,2.5,2.5,0,0,0-3.52-3.55,7.7,7.7,0,0,0,2.22,12.49v2.34A11.63,11.63,0,0,0,21.44,33H19V32.2a20.72,20.72,0,0,0-7-15.58V13.75a7.69,7.69,0,0,0,3.77-2.06,2.5,2.5,0,1,0-3.52-3.55,2.81,2.81,0,0,1-4,0,2.72,2.72,0,0,1,0-3.87A2.5,2.5,0,1,0,4.76.73,7.71,7.71,0,0,0,7,13.22v3.4A20.72,20.72,0,0,0,0,32.2V56.5A2.5,2.5,0,0,0,2.5,59H49.68a2.49,2.49,0,0,0,2.5-2.5v-21A2.49,2.49,0,0,0,49.68,33ZM37.6,54H28.05V48.73a7.78,7.78,0,0,1,4.77-7.18,7.79,7.79,0,0,1,4.78,7.18Z"/></g></g></svg>