<svg xmlns="http://www.w3.org/2000/svg" viewBox="0 0 58 49.82"><title>motorbike</title><g id="Layer_2" data-name="Layer 2"><g id="Layer_1-2" data-name="Layer 1"><path id="motorbike" d="M46.29,27,42.9,13.47a6.83,6.83,0,0,0,2.45.45h4.46a2.5,2.5,0,0,0,2.5-2.5V2.5A2.5,2.5,0,0,0,49.81,0H45.35a7,7,0,0,0-6.49,4.46H29.63a2.5,2.5,0,1,0,0,5h5.09V25.6a4.46,4.46,0,0,1-4.45,4.45H28.06V19.35a1.5,1.5,0,0,0-1.5-1.5h-6V3a2.49,2.49,0,0,0-2.5-2.5H10.43A10.44,10.44,0,0,0,0,10.88v8.47a2.5,2.5,0,0,0,2.5,2.5H7.13A17.06,17.06,0,0,0,1,34.94v4.92a1.5,1.5,0,0,0,1.5,1.5h4a1.1,1.1,0,0,0,0,.18,8.28,8.28,0,1,0,16.55,0c0-.06,0-.12,0-.18H36l2.61,0H39a.88.88,0,0,0,0,.16,8.28,8.28,0,1,0,16.55,0,.88.88,0,0,0,0-.16h1a1.5,1.5,0,0,0,1.5-1.5A12.91,12.91,0,0,0,46.29,27ZM45.35,5h2V8.92h-2a2,2,0,1,1,0-3.92ZM5,10.88a5.44,5.44,0,0,1,5.43-5.43h5.16v11.4H5ZM18.05,41.54a3.28,3.28,0,1,1-6.55,0,1.1,1.1,0,0,0,0-.18h6.59A1.1,1.1,0,0,0,18.05,41.54Zm32.51,0a3.28,3.28,0,1,1-6.55,0,.88.88,0,0,0,0-.16h6.59A.88.88,0,0,0,50.56,41.54Z"/></g></g></svg>