<svg xmlns="http://www.w3.org/2000/svg" viewBox="0 0 60 60"><title>music_off</title><g id="Layer_2" data-name="Layer 2"><g id="Layer_1-2" data-name="Layer 1"><g id="music_off"><path d="M59.12,54.88,32.57,28.33a3,3,0,0,0-.82-.82L5.12.88A3,3,0,0,0,.88,5.12l26.2,26.2v7.89a11,11,0,1,0,6,9.79V37.32l21.8,21.8a3,3,0,0,0,4.24,0A3,3,0,0,0,59.12,54.88Zm-37-.88a5,5,0,1,1,5-5A5,5,0,0,1,22.08,54Z"/><path d="M30.08,18.94a3,3,0,0,0,3-3v-3.2A10.85,10.85,0,0,0,38,13.92a4.93,4.93,0,0,1,4.92,4.92,3,3,0,1,0,6,0A10.93,10.93,0,0,0,38,7.92,4.93,4.93,0,0,1,33.08,3a3,3,0,0,0-6,0V15.94A3,3,0,0,0,30.08,18.94Z"/></g></g></g></svg>