<svg xmlns="http://www.w3.org/2000/svg" viewBox="0 0 57.03 59"><title>music list</title><g id="Layer_2" data-name="Layer 2"><g id="Layer_1-2" data-name="Layer 1"><g id="music_list" data-name="music list"><path d="M46.29,7.79A4.84,4.84,0,0,1,41.45,3a2.95,2.95,0,0,0-5.9,0V38.56a10.66,10.66,0,0,0-4.91-1.19A10.82,10.82,0,1,0,41.45,48.18V12.52a10.67,10.67,0,0,0,4.84,1.17,4.84,4.84,0,0,1,4.84,4.84,2.95,2.95,0,0,0,5.9,0A10.75,10.75,0,0,0,46.29,7.79ZM30.64,53.1a4.92,4.92,0,1,1,4.91-4.92A4.93,4.93,0,0,1,30.64,53.1Z"/><path d="M18.68,35.15H3a2.95,2.95,0,1,1,0-5.9H18.68a2.95,2.95,0,0,1,0,5.9Z"/><path d="M26.55,22.53H3a3,3,0,0,1,0-5.9h23.6a3,3,0,0,1,0,5.9Z"/><path d="M26.55,9.91H3A3,3,0,0,1,3,4h23.6a3,3,0,0,1,0,5.9Z"/></g></g></g></svg>