<svg xmlns="http://www.w3.org/2000/svg" viewBox="0 0 54.68 59"><title>network server</title><g id="Layer_2" data-name="Layer 2"><g id="Layer_1-2" data-name="Layer 1"><path id="network_server" data-name="network server" d="M54.68,6.82A6.83,6.83,0,0,0,47.86,0h-41A6.83,6.83,0,0,0,0,6.82v10.8a6.77,6.77,0,0,0,1.55,4.32A6.77,6.77,0,0,0,0,26.26v10.8a6.83,6.83,0,0,0,6.82,6.82h18V54H5.74a2.5,2.5,0,0,0,0,5h43.2a2.5,2.5,0,0,0,0-5H29.84V43.88h18a6.83,6.83,0,0,0,6.82-6.82V26.26a6.77,6.77,0,0,0-1.55-4.32,6.77,6.77,0,0,0,1.55-4.32ZM16,34.54H12.76a2.5,2.5,0,1,1,0-5H16a2.5,2.5,0,0,1,0,5Zm0-19.82H12.76a2.5,2.5,0,0,1,0-5H16a2.5,2.5,0,0,1,0,5ZM41.92,34.54H26.8a2.5,2.5,0,0,1,0-5H41.92a2.5,2.5,0,0,1,0,5Zm0-19.82H26.8a2.5,2.5,0,0,1,0-5H41.92a2.5,2.5,0,0,1,0,5Z"/></g></g></svg>