<svg xmlns="http://www.w3.org/2000/svg" viewBox="0 0 59 59"><title>news</title><g id="Layer_2" data-name="Layer 2"><g id="Layer_1-2" data-name="Layer 1"><g id="news"><path d="M56.5,0h-40A2.5,2.5,0,0,0,14,2.5V24H2.5A2.5,2.5,0,0,0,0,26.5v22A10.51,10.51,0,0,0,10.5,59h38A10.51,10.51,0,0,0,59,48.5V2.5A2.5,2.5,0,0,0,56.5,0ZM14,50.5A3.5,3.5,0,0,1,10.5,54,5.51,5.51,0,0,1,5,48.5V29h9Zm32.5-6.84h-20a2.5,2.5,0,0,1,0-5h20a2.5,2.5,0,0,1,0,5ZM46.5,32h-20a2.5,2.5,0,0,1,0-5h20a2.5,2.5,0,0,1,0,5Zm0-11.67h-20a2.5,2.5,0,1,1,0-5h20a2.5,2.5,0,1,1,0,5Z"/></g></g></g></svg>