<svg xmlns="http://www.w3.org/2000/svg" viewBox="0 0 59 51.82"><title>night</title><g id="Layer_2" data-name="Layer 2"><g id="Layer_1-2" data-name="Layer 1"><g id="night"><path d="M58.94,45.1a2.49,2.49,0,0,0-2.11-1.93A20.91,20.91,0,0,1,48.34,4.81a2.49,2.49,0,0,0-1-4.58A26.64,26.64,0,0,0,43.91,0,26,26,0,0,0,18.29,22a15,15,0,0,1,13.36,8.79A12.5,12.5,0,0,1,37.43,51a25.85,25.85,0,0,0,20.42-3.24A2.5,2.5,0,0,0,58.94,45.1Z"/><path d="M29,33.85a11.39,11.39,0,0,0-22,.15A9,9,0,0,0,9,51.82H28a9,9,0,0,0,1.05-18Z"/></g></g></g></svg>