<svg xmlns="http://www.w3.org/2000/svg" viewBox="0 0 59 59"><title>no smoking</title><g id="Layer_2" data-name="Layer 2"><g id="Layer_1-2" data-name="Layer 1"><g id="no_smoking" data-name="no smoking"><path d="M56.5,47.88h-4a2.48,2.48,0,0,1-1.76-.73l-10-10a2.5,2.5,0,0,1,1.76-4.27h14a2.5,2.5,0,0,1,2.5,2.5v10A2.5,2.5,0,0,1,56.5,47.88Z"/><path d="M51.2,54.73,40.08,43.62h0l-10-10h0L4.27,7.8A2.5,2.5,0,0,0,.73,11.34L22.28,32.88H17.5v15H37.28L47.66,58.27a2.51,2.51,0,0,0,3.54,0A2.52,2.52,0,0,0,51.2,54.73Z"/><path d="M12.5,32.88H2.5A2.5,2.5,0,0,0,0,35.38v10a2.5,2.5,0,0,0,2.5,2.5h10Z"/><path d="M43.69,28a2.49,2.49,0,0,1-1.77-.73,10.66,10.66,0,0,1,0-15,5.63,5.63,0,0,0,0-8A2.5,2.5,0,1,1,45.46.73a10.66,10.66,0,0,1,0,15,5.63,5.63,0,0,0,0,8,2.52,2.52,0,0,1,0,3.54A2.49,2.49,0,0,1,43.69,28Z"/><path d="M54.12,28a2.49,2.49,0,0,1-1.77-.73,10.66,10.66,0,0,1,0-15,5.63,5.63,0,0,0,0-8A2.5,2.5,0,0,1,55.89.73a10.66,10.66,0,0,1,0,15,5.63,5.63,0,0,0,0,8,2.52,2.52,0,0,1,0,3.54A2.49,2.49,0,0,1,54.12,28Z"/></g></g></g></svg>