<svg xmlns="http://www.w3.org/2000/svg" viewBox="0 0 59 59"><title>notifications off</title><g id="Layer_2" data-name="Layer 2"><g id="Layer_1-2" data-name="Layer 1"><g id="notifications_off" data-name="notifications off"><path d="M52.26,36.57l-2.52-3.73a5.82,5.82,0,0,1-1-3.28V19.23A19.23,19.23,0,0,0,28.57,0,18.85,18.85,0,0,0,16.39,5.26L53.17,42A6.69,6.69,0,0,0,52.26,36.57Z"/><path d="M29.53,59a12.52,12.52,0,0,0,11.62-8L17.85,51A12.5,12.5,0,0,0,29.53,59Z"/><path d="M58.14,54,5,.86A3,3,0,0,0,.86,5l10,10a20.22,20.22,0,0,0-.56,4.7v9.86a5.82,5.82,0,0,1-1,3.28L6.74,36.57A6.69,6.69,0,0,0,12.28,47H42.83L54,58.14A3,3,0,0,0,58.14,54Z"/></g></g></g></svg>