<svg xmlns="http://www.w3.org/2000/svg" viewBox="0 0 47.81 59"><title>notification important</title><g id="Layer_2" data-name="Layer 2"><g id="Layer_1-2" data-name="Layer 1"><g id="notification_important" data-name="notification important"><path d="M46.66,38.57l-2.52-3.73a5.82,5.82,0,0,1-1-3.28V19.23A19.21,19.21,0,0,0,23,0,19.45,19.45,0,0,0,4.67,19.7V31.56a5.81,5.81,0,0,1-1,3.28L1.15,38.57A6.67,6.67,0,0,0,6.68,49H41.12a6.67,6.67,0,0,0,5.54-10.42ZM26.4,36.63a2.5,2.5,0,0,1-5,0v-1a2.5,2.5,0,0,1,5,0Zm0-8.5a2.5,2.5,0,1,1-5,0v-12a2.5,2.5,0,0,1,5,0Z"/><path d="M23.9,59A12.52,12.52,0,0,1,11.4,46.5a2.5,2.5,0,0,1,5,0,7.5,7.5,0,0,0,15,0,2.5,2.5,0,0,1,5,0A12.51,12.51,0,0,1,23.9,59Z"/></g></g></g></svg>