<svg xmlns="http://www.w3.org/2000/svg" viewBox="0 0 54.71 60"><title>office chair</title><g id="Layer_2" data-name="Layer 2"><g id="Layer_1-2" data-name="Layer 1"><g id="office_chair" data-name="office chair"><path d="M33.45,44.42a13.14,13.14,0,0,0,12.66-9.7H8.6a13.14,13.14,0,0,0,12.66,9.7h3.6v5.5H22.27a7.59,7.59,0,0,0-7.58,7.58,2.5,2.5,0,1,0,5,0,2.59,2.59,0,0,1,2.58-2.58H32.44A2.59,2.59,0,0,1,35,57.5a2.5,2.5,0,0,0,5,0,7.59,7.59,0,0,0-7.58-7.58H29.86v-5.5Z"/><path d="M52.21,17.37h-5a2.49,2.49,0,0,0-2.5,2.5v4.85h-3V9.28A9.28,9.28,0,0,0,32.44,0H22.27A9.28,9.28,0,0,0,13,9.28V24.72H10V19.87a2.49,2.49,0,0,0-2.5-2.5h-5a2.5,2.5,0,0,0,0,5H5v4.85a2.5,2.5,0,0,0,2.5,2.5H47.21a2.5,2.5,0,0,0,2.5-2.5V22.37h2.5a2.5,2.5,0,0,0,0-5Z"/></g></g></g></svg>