<svg xmlns="http://www.w3.org/2000/svg" viewBox="0 0 55.53 59"><title>office lamp</title><g id="Layer_2" data-name="Layer 2"><g id="Layer_1-2" data-name="Layer 1"><path id="office_lamp" data-name="office lamp" d="M55.41,18.44A17.08,17.08,0,0,0,40.59,6.74l-.73-2.22a6.52,6.52,0,0,0-11.64-1.6L1,23.33a2.5,2.5,0,0,0-.21,3.83L17,42.37V54H9.38a2.5,2.5,0,0,0,0,5H29.61a2.5,2.5,0,0,0,0-5H22V41.29a2.47,2.47,0,0,0-.79-1.82L6.38,25.55l21.37-16,.41,1.26A17.09,17.09,0,0,0,23.05,29a2.48,2.48,0,0,0,2.37,1.73,2.59,2.59,0,0,0,.78-.12L31,29a9.76,9.76,0,0,0,8.18,4.47,9.94,9.94,0,0,0,3-.48A9.77,9.77,0,0,0,49,23.16l4.83-1.57a2.49,2.49,0,0,0,1.61-3.15ZM43.47,25.86a4.77,4.77,0,0,1-6.4,2.08,5.25,5.25,0,0,1-.92-.61l7.7-2.5A4.41,4.41,0,0,1,43.47,25.86Z"/></g></g></svg>