<svg xmlns="http://www.w3.org/2000/svg" viewBox="0 0 59 59"><title>open with</title><g id="Layer_2" data-name="Layer 2"><g id="Layer_1-2" data-name="Layer 1"><g id="open_with" data-name="open with"><path d="M39.27,8.73l-8-8a2.52,2.52,0,0,0-3.54,0l-8,8a2.5,2.5,0,0,0,3.54,3.54L27,8.54v12a2.5,2.5,0,0,0,5,0v-12l3.73,3.73a2.51,2.51,0,0,0,3.54,0A2.52,2.52,0,0,0,39.27,8.73Z"/><path d="M20.5,27h-12l3.73-3.73a2.5,2.5,0,0,0-3.54-3.54l-8,8a2.52,2.52,0,0,0,0,3.54l8,8a2.51,2.51,0,0,0,3.54,0,2.52,2.52,0,0,0,0-3.54L8.54,32h12a2.5,2.5,0,0,0,0-5Z"/><path d="M58.27,27.73l-8-8a2.5,2.5,0,0,0-3.54,3.54L50.46,27h-12a2.5,2.5,0,0,0,0,5h12l-3.73,3.73a2.52,2.52,0,0,0,0,3.54,2.51,2.51,0,0,0,3.54,0l8-8A2.52,2.52,0,0,0,58.27,27.73Z"/><path d="M39.27,46.73a2.52,2.52,0,0,0-3.54,0L32,50.46v-12a2.5,2.5,0,0,0-5,0v12l-3.73-3.73a2.5,2.5,0,0,0-3.54,3.54l8,8a2.51,2.51,0,0,0,3.54,0l8-8A2.52,2.52,0,0,0,39.27,46.73Z"/></g></g></g></svg>