<svg xmlns="http://www.w3.org/2000/svg" viewBox="0 0 59 59.5"><title>paint roller</title><g id="Layer_2" data-name="Layer 2"><g id="Layer_1-2" data-name="Layer 1"><path id="paint_roller" data-name="paint roller" d="M50.5,8H49.13V6.5A6.51,6.51,0,0,0,42.63,0H6.5A6.51,6.51,0,0,0,0,6.5v8A6.51,6.51,0,0,0,6.5,21H42.63a6.51,6.51,0,0,0,6.5-6.5V13H50.5A3.5,3.5,0,0,1,54,16.5v4.42a3.5,3.5,0,0,1-3.5,3.5H28.57a6.51,6.51,0,0,0-6.5,6.5v3.57H19.63a1,1,0,0,0-1,1V53.57a5.94,5.94,0,0,0,11.87,0V35.49a1,1,0,0,0-1-1H27.07V30.92a1.5,1.5,0,0,1,1.5-1.5H50.5a8.51,8.51,0,0,0,8.5-8.5V16.5A8.51,8.51,0,0,0,50.5,8Z"/></g></g></svg>