<svg xmlns="http://www.w3.org/2000/svg" viewBox="0 0 58.92 59"><title>palette</title><g id="Layer_2" data-name="Layer 2"><g id="Layer_1-2" data-name="Layer 1"><path id="palette" d="M50.27,8.64A29.52,29.52,0,0,0,7.26,10a29.78,29.78,0,0,0,.29,39.3,29.57,29.57,0,0,0,28.33,9h0a6.33,6.33,0,0,0,3.06-1.71,6.41,6.41,0,0,0,0-9.06l-1.66-1.66a6,6,0,0,1,8.49-8.48L47.43,39A6.4,6.4,0,0,0,58.19,36,29.4,29.4,0,0,0,50.27,8.64Zm-28.51,33a5,5,0,0,1-7.07,0h0a5,5,0,0,1,3.54-8.54,5,5,0,0,1,3.53,8.54ZM23,23.14a5,5,0,0,1-7.07,0h0a5,5,0,0,1,3.54-8.54A5,5,0,0,1,23,23.14Zm18.52-.28a5,5,0,0,1-7.07,0h0a5,5,0,1,1,7.07,0Z"/></g></g></svg>