<svg xmlns="http://www.w3.org/2000/svg" viewBox="0 0 58.91 59"><title>pan tool</title><g id="Layer_2" data-name="Layer 2"><g id="Layer_1-2" data-name="Layer 1"><path id="pan_tool" data-name="pan tool" d="M51.92,11.36a7.08,7.08,0,0,0-2,.29,7,7,0,0,0-7-6.56,7.09,7.09,0,0,0-2.17.35A7,7,0,0,0,27.28,5,7.13,7.13,0,0,0,25,4.59a7,7,0,0,0-7,7V34.1a1.48,1.48,0,0,1-.59,1.19,1.47,1.47,0,0,1-1.31.23L8.56,33.31A6.68,6.68,0,0,0,0,39.72a6.71,6.71,0,0,0,3.29,5.75L20,55.33A26.42,26.42,0,0,0,33.43,59h15A10.49,10.49,0,0,0,58.91,48.52V18.34A7,7,0,0,0,51.92,11.36ZM27,27.37a2.5,2.5,0,0,0,5,0V7a2,2,0,1,1,4,0V25.76a2.5,2.5,0,0,0,5,0V12.08a2,2,0,1,1,4,0V29.52a2.5,2.5,0,1,0,5,0V18.34a2,2,0,0,1,4,0V48.52A5.49,5.49,0,0,1,48.43,54h-15a21.5,21.5,0,0,1-10.89-3L5.83,41.17A1.71,1.71,0,0,1,5,39.72a1.67,1.67,0,0,1,.67-1.34,1.64,1.64,0,0,1,1.48-.27l7.55,2.21A6.48,6.48,0,0,0,23,34.1V11.58a2,2,0,1,1,4,0"/></g></g></svg>