<svg xmlns="http://www.w3.org/2000/svg" viewBox="0 0 58.34 59"><title>paypal</title><g id="Layer_2" data-name="Layer 2"><g id="Layer_1-2" data-name="Layer 1"><g id="paypal"><path d="M58.34,25.22c.11,8.09-6.86,14.7-15,14.7H28.07L25.23,56.29A3.25,3.25,0,0,1,22,59H19.5a3.27,3.27,0,0,1-3.22-3.82l3.78-21.81H30.2A21.06,21.06,0,0,0,50,19.91a15,15,0,0,0,.94-7.13A14.5,14.5,0,0,1,58.34,25.22Z"/><path d="M3.27,48.07h7.06a3.26,3.26,0,0,0,3.21-2.7L16.38,29H32.15a14.5,14.5,0,0,0,14.5-14.5h0A14.5,14.5,0,0,0,32.15,0H10.94A3.27,3.27,0,0,0,7.73,2.67L.06,44.22A3.25,3.25,0,0,0,3.27,48.07Z"/></g></g></g></svg>