<svg xmlns="http://www.w3.org/2000/svg" viewBox="0 0 58.31 60"><title>pdf</title><g id="Layer_2" data-name="Layer 2"><g id="Layer_1-2" data-name="Layer 1"><g id="pdf"><path d="M39,60H11A11,11,0,0,1,0,49V11A11,11,0,0,1,11,0H35a3,3,0,0,1,2.12.88l12,12A3,3,0,0,1,50,15v4a3,3,0,0,1-3,3H31a3,3,0,0,1-3-3V6H11a5,5,0,0,0-5,5V49a5,5,0,0,0,5,5H39a3,3,0,0,1,0,6Z"/><path d="M33.84,49.5H29.52A2.5,2.5,0,0,1,27,47V28.81a2.5,2.5,0,0,1,2.5-2.5h4.32a8.51,8.51,0,0,1,8.5,8.5V41A8.51,8.51,0,0,1,33.84,49.5ZM32,44.5h1.82a3.5,3.5,0,0,0,3.5-3.5V34.81a3.5,3.5,0,0,0-3.5-3.5H32Z"/><path d="M13,49.5A2.5,2.5,0,0,1,10.5,47V28.81a2.5,2.5,0,0,1,2.5-2.5h4.48a7,7,0,1,1,0,14.1h-2V47A2.5,2.5,0,0,1,13,49.5Zm2.5-14.09h2a2,2,0,0,0,0-4.1h-2Z"/><path d="M47.88,49.5a2.5,2.5,0,0,1-2.5-2.5V32.12a5.82,5.82,0,0,1,5.81-5.81h4.62a2.5,2.5,0,0,1,0,5H51.19a.81.81,0,0,0-.81.81V47A2.49,2.49,0,0,1,47.88,49.5Z"/><path d="M55.81,39.41H47.88a2.5,2.5,0,1,1,0-5h7.93a2.5,2.5,0,0,1,0,5Z"/></g></g></g></svg>