<svg xmlns="http://www.w3.org/2000/svg" viewBox="0 0 59 59"><title>phone disabled</title><g id="Layer_2" data-name="Layer 2"><g id="Layer_1-2" data-name="Layer 1"><g id="phone_disabled" data-name="phone disabled"><path d="M58.27,54.73l-54-54A2.5,2.5,0,0,0,.73,4.27L30.08,33.61a48.41,48.41,0,0,1-8.47,6.15l-5.19-5.19a1.5,1.5,0,0,0-1.06-.44,1.52,1.52,0,0,0-1.06.44L1.44,47.44a1.49,1.49,0,0,0,0,2.12L6.84,55a10.35,10.35,0,0,0,7.32,3,10.25,10.25,0,0,0,4.41-1A81.71,81.71,0,0,0,39.24,42.77l15.49,15.5a2.51,2.51,0,0,0,3.54,0A2.52,2.52,0,0,0,58.27,54.73Z"/><path d="M46.62,34a1.5,1.5,0,0,1-1.06-.44l-7.3-7.3a1.51,1.51,0,0,1-.19-1.89c.59-.89,1.16-1.81,1.69-2.74l-5.19-5.19a1.51,1.51,0,0,1,0-2.12L47.44,1.44a1.49,1.49,0,0,1,2.12,0L55,6.84a10.31,10.31,0,0,1,2,11.73A82.23,82.23,0,0,1,47.8,33.4a1.46,1.46,0,0,1-1.09.57Z"/></g></g></g></svg>