<svg xmlns="http://www.w3.org/2000/svg" viewBox="0 0 60 54.15"><title>phonelink</title><g id="Layer_2" data-name="Layer 2"><g id="Layer_1-2" data-name="Layer 1"><g id="phonelink"><path d="M52.4,17.15H42.07a7.6,7.6,0,0,0-7.59,7.6V46.56a7.59,7.59,0,0,0,7.59,7.59H52.4A7.6,7.6,0,0,0,60,46.56V24.75A7.61,7.61,0,0,0,52.4,17.15ZM54,46.56a1.6,1.6,0,0,1-1.6,1.59H42.07a1.59,1.59,0,0,1-1.59-1.59V24.75a1.6,1.6,0,0,1,1.59-1.6H52.4a1.6,1.6,0,0,1,1.6,1.6Z"/><path d="M9.6,37H28.48a3,3,0,1,0,0-6h-18V7a1,1,0,0,1,1-1h37a1,1,0,0,1,1,1v4.15a3,3,0,0,0,6,0V7a7,7,0,0,0-7-7H11.52a7,7,0,0,0-7,7V33.49L.46,44.32a7.28,7.28,0,0,0,6.82,9.83h21.2a3,3,0,0,0,0-6H7.28a1.28,1.28,0,0,1-1.2-1.73Z"/></g></g></g></svg>