<svg xmlns="http://www.w3.org/2000/svg" viewBox="0 0 59 38.23"><title>pickup truck</title><g id="Layer_2" data-name="Layer 2"><g id="Layer_1-2" data-name="Layer 1"><path id="pickup_truck" data-name="pickup truck" d="M59,15.13A1.21,1.21,0,0,0,58.9,15a2.76,2.76,0,0,0-.08-.27l-.09-.18-.12-.23a1.09,1.09,0,0,0-.13-.17L58.39,14,47,.86A2.47,2.47,0,0,0,45.1,0H34.7a2.5,2.5,0,0,0-2.5,2.5V13.1H2.5A2.5,2.5,0,0,0,0,15.6V30.73a2.5,2.5,0,0,0,2.5,2.5H6.93a7.48,7.48,0,0,0,14.12,0H38.54a7.48,7.48,0,0,0,14.12,0H56.5a2.5,2.5,0,0,0,2.5-2.5V15.6A2.42,2.42,0,0,0,59,15.13ZM37.2,5H44l7,8.1H37.2ZM14,33.23a2.5,2.5,0,1,1,2.5-2.5A2.51,2.51,0,0,1,14,33.23Zm31.61,0a2.5,2.5,0,1,1,2.5-2.5A2.51,2.51,0,0,1,45.6,33.23Z"/></g></g></svg>