<svg xmlns="http://www.w3.org/2000/svg" viewBox="0 0 59 59"><title>plug</title><g id="Layer_2" data-name="Layer 2"><g id="Layer_1-2" data-name="Layer 1"><g id="plug"><path d="M58.28.73a2.53,2.53,0,0,0-3.55,0L46.59,8.87,45.52,7.79a7.87,7.87,0,0,0-11.14,0L29.18,13,28.11,11.9a2.5,2.5,0,0,0-3.54,3.54l19,19a2.48,2.48,0,0,0,1.77.74,2.51,2.51,0,0,0,1.75-4.27L46,29.82l5.19-5.2a7.83,7.83,0,0,0,0-11.13L50.13,12.4l8.15-8.13A2.54,2.54,0,0,0,58.28.73ZM44.9,21.47a2.47,2.47,0,0,1-1.77.73,2.51,2.51,0,0,1-1.77-.73l-3.82-3.83a2.5,2.5,0,0,1,3.53-3.54l3.83,3.84A2.49,2.49,0,0,1,44.9,21.47Z"/><path d="M36.65,30.58a2.5,2.5,0,0,0-3.54,0l-5.82,5.83-4.7-4.69,5.83-5.83a2.5,2.5,0,0,0-3.54-3.54l-5.82,5.83-3.62-3.61A2.5,2.5,0,1,0,11.9,28.1L13,29.18,7.8,34.38a7.83,7.83,0,0,0,0,11.13l1.08,1.08L.73,54.73a2.52,2.52,0,0,0,0,3.54,2.52,2.52,0,0,0,3.55,0l8.12-8.14,1.08,1.08a7.88,7.88,0,0,0,11.15,0L29.82,46,30.9,47.1a2.5,2.5,0,0,0,3.53-3.54L30.83,40l5.82-5.83A2.5,2.5,0,0,0,36.65,30.58ZM21.47,44.9a2.51,2.51,0,0,1-3.54,0l-3.82-3.84a2.49,2.49,0,0,1,3.52-3.53l3.84,3.83A2.5,2.5,0,0,1,21.47,44.9Z"/></g></g></g></svg>