<svg xmlns="http://www.w3.org/2000/svg" viewBox="0 0 59 59"><title>points</title><g id="Layer_2" data-name="Layer 2"><g id="Layer_1-2" data-name="Layer 1"><g id="points"><path d="M48.5,0h-38A10.51,10.51,0,0,0,0,10.5v38A10.51,10.51,0,0,0,10.5,59h38A10.51,10.51,0,0,0,59,48.5v-38A10.51,10.51,0,0,0,48.5,0ZM32.29,37.3a6,6,0,0,1-5.07-2.5S26,39.42,25.76,40.32A21.16,21.16,0,0,1,22,46.9a.27.27,0,0,1-.22.1.25.25,0,0,1-.27-.22,21.78,21.78,0,0,1,.06-7.63l2.67-11A7.53,7.53,0,0,1,23.58,25c0-3,1.79-5.2,4-5.2a2.72,2.72,0,0,1,2.8,3c0,1.84-1.21,4.59-1.83,7.14a3.14,3.14,0,0,0,3.28,3.87c3.93,0,6.58-4.89,6.58-10.69,0-4.4-3.07-7.7-8.64-7.7-6.3,0-10.23,4.54-10.23,9.63A5.69,5.69,0,0,0,20.92,29c.39.44.44.61.3,1.11s-.33,1.27-.43,1.62a.7.7,0,0,1-.68.58.94.94,0,0,1-.36-.08c-2.9-1.15-4.25-4.22-4.25-7.68,0-5.71,5-12.56,14.84-12.56,7.94,0,13.16,5.56,13.16,11.53C43.5,31.41,39,37.3,32.29,37.3Z"/></g></g></g></svg>