<svg xmlns="http://www.w3.org/2000/svg" viewBox="0 0 60 46.5"><title>position right</title><g id="Layer_2" data-name="Layer 2"><g id="Layer_1-2" data-name="Layer 1"><g id="position_right" data-name="position right"><path d="M57,46.5H3a3,3,0,0,1,0-6H57a3,3,0,0,1,0,6Z"/><path d="M19,19.5H3a3,3,0,0,1,0-6H19a3,3,0,0,1,0,6Z"/><path d="M19,33H3a3,3,0,0,1,0-6H19a3,3,0,0,1,0,6Z"/><path d="M19,6H3A3,3,0,0,1,3,0H19a3,3,0,0,1,0,6Z"/><path d="M52.85.5H33.15A6.65,6.65,0,0,0,26.5,7.15v19.7a6.65,6.65,0,0,0,6.65,6.65h19.7a6.65,6.65,0,0,0,6.65-6.65V7.15A6.65,6.65,0,0,0,52.85.5Zm-19.7,5h19.7A1.65,1.65,0,0,1,54.5,7.15v8.43l-3.21-3.21a2.56,2.56,0,0,0-3.53,0l-5.83,5.82-2.52-2.52a2.5,2.5,0,0,0-3.53,0L31.5,20.05V7.15A1.65,1.65,0,0,1,33.15,5.5Z"/></g></g></g></svg>