<svg xmlns="http://www.w3.org/2000/svg" viewBox="0 0 37.58 57"><title>prayer-1</title><g id="Layer_2" data-name="Layer 2"><g id="Layer_1-2" data-name="Layer 1"><path id="prayer-1" d="M34.83,45,21.5,36.63l9.84-6.57a1.5,1.5,0,0,0,.47-2l-.12-.21,2.44-1.35A2.5,2.5,0,0,0,35.4,24l-.26-2a2.5,2.5,0,1,0-5,.62l.05.37-1,.57-.65-1.12a1.5,1.5,0,0,0-2-.58l-7.42,3.85-.36-.88a14.56,14.56,0,0,0-4.39-6v-3h.74A3.86,3.86,0,0,0,19,11.93V7A7,7,0,0,0,5,7V8.38a7,7,0,0,0,2.12,5l1.4,1.37a1.42,1.42,0,0,0-.89-.05,1.53,1.53,0,0,0-1,.79l-2.91,6a13.22,13.22,0,0,0-1.33,5.76V42.65A7.34,7.34,0,0,0,9.76,50h.42L6,54H1.5a1.5,1.5,0,0,0,0,3h29a5.84,5.84,0,0,0,4.15-1.72l1.17-1.17a5.88,5.88,0,0,0-1-9.13Z"/></g></g></svg>