<svg xmlns="http://www.w3.org/2000/svg" viewBox="0 0 40.1 59"><title>prayer rug</title><g id="Layer_2" data-name="Layer 2"><g id="Layer_1-2" data-name="Layer 1"><g id="prayer_rug" data-name="prayer rug"><path d="M37.6,0a2.49,2.49,0,0,0-2.5,2.5V5.4h-7V2.5a2.5,2.5,0,0,0-5,0V5.4H17V2.5a2.5,2.5,0,0,0-5,0V5.4H5V2.5a2.5,2.5,0,0,0-5,0v54a2.5,2.5,0,0,0,5,0V53.6h7v2.9a2.5,2.5,0,0,0,5,0V53.6h6.1v2.9a2.5,2.5,0,0,0,5,0V53.6h7v2.9a2.5,2.5,0,0,0,5,0V2.5A2.5,2.5,0,0,0,37.6,0ZM32,38.2a2.5,2.5,0,0,1-2.5,2.5A2.31,2.31,0,0,0,27.19,43a2.49,2.49,0,0,1-2.5,2.5H15.4A2.49,2.49,0,0,1,12.9,43a2.31,2.31,0,0,0-2.3-2.3,2.49,2.49,0,0,1-2.5-2.5V20.8a2.49,2.49,0,0,1,2.5-2.5A2.31,2.31,0,0,0,12.9,16a2.49,2.49,0,0,1,2.5-2.5h9.29a2.49,2.49,0,0,1,2.5,2.5,2.31,2.31,0,0,0,2.31,2.3A2.5,2.5,0,0,1,32,20.8ZM22.64,18.5H17.45a7.32,7.32,0,0,1-4.35,4.36V36.14a7.32,7.32,0,0,1,4.35,4.36h5.19A7.31,7.31,0,0,1,27,36.14V22.86A7.31,7.31,0,0,1,22.64,18.5Z"/></g></g></g></svg>