<svg xmlns="http://www.w3.org/2000/svg" viewBox="0 0 56.5 56.49"><title>prayer-2</title><g id="Layer_2" data-name="Layer 2"><g id="Layer_1-2" data-name="Layer 1"><g id="prayer-2"><path d="M46.32,40a4.45,4.45,0,0,0-5.92-.32,4.43,4.43,0,0,0-.33-5.89,4.18,4.18,0,0,0-.57-.47A4.43,4.43,0,1,0,41,24.84a4.43,4.43,0,1,0-3.23-8.13,4.34,4.34,0,0,0,.58-.48,4.43,4.43,0,0,0-6-6.5,4.44,4.44,0,0,0-6.87-5.56,4.59,4.59,0,0,0-.87,1.26A4.42,4.42,0,0,0,23.44,1.3a4.44,4.44,0,0,0-7.58,3,4.37,4.37,0,0,0-1.19-2.21A4.47,4.47,0,1,0,16,5.38a4.37,4.37,0,0,0,1.19,2.21,4.46,4.46,0,0,0,6.29,0,4.55,4.55,0,0,0,.86-1.26,4.42,4.42,0,0,0,7.2,4.35,4.43,4.43,0,0,0,6,6.21,5.27,5.27,0,0,0-.58.48,4.43,4.43,0,0,0,3.42,7.56,4.32,4.32,0,0,0-2.19,1.19,4.45,4.45,0,0,0,0,6.28,4.26,4.26,0,0,0,.58.47,4.43,4.43,0,0,0-5.83,5.89,4.76,4.76,0,0,0-.5-.61,4.45,4.45,0,0,0-6.28,0,4.32,4.32,0,0,0-1.19,2.19,4.43,4.43,0,0,0-7.56-3.42,5.27,5.27,0,0,0-.48.58,4.43,4.43,0,0,0-6.21-6,4.42,4.42,0,0,0-4.35-7.2,4.55,4.55,0,0,0,1.26-.86A4.44,4.44,0,0,0,5.36,16a4.38,4.38,0,0,0,3-1.29,4.45,4.45,0,1,0-4.06,1.2,4.4,4.4,0,0,0-3,1.29,4.46,4.46,0,0,0,0,6.29,4.42,4.42,0,0,0,4.13,1.17,4.59,4.59,0,0,0-1.26.87,4.44,4.44,0,0,0,5.56,6.87,4.43,4.43,0,0,0,6.5,6,4.34,4.34,0,0,0,.48-.58A4.43,4.43,0,1,0,24.84,41a4.4,4.4,0,0,0,1.28,3.42,4.43,4.43,0,0,0,7.17-5,4.76,4.76,0,0,0,.5.61,4.44,4.44,0,0,0,5.89.32,4.46,4.46,0,1,0,6.64-.4Z"/><path d="M55.77,52.23l-4.54-4.54a2.5,2.5,0,1,0-3.54,3.53l4.54,4.54a2.5,2.5,0,0,0,3.54-3.53Z"/></g></g></g></svg>