<svg xmlns="http://www.w3.org/2000/svg" viewBox="0 0 58.88 59"><title>print</title><g id="Layer_2" data-name="Layer 2"><g id="Layer_1-2" data-name="Layer 1"><g id="print"><path d="M50.4,11H48.91V2.5A2.5,2.5,0,0,0,46.41,0H12.48A2.5,2.5,0,0,0,10,2.5V11H8.49A8.49,8.49,0,0,0,0,19.46v22A8.49,8.49,0,0,0,8.49,49.9H10v6.6a2.5,2.5,0,0,0,2.5,2.5H46.41a2.5,2.5,0,0,0,2.5-2.5V49.9H50.4a8.48,8.48,0,0,0,8.48-8.48v-22A8.48,8.48,0,0,0,50.4,11ZM15,5H43.91v6H15ZM43.91,54H15V41H43.91Zm2.5-27.39h-4a2.5,2.5,0,0,1,0-5h4a2.5,2.5,0,0,1,0,5Z"/><path d="M37.42,45h-16a2.5,2.5,0,0,0,0,5h16a2.5,2.5,0,0,0,0-5Z"/></g></g></g></svg>