<svg xmlns="http://www.w3.org/2000/svg" viewBox="0 0 47 59"><title>quran</title><g id="Layer_2" data-name="Layer 2"><g id="Layer_1-2" data-name="Layer 1"><g id="quran"><path d="M29.75,34A2.51,2.51,0,0,1,29,32.18V30h-2.2a2.51,2.51,0,0,1-1.77-.73L23.5,27.7,22,29.25a2.51,2.51,0,0,1-1.77.73H18v2.2A2.51,2.51,0,0,1,17.25,34L15.7,35.5l1.55,1.55A2.51,2.51,0,0,1,18,38.82V41h2.2a2.51,2.51,0,0,1,1.77.73L23.5,43.3l1.55-1.55A2.51,2.51,0,0,1,26.82,41H29v-2.2a2.51,2.51,0,0,1,.73-1.77L31.3,35.5Zm0,0A2.51,2.51,0,0,1,29,32.18V30h-2.2a2.51,2.51,0,0,1-1.77-.73L23.5,27.7,22,29.25a2.51,2.51,0,0,1-1.77.73H18v2.2A2.51,2.51,0,0,1,17.25,34L15.7,35.5l1.55,1.55A2.51,2.51,0,0,1,18,38.82V41h2.2a2.51,2.51,0,0,1,1.77.73L23.5,43.3l1.55-1.55A2.51,2.51,0,0,1,26.82,41H29v-2.2a2.51,2.51,0,0,1,.73-1.77L31.3,35.5ZM38.5,0H8.5A2.5,2.5,0,0,0,6,2.5V12H2.5A2.5,2.5,0,0,0,0,14.5v42A2.5,2.5,0,0,0,2.5,59h34C42.68,59,47,53.86,47,46.5V8.5A8.51,8.51,0,0,0,38.5,0ZM36,37.84l-2,2V42.7A3.32,3.32,0,0,1,30.7,46H27.86l-2,2a3.31,3.31,0,0,1-4.68,0l-2-2H16.3A3.32,3.32,0,0,1,13,42.7V39.86l-2-2a3.31,3.31,0,0,1,0-4.68l2-2V28.3A3.32,3.32,0,0,1,16.3,25h2.84l2-2a3.31,3.31,0,0,1,4.68,0l2,2H30.7A3.32,3.32,0,0,1,34,28.3v2.84l2,2a3.31,3.31,0,0,1,0,4.68ZM38.5,12H11V5H38.5a3.5,3.5,0,0,1,0,7ZM29,32.18V30h-2.2a2.51,2.51,0,0,1-1.77-.73L23.5,27.7,22,29.25a2.51,2.51,0,0,1-1.77.73H18v2.2A2.51,2.51,0,0,1,17.25,34L15.7,35.5l1.55,1.55A2.51,2.51,0,0,1,18,38.82V41h2.2a2.51,2.51,0,0,1,1.77.73L23.5,43.3l1.55-1.55A2.51,2.51,0,0,1,26.82,41H29v-2.2a2.51,2.51,0,0,1,.73-1.77L31.3,35.5,29.75,34A2.51,2.51,0,0,1,29,32.18ZM29.75,34A2.51,2.51,0,0,1,29,32.18V30h-2.2a2.51,2.51,0,0,1-1.77-.73L23.5,27.7,22,29.25a2.51,2.51,0,0,1-1.77.73H18v2.2A2.51,2.51,0,0,1,17.25,34L15.7,35.5l1.55,1.55A2.51,2.51,0,0,1,18,38.82V41h2.2a2.51,2.51,0,0,1,1.77.73L23.5,43.3l1.55-1.55A2.51,2.51,0,0,1,26.82,41H29v-2.2a2.51,2.51,0,0,1,.73-1.77L31.3,35.5Zm0,0A2.51,2.51,0,0,1,29,32.18V30h-2.2a2.51,2.51,0,0,1-1.77-.73L23.5,27.7,22,29.25a2.51,2.51,0,0,1-1.77.73H18v2.2A2.51,2.51,0,0,1,17.25,34L15.7,35.5l1.55,1.55A2.51,2.51,0,0,1,18,38.82V41h2.2a2.51,2.51,0,0,1,1.77.73L23.5,43.3l1.55-1.55A2.51,2.51,0,0,1,26.82,41H29v-2.2a2.51,2.51,0,0,1,.73-1.77L31.3,35.5Z"/></g></g></g></svg>