<svg xmlns="http://www.w3.org/2000/svg" viewBox="0 0 59 58.91"><title>radio</title><g id="Layer_2" data-name="Layer 2"><g id="Layer_1-2" data-name="Layer 1"><g id="radio"><circle cx="40.2" cy="38.41" r="4.5"/><path d="M48.5,17.91H23.81L57.41,4.83A2.5,2.5,0,1,0,55.59.17L10,17.94A10.5,10.5,0,0,0,0,28.41v20a10.51,10.51,0,0,0,10.5,10.5h38A10.51,10.51,0,0,0,59,48.41v-20A10.51,10.51,0,0,0,48.5,17.91Zm-23.45,28h-14a2.5,2.5,0,1,1,0-5h14a2.5,2.5,0,0,1,0,5Zm0-10h-14a2.5,2.5,0,0,1,0-5h14a2.5,2.5,0,1,1,0,5Zm15.15,12a9.5,9.5,0,1,1,9.5-9.5A9.52,9.52,0,0,1,40.2,47.91Z"/></g></g></g></svg>