<svg xmlns="http://www.w3.org/2000/svg" viewBox="0 0 58.21 59"><title>real estate</title><g id="Layer_2" data-name="Layer 2"><g id="Layer_1-2" data-name="Layer 1"><path id="real_estate" data-name="real estate" d="M55.71,32.68H48.32v-4.2a2.5,2.5,0,0,0-2.5-2.5H37V17.67a2.5,2.5,0,0,0-2.5-2.5h-3.4V9.26a2.5,2.5,0,0,0-2.5-2.5H21V2.5a2.5,2.5,0,0,0-5,0V6.76H8.41a2.5,2.5,0,0,0-2.5,2.5v5.91H2.5A2.5,2.5,0,0,0,0,17.67V56.5A2.49,2.49,0,0,0,2.5,59H55.71a2.49,2.49,0,0,0,2.5-2.5V35.18A2.5,2.5,0,0,0,55.71,32.68ZM22,54H15V43.51a3.5,3.5,0,0,1,7,0Zm2-18.7H13a2.5,2.5,0,0,1,0-5H24a2.5,2.5,0,1,1,0,5Zm0-8.5H13a2.5,2.5,0,0,1,0-5H24a2.5,2.5,0,0,1,0,5ZM47.25,49.19a2.5,2.5,0,0,1-5,0v-6a2.5,2.5,0,0,1,5,0Z"/></g></g></svg>