<svg xmlns="http://www.w3.org/2000/svg" viewBox="0 0 53 59"><title>receipt</title><g id="Layer_2" data-name="Layer 2"><g id="Layer_1-2" data-name="Layer 1"><g id="receipt"><path d="M42.5,0h-32A10.51,10.51,0,0,0,0,10.5v46a2.5,2.5,0,0,0,1.55,2.31,2.48,2.48,0,0,0,2.72-.55L10.5,52l6.24,6.23a2.49,2.49,0,0,0,3.53,0L26.5,52l6.24,6.23a2.49,2.49,0,0,0,3.53,0L42.5,52l6.24,6.23a2.49,2.49,0,0,0,1.77.74,2.44,2.44,0,0,0,1-.19A2.49,2.49,0,0,0,53,56.5v-46A10.51,10.51,0,0,0,42.5,0Zm-11,35.33h-16a2.5,2.5,0,0,1,0-5h16a2.5,2.5,0,0,1,0,5Zm7-12.67h-24a2.5,2.5,0,1,1,0-5h24a2.5,2.5,0,0,1,0,5Z"/></g></g></g></svg>