<svg xmlns="http://www.w3.org/2000/svg" viewBox="0 0 37 59"><title>remote</title><g id="Layer_2" data-name="Layer 2"><g id="Layer_1-2" data-name="Layer 1"><g id="remote"><circle cx="18.5" cy="33" r="4.5"/><path d="M26.5,0h-16A10.51,10.51,0,0,0,0,10.5v38A10.51,10.51,0,0,0,10.5,59h16A10.51,10.51,0,0,0,37,48.5v-38A10.51,10.51,0,0,0,26.5,0Zm-16,9.5h4a2.5,2.5,0,0,1,0,5h-4a2.5,2.5,0,0,1,0-5Zm0,7h4a2.5,2.5,0,0,1,0,5h-4a2.5,2.5,0,0,1,0-5Zm4,33h-4a2.5,2.5,0,0,1,0-5h4a2.5,2.5,0,0,1,0,5ZM9,33a9.5,9.5,0,1,1,9.5,9.5A9.51,9.51,0,0,1,9,33ZM26.5,49.5h-4a2.5,2.5,0,0,1,0-5h4a2.5,2.5,0,0,1,0,5Zm0-28h-4a2.5,2.5,0,0,1,0-5h4a2.5,2.5,0,0,1,0,5Zm0-7h-4a2.5,2.5,0,0,1,0-5h4a2.5,2.5,0,0,1,0,5Z"/></g></g></g></svg>