<svg xmlns="http://www.w3.org/2000/svg" viewBox="0 0 60 60"><title>repeat</title><g id="Layer_2" data-name="Layer 2"><g id="Layer_1-2" data-name="Layer 1"><g id="repeat"><path d="M38,8H29.24l2.88-2.88A3,3,0,1,0,27.88.88l-8,8a3,3,0,0,0,0,4.24l8,8a3,3,0,0,0,4.24,0,3,3,0,0,0,0-4.24L29.24,14H38A16,16,0,0,1,48.5,42.07a3,3,0,1,0,3.94,4.53A22,22,0,0,0,38,8Z"/><path d="M32.12,38.88a3,3,0,0,0-4.24,4.24L30.76,46H22A16,16,0,0,1,11.5,17.93,3,3,0,0,0,7.56,13.4,22,22,0,0,0,22,52h8.76l-2.88,2.88a3,3,0,0,0,0,4.24,3,3,0,0,0,4.24,0l8-8a3,3,0,0,0,0-4.24Z"/></g></g></g></svg>