<svg xmlns="http://www.w3.org/2000/svg" viewBox="0 0 51.71 59"><title>replay 10</title><g id="Layer_2" data-name="Layer 2"><g id="Layer_1-2" data-name="Layer 1"><g id="replay_10" data-name="replay 10"><path d="M44.15,14.9A25.91,25.91,0,0,0,27.88,7.43L30.27,5A3,3,0,1,0,26.1.86L18,8.94,18,9l-.23.28c0,.06-.09.12-.13.19a1.51,1.51,0,0,0-.15.28,2.4,2.4,0,0,0-.11.23c0,.1-.06.2-.09.3a1.83,1.83,0,0,0-.06.25c0,.1,0,.2,0,.3a2.44,2.44,0,0,0,0,.27c0,.09,0,.18,0,.28s0,.2,0,.31,0,.05,0,.08a.76.76,0,0,0,.06.16,1.63,1.63,0,0,0,.11.31,2,2,0,0,0,.13.25l.15.24a2.43,2.43,0,0,0,.2.25l.12.14,8.07,8.07a3,3,0,0,0,4.17,0,3,3,0,0,0,0-4.17l-3.74-3.75A19.93,19.93,0,1,1,9,22.56a3,3,0,1,0-5-3.14A25.84,25.84,0,1,0,44.15,14.9Z"/><path d="M18.87,43a2,2,0,0,1-2-2V32L16,33a2,2,0,0,1-2.78-2.79l4.28-4.28a2,2,0,0,1,3.36,1.39V41A2,2,0,0,1,18.87,43Z"/><path d="M32,43c-3.93,0-7.13-4-7.13-8.85S28.08,25.3,32,25.3s7.13,4,7.13,8.86S36,43,32,43Zm0-13.77c-1.73,0-3.19,2.25-3.19,4.92s1.46,4.91,3.19,4.91,3.2-2.25,3.2-4.91S33.75,29.24,32,29.24Z"/></g></g></g></svg>