<svg xmlns="http://www.w3.org/2000/svg" viewBox="0 0 51.72 59"><title>replay 5</title><g id="Layer_2" data-name="Layer 2"><g id="Layer_1-2" data-name="Layer 1"><g id="replay_5" data-name="replay 5"><path d="M44.15,14.9A25.91,25.91,0,0,0,27.88,7.43L30.27,5A3,3,0,1,0,26.1.86L18,8.93,18,9a2.62,2.62,0,0,0-.22.25c0,.07-.1.13-.14.2s-.1.19-.15.28a2.29,2.29,0,0,0-.1.23,2.81,2.81,0,0,0-.1.31l-.06.24a3.16,3.16,0,0,0,0,.32c0,.06,0,.13,0,.19s0,.05,0,.07a1.53,1.53,0,0,0,0,.3c0,.09,0,.19,0,.29a.22.22,0,0,1,0,.08c0,.07.05.12.07.19s.07.19.11.28a2.15,2.15,0,0,0,.14.26c0,.08.09.16.14.24l.2.24.12.14,8.07,8.07a3,3,0,0,0,4.17,0,3,3,0,0,0,0-4.17l-3.74-3.75A20,20,0,0,1,40,19.08a19.93,19.93,0,0,1,0,28.19A19.94,19.94,0,0,1,9,22.56a3,3,0,1,0-5-3.14,25.84,25.84,0,0,0,40.15,32,25.83,25.83,0,0,0,0-36.54Z"/><path d="M25.64,45.89a7,7,0,0,1-6.28-4,2,2,0,1,1,3.55-1.7,3,3,0,1,0,2.73-4.33H22.87a2,2,0,0,1-2-2V28.19a2,2,0,0,1,2-2H30a2,2,0,0,1,0,3.94H24.84V32h.8a7,7,0,1,1,0,13.92Z"/></g></g></g></svg>