<svg xmlns="http://www.w3.org/2000/svg" viewBox="0 0 58.98 53.91"><title>report</title><g id="Layer_2" data-name="Layer 2"><g id="Layer_1-2" data-name="Layer 1"><g id="report"><path d="M57.58,21.7,48.08,5.25A10.52,10.52,0,0,0,39,0H20a10.54,10.54,0,0,0-9.1,5.25L1.4,21.7a10.55,10.55,0,0,0,0,10.51l9.49,16.45A10.55,10.55,0,0,0,20,53.91H39a10.52,10.52,0,0,0,9.09-5.25l9.5-16.45A10.55,10.55,0,0,0,57.58,21.7ZM32,39a2.5,2.5,0,0,1-5,0V37.78a2.5,2.5,0,0,1,5,0Zm0-10a2.5,2.5,0,0,1-5,0V15a2.5,2.5,0,0,1,5,0Z"/></g></g></g></svg>