<svg xmlns="http://www.w3.org/2000/svg" viewBox="0 0 55.46 59.01"><title>restaurant menu</title><g id="Layer_2" data-name="Layer 2"><g id="Layer_1-2" data-name="Layer 1"><path id="restaurant_menu" data-name="restaurant menu" d="M38.45,27.57q.44,0,.87,0a9.71,9.71,0,0,0,6.62-3.45l.85-1h0l8.07-9.62A2.5,2.5,0,1,0,51,10.23l-6.47,7.71-1.73-1.45,6.47-7.71a2.5,2.5,0,0,0-3.83-3.21L39,13.28l-1.73-1.46,6.47-7.71A2.5,2.5,0,1,0,39.92.9L31,11.54a9.77,9.77,0,0,0-.5,11.89L27.3,27.24l-6.45-7.69C23.09,16.15,23.16,11,19,6.07,14.39.57,6.16-1.73,2.38,1.44.57,3-.27,5.82.08,9.29a17.35,17.35,0,0,0,4,9.32,13,13,0,0,0,7.78,4.8,9.7,9.7,0,0,0,1.51.12A9.14,9.14,0,0,0,17,22.77l7,8.36L4.08,54.9a2.5,2.5,0,1,0,3.83,3.21L27.3,35,46.68,58.11a2.49,2.49,0,0,0,1.91.9,2.51,2.51,0,0,0,1.92-4.11L30.56,31.13l3.76-4.48A9.59,9.59,0,0,0,38.45,27.57Z"/></g></g></svg>