<svg xmlns="http://www.w3.org/2000/svg" viewBox="0 0 49.72 59"><title>restaurant</title><g id="Layer_2" data-name="Layer 2"><g id="Layer_1-2" data-name="Layer 1"><g id="restaurant"><path d="M17,0a2.5,2.5,0,0,0-2.5,2.5V12.56H12.26V2.5a2.5,2.5,0,0,0-5,0V12.56H5V2.5a2.5,2.5,0,0,0-5,0V16.39a9.77,9.77,0,0,0,7.26,9.42V56.5a2.5,2.5,0,0,0,5,0V25.81a9.77,9.77,0,0,0,7.26-9.42V2.5A2.5,2.5,0,0,0,17,0Z"/><path d="M34.93,0a2.5,2.5,0,0,0-2.5,2.5V35.27a2.5,2.5,0,0,0,2.5,2.5V54.92a3.59,3.59,0,0,0,7.17,0V37.77h5.12a2.5,2.5,0,0,0,2.5-2.5V14.78A14.8,14.8,0,0,0,34.93,0Z"/></g></g></g></svg>