<svg xmlns="http://www.w3.org/2000/svg" viewBox="0 0 54 54"><title>rice</title><g id="Layer_2" data-name="Layer 2"><g id="Layer_1-2" data-name="Layer 1"><g id="rice"><path d="M50.32,15.88a15.16,15.16,0,0,0,3.17-13.8A2.22,2.22,0,0,0,51.92.51a15.17,15.17,0,0,0-13.8,3.17A19,19,0,0,1,41,13,19,19,0,0,1,50.32,15.88Z"/><path d="M28.44,25.56A19,19,0,0,1,43,33.36a14.62,14.62,0,0,0,9.82-7,1.71,1.71,0,0,0,0-1.67,14.61,14.61,0,0,0-12.6-7.28,14.39,14.39,0,0,0-4.35.68,14.39,14.39,0,0,0,.68-4.35,14.61,14.61,0,0,0-7.28-12.6,1.66,1.66,0,0,0-1.67,0,14.6,14.6,0,0,0-7,9.82A19,19,0,0,1,28.44,25.56Z"/><path d="M40.29,38.92a1.66,1.66,0,0,0,0-1.67A14.6,14.6,0,0,0,27.69,30a14.8,14.8,0,0,0-4.35.67A14.37,14.37,0,0,0,24,26.31a14.6,14.6,0,0,0-7.27-12.6,1.66,1.66,0,0,0-1.67,0,14.56,14.56,0,0,0-3,22.9,14,14,0,0,0,1.16,1L.65,50.21a2.22,2.22,0,0,0,3.14,3.14L16.38,40.76a13.84,13.84,0,0,0,1,1.15,14.55,14.55,0,0,0,22.9-3Z"/></g></g></g></svg>