<svg xmlns="http://www.w3.org/2000/svg" viewBox="0 0 59 59"><title>ringtone</title><g id="Layer_2" data-name="Layer 2"><g id="Layer_1-2" data-name="Layer 1"><path id="ringtone" d="M56.05,0H18.68a3,3,0,0,0-2.95,3V38.56a10.66,10.66,0,0,0-4.91-1.19A10.82,10.82,0,1,0,21.63,48.18V16.72H53.1v12A10.81,10.81,0,1,0,59,38.35V3A3,3,0,0,0,56.05,0ZM10.82,53.1a4.92,4.92,0,1,1,4.91-4.92A4.93,4.93,0,0,1,10.82,53.1ZM21.63,10.82V5.9H53.1v4.92ZM48.18,43.27a4.92,4.92,0,1,1,4.92-4.92A4.92,4.92,0,0,1,48.18,43.27Z"/></g></g></svg>