<svg xmlns="http://www.w3.org/2000/svg" viewBox="0 0 59 58.7"><title>router</title><g id="Layer_2" data-name="Layer 2"><g id="Layer_1-2" data-name="Layer 1"><g id="router"><path d="M15.6,13.89a8.62,8.62,0,0,1,8.61,8.61,2.5,2.5,0,0,0,5,0A13.63,13.63,0,0,0,15.6,8.89a2.5,2.5,0,0,0,0,5Z"/><path d="M15.6,5A17.52,17.52,0,0,1,33.1,22.5a2.5,2.5,0,0,0,5,0A22.52,22.52,0,0,0,15.6,0a2.5,2.5,0,0,0,0,5Z"/><path d="M50.5,35.7H18.1V26.81a5,5,0,1,0-5,0V35.7H8.5C3.81,35.7,0,39.24,0,43.6v7.2c0,4.36,3.81,7.9,8.5,7.9h42c4.69,0,8.5-3.54,8.5-7.9V43.6C59,39.24,55.19,35.7,50.5,35.7Zm-30,14h-8a2.5,2.5,0,0,1,0-5h8a2.5,2.5,0,0,1,0,5Zm9,0h-1a2.5,2.5,0,0,1,0-5h1a2.5,2.5,0,0,1,0,5Zm8.5,0H37a2.5,2.5,0,0,1,0-5h1a2.5,2.5,0,0,1,0,5Zm8.5,0h-1a2.5,2.5,0,0,1,0-5h1a2.5,2.5,0,0,1,0,5Z"/></g></g></g></svg>