<svg xmlns="http://www.w3.org/2000/svg" viewBox="0 0 57.77 59"><title>school</title><g id="Layer_2" data-name="Layer 2"><g id="Layer_1-2" data-name="Layer 1"><path id="school" d="M57.31,30.59,51.37,22.3a2.5,2.5,0,0,0-2-1.05H35l-3.62-4.91V13.47h11.4a2.5,2.5,0,0,0,2-4L42.73,6.74,44.78,4a2.5,2.5,0,0,0-2-4H28.89a2.49,2.49,0,0,0-2.5,2.5V16.34l-3.63,4.91H8.44a2.5,2.5,0,0,0-2,1.05L.47,30.59a2.5,2.5,0,0,0,2,4H3.91v22A2.5,2.5,0,0,0,6.41,59h45a2.5,2.5,0,0,0,2.5-2.5v-22h1.41a2.5,2.5,0,0,0,2.23-1.36A2.54,2.54,0,0,0,57.31,30.59Zm-40.67-1H7.36l2.36-3.3h9.35ZM34.35,53H23.42V45.36a5.47,5.47,0,1,1,10.93,0Zm6.78-23.45-2.43-3.3h9.35l2.36,3.3Z"/></g></g></svg>