<svg xmlns="http://www.w3.org/2000/svg" viewBox="0 0 58.99 42.77"><title>scissors</title><g id="Layer_2" data-name="Layer 2"><g id="Layer_1-2" data-name="Layer 1"><path id="scissors" d="M59,38.37a1,1,0,0,0,0-.23,1.22,1.22,0,0,0-.06-.26.61.61,0,0,0,0-.11,1,1,0,0,0,0-.1c0-.08-.07-.16-.12-.24a1.28,1.28,0,0,0-.11-.2l-.15-.2c0-.06-.1-.13-.16-.19l-.17-.15-.22-.16-.08-.07L33.23,21.38,57.81,6.3l.1-.07.19-.14c.06-.06.13-.11.18-.17l.16-.18.15-.2a2,2,0,0,0,.11-.2c0-.08.08-.16.12-.24a1,1,0,0,1,0-.1.53.53,0,0,0,0-.12A1.14,1.14,0,0,0,59,4.63a1,1,0,0,0,0-.24,1.93,1.93,0,0,0,0-.24,1.93,1.93,0,0,0,0-.24,2,2,0,0,0,0-.24.86.86,0,0,0-.06-.23,1.55,1.55,0,0,0-.08-.23A1.63,1.63,0,0,0,58.69,3a.39.39,0,0,0-.06-.11l-.06-.09-.16-.21a1.29,1.29,0,0,0-.16-.17l-.18-.16a1.3,1.3,0,0,0-.2-.15L57.66,2l-.23-.11-.1-.05C49.43-.95,42.21-.55,36.46,3c-4.86,3-8.19,7.92-9.78,14.38l-7.61-4.67a9.73,9.73,0,1,0-9.34,7A9.86,9.86,0,0,0,12,19.38,9.75,9.75,0,0,0,16.46,17l7.21,4.42-7.21,4.43a9.74,9.74,0,1,0-9,16.53,9.86,9.86,0,0,0,2.28.27,9.74,9.74,0,0,0,9.31-12.53l7.61-4.67c1.59,6.46,4.92,11.4,9.78,14.38a20.69,20.69,0,0,0,10.95,3A30.15,30.15,0,0,0,57.33,41c.09,0,.17-.08.26-.12l.15-.07a2.56,2.56,0,0,0,.46-.33l.07-.08a2.72,2.72,0,0,0,.31-.38s0,0,.05-.07a.39.39,0,0,0,.06-.11,2.4,2.4,0,0,0,.11-.23,2.09,2.09,0,0,0,.08-.23.86.86,0,0,0,.06-.23,2,2,0,0,0,0-.24,1.93,1.93,0,0,0,0-.24A2.18,2.18,0,0,0,59,38.37ZM10.85,14.52a4.74,4.74,0,1,1,2.94-2.14h0A4.75,4.75,0,0,1,10.85,14.52ZM12.22,36.9a4.65,4.65,0,0,1-3.58.57,4.75,4.75,0,1,1,3.58-.57Z"/></g></g></svg>