<svg xmlns="http://www.w3.org/2000/svg" viewBox="0 0 57 57"><title>screwdriver</title><g id="Layer_2" data-name="Layer 2"><g id="Layer_1-2" data-name="Layer 1"><path id="screwdriver" d="M56.56,5.27,51.72.44A1.5,1.5,0,0,0,49.9.21l-11.81,7a1.45,1.45,0,0,0-.72,1.1,1.52,1.52,0,0,0,.42,1.25l3.07,3.06L26.11,27.35l-1.95-2a1.51,1.51,0,0,0-2.12,0L2,45.46A6.76,6.76,0,1,0,11.54,55L31.6,35a1.49,1.49,0,0,0,0-2.12l-2-2L44.39,16.14l3.07,3.06a1.46,1.46,0,0,0,1.06.44h.19a1.48,1.48,0,0,0,1.1-.72l7-11.81A1.51,1.51,0,0,0,56.56,5.27Z"/></g></g></svg>