<svg xmlns="http://www.w3.org/2000/svg" viewBox="0 0 51 59"><title>server</title><g id="Layer_2" data-name="Layer 2"><g id="Layer_1-2" data-name="Layer 1"><path id="server" d="M51,6.5A6.51,6.51,0,0,0,44.5,0H6.5A6.51,6.51,0,0,0,0,6.5v10a6.43,6.43,0,0,0,1.39,4A6.43,6.43,0,0,0,0,24.5v10a6.43,6.43,0,0,0,1.39,4A6.43,6.43,0,0,0,0,42.5v10A6.51,6.51,0,0,0,6.5,59h38A6.51,6.51,0,0,0,51,52.5v-10a6.43,6.43,0,0,0-1.39-4,6.43,6.43,0,0,0,1.39-4v-10a6.43,6.43,0,0,0-1.39-4,6.43,6.43,0,0,0,1.39-4ZM15,50H12a2.5,2.5,0,0,1,0-5h3a2.5,2.5,0,0,1,0,5Zm0-17.65H12a2.5,2.5,0,0,1,0-5h3a2.5,2.5,0,0,1,0,5ZM15,14H12a2.5,2.5,0,0,1,0-5h3a2.5,2.5,0,0,1,0,5ZM39,50H25a2.5,2.5,0,0,1,0-5H39a2.5,2.5,0,0,1,0,5Zm0-17.65H25a2.5,2.5,0,0,1,0-5H39a2.5,2.5,0,0,1,0,5ZM39,14H25a2.5,2.5,0,0,1,0-5H39a2.5,2.5,0,0,1,0,5Z"/></g></g></svg>