<svg xmlns="http://www.w3.org/2000/svg" viewBox="0 0 53.5 61.5"><title>server lock</title><g id="Layer_2" data-name="Layer 2"><g id="Layer_1-2" data-name="Layer 1"><g id="server_lock" data-name="server lock"><path d="M22.5,29.85a2.5,2.5,0,0,1,2.5-2.5h1.22A14.55,14.55,0,0,1,51,25.62V24.5a6.43,6.43,0,0,0-1.39-4,6.43,6.43,0,0,0,1.39-4V6.5A6.51,6.51,0,0,0,44.5,0H6.5A6.51,6.51,0,0,0,0,6.5v10a6.43,6.43,0,0,0,1.39,4A6.43,6.43,0,0,0,0,24.5v10a6.43,6.43,0,0,0,1.39,4A6.43,6.43,0,0,0,0,42.5v10A6.51,6.51,0,0,0,6.5,59H20.75a12.26,12.26,0,0,1-.95-4.74V40.63a9.85,9.85,0,0,1,4.65-8.35A2.49,2.49,0,0,1,22.5,29.85ZM25,9H39a2.5,2.5,0,0,1,0,5H25a2.5,2.5,0,0,1,0-5ZM15,50H12a2.5,2.5,0,0,1,0-5h3a2.5,2.5,0,0,1,0,5Zm0-17.65H12a2.5,2.5,0,0,1,0-5h3a2.5,2.5,0,0,1,0,5ZM15,14H12a2.5,2.5,0,0,1,0-5h3a2.5,2.5,0,0,1,0,5Z"/><path d="M48.76,35.77V34.11a9.61,9.61,0,0,0-19.22,0v1.66a4.87,4.87,0,0,0-4.74,4.86V54.26A7.25,7.25,0,0,0,32,61.5H46.26a7.24,7.24,0,0,0,7.24-7.24V40.63A4.87,4.87,0,0,0,48.76,35.77Zm-7.11,13.5v2.62a2.5,2.5,0,0,1-5,0V49.27A2.5,2.5,0,0,1,38,44.65h2.37a2.49,2.49,0,0,1,1.31,4.62Zm2.11-13.51H34.54V34.11a4.61,4.61,0,0,1,9.22,0Z"/></g></g></g></svg>