<svg xmlns="http://www.w3.org/2000/svg" viewBox="0 0 53.27 59"><title>ship</title><g id="Layer_2" data-name="Layer 2"><g id="Layer_1-2" data-name="Layer 1"><g id="ship"><path d="M51.87,50.83a9.61,9.61,0,0,0-11,1.82,4.61,4.61,0,0,1-6.52,0,9.61,9.61,0,0,0-13.59,0,4.61,4.61,0,0,1-6.52,0A9.54,9.54,0,0,0,.78,52.48,2.5,2.5,0,0,0,4.22,56.1a4.64,4.64,0,0,1,6.44.08,9.6,9.6,0,0,0,13.59,0,4.63,4.63,0,0,1,6.52,0,9.6,9.6,0,0,0,13.59,0,4.61,4.61,0,0,1,5.3-.87,2.5,2.5,0,1,0,2.21-4.48Z"/><path d="M4.22,47.35a4.64,4.64,0,0,1,6.44.08,9.62,9.62,0,0,0,13.59,0,4.61,4.61,0,0,1,6.52,0,9.62,9.62,0,0,0,13.59,0,4.61,4.61,0,0,1,5.3-.88,2.5,2.5,0,1,0,2.21-4.48,9.5,9.5,0,0,0-4.17-1l2.8-10.21a2.5,2.5,0,0,0-1.54-3l-2-.74V19a2.51,2.51,0,0,0-1.62-2.35l-3.74-1.4V7.86a2.49,2.49,0,0,0-1.52-2.29L27.62.2a2.5,2.5,0,0,0-2,0L13.14,5.57a2.49,2.49,0,0,0-1.52,2.29v7.43l-3.74,1.4A2.5,2.5,0,0,0,6.26,19v8.09l-2,.74a2.49,2.49,0,0,0-1.53,3L5.61,41.23A9.65,9.65,0,0,0,.78,43.72a2.5,2.5,0,0,0,3.44,3.63ZM16.62,9.51l10-4.29,10,4.29v3.91L27.51,10a2.51,2.51,0,0,0-1.75,0l-9.14,3.43ZM11.26,20.77,26.63,15,42,20.77v4.49l-14.5-5.44a2.51,2.51,0,0,0-1.75,0l-14.5,5.44Z"/></g></g></g></svg>