<svg xmlns="http://www.w3.org/2000/svg" viewBox="0 0 59 53.76"><title>shopping cart-1</title><g id="Layer_2" data-name="Layer 2"><g id="Layer_1-2" data-name="Layer 1"><g id="shopping_cart-1" data-name="shopping cart-1"><path d="M58.48,12.22a3,3,0,0,0-2.43-1.28H15.19L14.85,9.2A10.78,10.78,0,0,0,6.43.66L3.55.06a3,3,0,0,0-1.2,5.78l2.88.6a4.89,4.89,0,0,1,3.83,3.88l.79,4.07s0,.09,0,.13l2.92,15.09a10.84,10.84,0,0,0,10.62,8.77h19a10.87,10.87,0,0,0,10.09-7L58.8,15A3,3,0,0,0,58.48,12.22Z"/><path d="M42.11,43.93A4.92,4.92,0,1,0,47,48.84,4.91,4.91,0,0,0,42.11,43.93Z"/><circle cx="22.79" cy="48.84" r="4.92"/></g></g></g></svg>