<svg xmlns="http://www.w3.org/2000/svg" viewBox="0 0 59 53.76"><title>shopping cart-2</title><g id="Layer_2" data-name="Layer 2"><g id="Layer_1-2" data-name="Layer 1"><g id="shopping_cart-2" data-name="shopping cart-2"><path d="M42.38,38.38h-19a10.84,10.84,0,0,1-10.62-8.77L9.06,10.32A4.89,4.89,0,0,0,5.23,6.44l-2.88-.6A3,3,0,0,1,3.55.06l2.88.6A10.78,10.78,0,0,1,14.85,9.2l3.73,19.29a4.93,4.93,0,0,0,4.83,4h19A5,5,0,0,0,47,29.32L53.3,12.84A2.95,2.95,0,1,1,58.8,15L52.48,31.43A10.87,10.87,0,0,1,42.38,38.38Z"/><circle cx="42.11" cy="48.84" r="4.92"/><circle cx="22.79" cy="48.84" r="4.92"/><path d="M33.49,21.77a3,3,0,0,1-2.08-.86L22,11.45a2.95,2.95,0,0,1,4.17-4.17l7.37,7.37L47.28.86A3,3,0,0,1,51.45,5L35.58,20.91A3,3,0,0,1,33.49,21.77Z"/></g></g></g></svg>