<svg xmlns="http://www.w3.org/2000/svg" viewBox="0 0 59 59"><title>shuffle</title><g id="Layer_2" data-name="Layer 2"><g id="Layer_1-2" data-name="Layer 1"><g id="shuffle"><path d="M56.05,37.37a3,3,0,0,0-2.95,3v8.61L40.44,36.26a3,3,0,1,0-4.18,4.18L48.93,53.1H40.32a3,3,0,1,0,0,5.9H56.05a2.86,2.86,0,0,0,.58-.06l.26-.07.29-.1a2.64,2.64,0,0,0,.29-.15,1.43,1.43,0,0,0,.21-.12,2.75,2.75,0,0,0,.82-.81,2.39,2.39,0,0,0,.12-.22c.05-.1.11-.19.15-.29s.07-.2.1-.3.05-.16.07-.25a2.86,2.86,0,0,0,.06-.58V40.32A3,3,0,0,0,56.05,37.37Z"/><path d="M18.56,22.74a3,3,0,0,0,4.18-4.18L5,.86A3,3,0,0,0,.86,5Z"/><path d="M58.94,2.37c0-.09,0-.17-.07-.25s-.06-.2-.1-.3-.1-.19-.15-.29a2.39,2.39,0,0,0-.12-.22A2.75,2.75,0,0,0,57.68.5a1.43,1.43,0,0,0-.21-.12,2.64,2.64,0,0,0-.29-.15l-.29-.1L56.63.06A2.86,2.86,0,0,0,56.05,0H40.32a3,3,0,0,0,0,5.9h8.61L.86,54A3,3,0,0,0,5,58.14L53.1,10.07v8.61a2.95,2.95,0,0,0,5.9,0V3A2.86,2.86,0,0,0,58.94,2.37Z"/></g></g></g></svg>