<svg xmlns="http://www.w3.org/2000/svg" viewBox="0 0 45 59"><title>sim card</title><g id="Layer_2" data-name="Layer 2"><g id="Layer_1-2" data-name="Layer 1"><g id="sim_card" data-name="sim card"><rect x="25" y="29" width="5" height="5"/><rect x="15" y="39" width="15" height="5"/><rect x="15" y="29" width="5" height="5"/><path d="M36.5,0h-21a2.48,2.48,0,0,0-1.83.8l-13,14A2.49,2.49,0,0,0,0,16.5v34A8.51,8.51,0,0,0,8.5,59h28A8.51,8.51,0,0,0,45,50.5V8.5A8.51,8.51,0,0,0,36.5,0ZM35,46.5A2.5,2.5,0,0,1,32.5,49h-20A2.5,2.5,0,0,1,10,46.5v-20A2.5,2.5,0,0,1,12.5,24h20A2.5,2.5,0,0,1,35,26.5Z"/></g></g></g></svg>