<svg xmlns="http://www.w3.org/2000/svg" viewBox="0 0 58.96 59"><title>sketch</title><g id="Layer_2" data-name="Layer 2"><g id="Layer_1-2" data-name="Layer 1"><path id="sketch" d="M58.68,16.55a1.67,1.67,0,0,1-.12-.16h0L50.23,3.16A2.52,2.52,0,0,0,48.38,2L29.75,0h-.54L10.58,2A2.52,2.52,0,0,0,8.73,3.16L.39,16.38h0a1.67,1.67,0,0,1-.12.16,2.51,2.51,0,0,0,.17,2.59l27,38.79a2.5,2.5,0,0,0,4.1,0l27-38.79A2.51,2.51,0,0,0,58.68,16.55Zm-6.76-1.34H45.21l3.08-5.75Zm-30.64,5h16.4l-8.2,27.53ZM35,5.6l9.18,1L40.67,13.1Zm1,9.61H23l6.51-8.58ZM18.29,13.1,14.8,6.59,24,5.6Zm-4.54,2.11H7l3.63-5.75Zm2.32,5,6.57,22.08L7.28,20.21ZM36.32,42.29l6.57-22.08h8.79Z"/></g></g></svg>