<svg xmlns="http://www.w3.org/2000/svg" viewBox="0 0 59 52.13"><title>skype</title><g id="Layer_2" data-name="Layer 2"><g id="Layer_1-2" data-name="Layer 1"><g id="skype"><path d="M56.35,28.72a4.5,4.5,0,0,1-.78-2.66,26.09,26.09,0,0,0-35-24.48,4.43,4.43,0,0,1-2.73.14A14.21,14.21,0,0,0,13,1.23,14,14,0,0,0,0,14.47a13.84,13.84,0,0,0,2.63,8.94,4.47,4.47,0,0,1,.78,2.65,26.09,26.09,0,0,0,35,24.49,4.5,4.5,0,0,1,2.73-.14,14.24,14.24,0,0,0,4.78.48A14,14,0,0,0,59,37.66,13.84,13.84,0,0,0,56.35,28.72ZM38.87,21.39A2.77,2.77,0,0,1,35,20.82a8.27,8.27,0,0,0-5-2.57c-2.24-.21-4.45.6-4.45,1.79s.63,1.69,4.6,2.63c3.71.88,9.31,2.22,9.31,8.39a6.73,6.73,0,0,1-4.21,6.52,15.26,15.26,0,0,1-6,1c-5.81,0-9.48-4.52-9.64-4.71a2.77,2.77,0,1,1,4.33-3.45A8.17,8.17,0,0,0,29.24,33c3.74.12,4.6-1,4.71-1.94.14-1.17-.9-2-5.06-3C25.37,27.21,20,26,20,20.27c0-1.77.72-7.55,10-7.55a12.51,12.51,0,0,1,9.44,4.8A2.77,2.77,0,0,1,38.87,21.39Z"/></g></g></g></svg>