<svg xmlns="http://www.w3.org/2000/svg" viewBox="0 0 59 47.88"><title>smoking</title><g id="Layer_2" data-name="Layer 2"><g id="Layer_1-2" data-name="Layer 1"><g id="smoking"><path d="M12.5,32.88H2.5A2.5,2.5,0,0,0,0,35.38v10a2.5,2.5,0,0,0,2.5,2.5h10Z"/><rect x="17.5" y="32.88" width="26" height="15"/><path d="M56.5,32.88h-8v15h8a2.5,2.5,0,0,0,2.5-2.5v-10A2.5,2.5,0,0,0,56.5,32.88Z"/><path d="M43.69,28a2.49,2.49,0,0,1-1.77-.73,10.66,10.66,0,0,1,0-15,5.63,5.63,0,0,0,0-8A2.5,2.5,0,1,1,45.46.73a10.66,10.66,0,0,1,0,15,5.63,5.63,0,0,0,0,8,2.52,2.52,0,0,1,0,3.54A2.49,2.49,0,0,1,43.69,28Z"/><path d="M54.12,28a2.49,2.49,0,0,1-1.77-.73,10.66,10.66,0,0,1,0-15,5.63,5.63,0,0,0,0-8A2.5,2.5,0,0,1,55.89.73a10.66,10.66,0,0,1,0,15,5.63,5.63,0,0,0,0,8,2.52,2.52,0,0,1,0,3.54A2.49,2.49,0,0,1,54.12,28Z"/></g></g></g></svg>