<svg xmlns="http://www.w3.org/2000/svg" viewBox="0 0 59 55.47"><title>snapchat</title><g id="Layer_2" data-name="Layer 2"><g id="Layer_1-2" data-name="Layer 1"><path id="snapchat" d="M57.84,41.42C50,40.12,46.4,32,46.25,31.67l0-.06a2.45,2.45,0,0,1-.27-2c.43-1,2.08-1.54,3.17-1.89.32-.1.62-.19.86-.29A6.79,6.79,0,0,0,52.34,26a2.25,2.25,0,0,0,.71-1.62,2.54,2.54,0,0,0-1.89-2.2A3.39,3.39,0,0,0,49.88,22a2.9,2.9,0,0,0-1.2.24,6.67,6.67,0,0,1-2.46.7,2.21,2.21,0,0,1-.81-.18c0-.37.05-.75.07-1.14V21.4c.25-4,.57-9-.75-11.95a16.26,16.26,0,0,0-3.61-5.18,15.09,15.09,0,0,0-4.32-2.85A17.06,17.06,0,0,0,30.07,0H28.91a17.18,17.18,0,0,0-6.75,1.43,15,15,0,0,0-4.3,2.85,16,16,0,0,0-3.6,5.17c-1.32,3-1,7.94-.75,11.94h0c0,.43.06.88.08,1.32a2.47,2.47,0,0,1-1,.18A6.41,6.41,0,0,1,10,22.19,2.29,2.29,0,0,0,9,22a3.52,3.52,0,0,0-1.76.49A2.43,2.43,0,0,0,6,24.08a2.2,2.2,0,0,0,.84,2.08A7.16,7.16,0,0,0,9,27.42c.25.1.54.19.86.29,1.09.35,2.74.87,3.18,1.89a2.5,2.5,0,0,1-.28,2l0,.07a19.62,19.62,0,0,1-3,4.61,17.1,17.1,0,0,1-3.59,3.17,13.14,13.14,0,0,1-5,2A1.39,1.39,0,0,0,0,42.86a1.87,1.87,0,0,0,.14.61h0a3.66,3.66,0,0,0,2,1.71,22.67,22.67,0,0,0,5.77,1.51A7.4,7.4,0,0,1,8.27,48a14,14,0,0,0,.34,1.39,1.51,1.51,0,0,0,1.58,1.16,7.63,7.63,0,0,0,1.35-.19,15.17,15.17,0,0,1,3.1-.36,14,14,0,0,1,2.21.19A10.48,10.48,0,0,1,21,52.29c2.11,1.49,4.5,3.18,8.15,3.18h.72c3.65,0,6-1.69,8.15-3.18h0a10.54,10.54,0,0,1,4.14-2.14A14,14,0,0,1,44.36,50a15.57,15.57,0,0,1,3.1.33,6.73,6.73,0,0,0,1.35.17h.07a1.5,1.5,0,0,0,1.52-1.13c.14-.48.24-.93.33-1.38a7.16,7.16,0,0,1,.36-1.26,23.1,23.1,0,0,0,5.77-1.51,3.66,3.66,0,0,0,2-1.71,1.66,1.66,0,0,0,.15-.61A1.39,1.39,0,0,0,57.84,41.42Z"/></g></g></svg>