<svg xmlns="http://www.w3.org/2000/svg" viewBox="0 0 59 48.31"><title>sofa</title><g id="Layer_2" data-name="Layer 2"><g id="Layer_1-2" data-name="Layer 1"><g id="sofa"><path d="M57,22.33a6.53,6.53,0,0,0-4.53-1.83h0a6.56,6.56,0,0,0-6.56,6.56v3.27H13.11V27.06A6.55,6.55,0,0,0,2,22.34a8.44,8.44,0,0,0-2,5.47v18a2.5,2.5,0,0,0,2.5,2.5h12a2.49,2.49,0,0,0,2.5-2.5V42.88H42v2.93a2.49,2.49,0,0,0,2.5,2.5h12a2.5,2.5,0,0,0,2.5-2.5v-18A8.44,8.44,0,0,0,57,22.33Z"/><path d="M18,25.33H41A11.58,11.58,0,0,1,52.45,15.5c.18,0,.35,0,.53,0V13.31a6.59,6.59,0,0,0-2.2-4.88c-12.54-11.24-30-11.24-42.58,0A6.57,6.57,0,0,0,6,13.31v2.22l.55,0A11.58,11.58,0,0,1,18,25.33Z"/></g></g></g></svg>