<svg xmlns="http://www.w3.org/2000/svg" viewBox="0 0 59 59.5"><title>subscribe-3</title><g id="Layer_2" data-name="Layer 2"><g id="Layer_1-2" data-name="Layer 1"><g id="subscribe-3"><path d="M48.5,20.5h-38A10.51,10.51,0,0,0,0,31V49A10.51,10.51,0,0,0,10.5,59.5h38A10.51,10.51,0,0,0,59,49V31A10.51,10.51,0,0,0,48.5,20.5ZM39.27,36.56,28.85,47a2.51,2.51,0,0,1-3.54,0L19.73,41.4a2.5,2.5,0,1,1,3.54-3.54l3.81,3.82L35.73,33a2.5,2.5,0,0,1,3.54,3.53Z"/><path d="M49.5,16H9.5a3,3,0,0,1,0-6h40a3,3,0,0,1,0,6Z"/><path d="M45.5,6h-32a3,3,0,0,1,0-6h32a3,3,0,0,1,0,6Z"/></g></g></g></svg>