<svg xmlns="http://www.w3.org/2000/svg" viewBox="0 0 59 59.5"><title>subscribe-2</title><g id="Layer_2" data-name="Layer 2"><g id="Layer_1-2" data-name="Layer 1"><g id="subscribe-2"><path d="M48.5,20.5h-38A10.51,10.51,0,0,0,0,31V49A10.51,10.51,0,0,0,10.5,59.5h38A10.51,10.51,0,0,0,59,49V31A10.51,10.51,0,0,0,48.5,20.5ZM37,42.36H32v5a2.5,2.5,0,0,1-5,0v-5H22a2.5,2.5,0,0,1,0-5h5v-5a2.5,2.5,0,0,1,5,0v5h5a2.5,2.5,0,0,1,0,5Z"/><path d="M49.5,16H9.5a3,3,0,0,1,0-6h40a3,3,0,0,1,0,6Z"/><path d="M45.5,6h-32a3,3,0,0,1,0-6h32a3,3,0,0,1,0,6Z"/></g></g></g></svg>