<svg xmlns="http://www.w3.org/2000/svg" viewBox="0 0 59 59.5"><title>subscribe-1</title><g id="Layer_2" data-name="Layer 2"><g id="Layer_1-2" data-name="Layer 1"><g id="subscribe-1"><path d="M48.5,59.5h-38A10.51,10.51,0,0,1,0,49V31A10.51,10.51,0,0,1,10.5,20.5h38A10.51,10.51,0,0,1,59,31V49A10.51,10.51,0,0,1,48.5,59.5Zm-38-34A5.51,5.51,0,0,0,5,31V49a5.51,5.51,0,0,0,5.5,5.5h38A5.51,5.51,0,0,0,54,49V31a5.51,5.51,0,0,0-5.5-5.5Z"/><path d="M49.5,16H9.5a3,3,0,0,1,0-6h40a3,3,0,0,1,0,6Z"/><path d="M45.5,6h-32a3,3,0,0,1,0-6h32a3,3,0,0,1,0,6Z"/></g></g></g></svg>