<svg xmlns="http://www.w3.org/2000/svg" viewBox="0 0 59 59"><title>swift</title><g id="Layer_2" data-name="Layer 2"><g id="Layer_1-2" data-name="Layer 1"><path id="swift" d="M48.5,0h-38A10.51,10.51,0,0,0,0,10.5v38A10.51,10.51,0,0,0,10.5,59h38A10.51,10.51,0,0,0,59,48.5v-38A10.51,10.51,0,0,0,48.5,0ZM47,45.47s-1.95-3.28-5.24-3.28-5,3.28-11.4,3.28c-14.19,0-20.9-11.85-20.9-11.85C22.29,42,31,36.07,31,36.07c-5.66-3.29-17.63-18.83-18-19.32,10.33,8.79,15,11.3,15.26,11.45-2.76-2.29-10.46-13.38-10.46-13.38,6.18,6.25,18.45,15,18.45,15,3.48-9.66-3.35-18.27-3.35-18.27,16.71,11.36,11.3,23.89,11.3,23.89S49,40.78,47,45.47Z"/></g></g></svg>