<svg xmlns="http://www.w3.org/2000/svg" viewBox="0 0 51.99 59"><title>television</title><g id="Layer_2" data-name="Layer 2"><g id="Layer_1-2" data-name="Layer 1"><path id="television" d="M41.49,14H32l9.7-9.7A2.5,2.5,0,1,0,38.2.73L26,12.94,13.85.79a2.5,2.5,0,0,0-3.53,3.54L20,14H10.5A10.51,10.51,0,0,0,0,24.47v24A10.51,10.51,0,0,0,10.5,59h31A10.51,10.51,0,0,0,52,48.5v-24A10.51,10.51,0,0,0,41.49,14ZM31.33,54H10.5A5.51,5.51,0,0,1,5,48.5v-24A5.51,5.51,0,0,1,10.5,19H31.33Zm11.25-6.75H40.84a2.5,2.5,0,0,1,0-5h1.74a2.5,2.5,0,0,1,0,5Zm0-8.26H40.84a2.5,2.5,0,0,1,0-5h1.74a2.5,2.5,0,0,1,0,5Zm0-8.27H40.84a2.5,2.5,0,0,1,0-5h1.74a2.5,2.5,0,0,1,0,5Z"/></g></g></svg>