<svg xmlns="http://www.w3.org/2000/svg" viewBox="0 0 49.29 59"><title>tent</title><g id="Layer_2" data-name="Layer 2"><g id="Layer_1-2" data-name="Layer 1"><path id="tent" d="M46.79,28.92c-8.5,0-14.93-5-19.64-15.11v-.87H38.06a2.5,2.5,0,0,0,2-4L38.15,6.47,40,4a2.5,2.5,0,0,0-2-4H24.65a2.5,2.5,0,0,0-2.5,2.5V13.81C17.43,24,11,28.92,2.5,28.92A2.5,2.5,0,0,0,0,31.42V56.5A2.5,2.5,0,0,0,2.5,59h7.72c7.61,0,11.34-5,14.48-12.56C28.18,54.17,32.58,59,40.09,59h6.7a2.5,2.5,0,0,0,2.5-2.5V31.42A2.5,2.5,0,0,0,46.79,28.92Z"/></g></g></svg>