<svg xmlns="http://www.w3.org/2000/svg" viewBox="0 0 57.85 59"><title>ticket</title><g id="Layer_2" data-name="Layer 2"><g id="Layer_1-2" data-name="Layer 1"><path id="ticket" d="M55.35,33.56a2.5,2.5,0,0,0,2.5-2.5V23.22a2.5,2.5,0,0,0-2.5-2.5H52.06c-.07-.15-.15-.29-.22-.44A6.31,6.31,0,0,1,55.18,12a2.5,2.5,0,0,0,1.33-3.28L53.45,1.52A2.5,2.5,0,0,0,50.17.2L1.52,20.85A1.4,1.4,0,0,0,1,21.2a2.49,2.49,0,0,0-1,2v7.84a2.49,2.49,0,0,0,2.5,2.5,6.31,6.31,0,0,1,0,12.61A2.49,2.49,0,0,0,0,48.67V56.5A2.49,2.49,0,0,0,2.5,59H55.35a2.5,2.5,0,0,0,2.5-2.5V48.67a2.5,2.5,0,0,0-2.5-2.5,6.31,6.31,0,1,1,0-12.61ZM14.63,20.72l13.85-5.88L31,20.72H14.63ZM31.5,54V25.72h5V54Zm5-33.28h-.1l-3.32-7.83L49.82,5.78,51,8.65a11.33,11.33,0,0,0-4.31,12.07H36.5Z"/></g></g></svg>