<svg xmlns="http://www.w3.org/2000/svg" viewBox="0 0 59 33.01"><title>timeline</title><g id="Layer_2" data-name="Layer 2"><g id="Layer_1-2" data-name="Layer 1"><path id="timeline" d="M57,7.18a6.69,6.69,0,0,0-11.28,6.08L35.48,20.8a6.62,6.62,0,0,0-2.67-1.07L31.05,12.2a6.9,6.9,0,0,0,.95-.78A6.69,6.69,0,1,0,20.59,6.84L11.4,10.51A6.69,6.69,0,0,0,2,20H2a6.69,6.69,0,0,0,11.42-4.73s0-.1,0-.15l9.19-3.67a6.64,6.64,0,0,0,3.6,1.84l1.77,7.52a6,6,0,0,0-.95.79,6.7,6.7,0,0,0,0,9.46h0A6.68,6.68,0,0,0,38.25,25l10.28-7.54a6.75,6.75,0,0,0,3.78,1.16A6.68,6.68,0,0,0,57,7.18Z"/></g></g></svg>