<svg xmlns="http://www.w3.org/2000/svg" viewBox="0 0 49 62.96"><title>tomato</title><g id="Layer_2" data-name="Layer 2"><g id="Layer_1-2" data-name="Layer 1"><path id="tomato" d="M38.59,18.41c-1.89-1.33-6.39-2.09-11.3-2.3V15a10,10,0,0,1,10-10,2.5,2.5,0,0,0,0-5A15,15,0,0,0,24.18,7.74a14.1,14.1,0,0,0-1-1.16A11.93,11.93,0,0,0,11.66,3.5,1.51,1.51,0,0,0,10.6,4.56a12,12,0,0,0,3.08,11.5,12.41,12.41,0,0,0,1,.84,12,12,0,0,0-4.22,1.51,24.5,24.5,0,1,0,28.18,0ZM15.81,13.93a8.9,8.9,0,0,1-2.49-7.72A8.9,8.9,0,0,1,21,8.7a9.17,9.17,0,0,1,1.75,2.53,15.18,15.18,0,0,0-.5,3.78v1.07c-.84,0-1.66.08-2.47.14A8.71,8.71,0,0,1,15.81,13.93Zm19.46,15.4a2.49,2.49,0,0,1-3.54,0L27,24.6v3a2.5,2.5,0,0,1-5,0v-3l-4.73,4.73a2.5,2.5,0,0,1-3.54-3.53l8.56-8.56v1.31a2.5,2.5,0,1,0,5,0v-.73l8,8A2.5,2.5,0,0,1,35.27,29.33Z"/></g></g></svg>