<svg xmlns="http://www.w3.org/2000/svg" viewBox="0 0 56.5 55.11"><title>tools</title><g id="Layer_2" data-name="Layer 2"><g id="Layer_1-2" data-name="Layer 1"><path id="tools" d="M47.36,20a1.53,1.53,0,0,0,1.06.44h.19a1.53,1.53,0,0,0,1.11-.73L56.3,8.56a1.51,1.51,0,0,0-.23-1.82L51.51,2.18A1.5,1.5,0,0,0,49.68,2L38.54,8.53a1.45,1.45,0,0,0-.72,1.1,1.52,1.52,0,0,0,.42,1.25L41,13.67,30.86,23.85,26.59,19.8A14.14,14.14,0,0,0,23.88,4.17,13.89,13.89,0,0,0,8.7,1a1,1,0,0,0-.6.73,1,1,0,0,0,.27.9L13.74,8A4.07,4.07,0,1,1,8,13.76L2.65,8.41a1,1,0,0,0-.91-.28A1,1,0,0,0,1,8.74,14,14,0,0,0,19.8,26.61L22,28.94,4.91,45.23a5.73,5.73,0,0,0,3.95,9.88h.07A5.71,5.71,0,0,0,13,53.33L29.12,36.4l16.1,16.93a5.71,5.71,0,0,0,4.09,1.78h.07a5.73,5.73,0,0,0,3.95-9.88L34.48,27.3,44.57,17.21Z"/></g></g></svg>