<svg xmlns="http://www.w3.org/2000/svg" viewBox="0 0 59 54.46"><title>tow truck</title><g id="Layer_2" data-name="Layer 2"><g id="Layer_1-2" data-name="Layer 1"><path id="tow_truck" data-name="tow truck" d="M58.39,30.2,47,17.09a2.51,2.51,0,0,0-1.88-.86H34.7a2.5,2.5,0,0,0-2.5,2.5V32.34H29V25.5A2.49,2.49,0,0,0,28.51,24l-17-23A2.51,2.51,0,0,0,7,2.5v17a.81.81,0,0,1-1.62,0,2.5,2.5,0,0,0-5,0A5.81,5.81,0,0,0,12,19.54V10.09L24,26.32v6H2.5A2.5,2.5,0,0,0,0,34.84V47a2.5,2.5,0,0,0,2.5,2.5H6.93a7.49,7.49,0,0,0,14.13,0H38.54a7.48,7.48,0,0,0,14.12,0H56.5A2.5,2.5,0,0,0,59,47V31.84A2.5,2.5,0,0,0,58.39,30.2ZM44,21.23l7,8.11H37.2V21.23ZM14,49.46a2.5,2.5,0,1,1,2.5-2.5A2.5,2.5,0,0,1,14,49.46Zm31.61,0A2.5,2.5,0,1,1,48.1,47,2.5,2.5,0,0,1,45.6,49.46Z"/></g></g></svg>