<svg xmlns="http://www.w3.org/2000/svg" viewBox="0 0 45.66 57.5"><title>tree palm</title><g id="Layer_2" data-name="Layer 2"><g id="Layer_1-2" data-name="Layer 1"><path id="tree_palm" data-name="tree palm" d="M45.66,19.73c0-4.14-3.12-7.7-7.58-9.27l4.4-2.54A2.48,2.48,0,0,0,43.65,6.4a2.53,2.53,0,0,0-.25-1.9A9.36,9.36,0,0,0,36.26.09a14.49,14.49,0,0,0-8.89,2,15.27,15.27,0,0,0-4.54,4A15.23,15.23,0,0,0,18.3,2.07a14.5,14.5,0,0,0-8.89-2A9.35,9.35,0,0,0,2.27,4.5a2.51,2.51,0,0,0,.91,3.42l4.41,2.54C3.13,12,0,15.59,0,19.73a2.5,2.5,0,0,0,2.5,2.5H5.25A13.17,13.17,0,0,0,2.81,26a9.34,9.34,0,0,0,.25,8.39,2.5,2.5,0,0,0,2.17,1.25,2.44,2.44,0,0,0,1.24-.34L18.2,28.5l-.94,28a1,1,0,0,0,.28.73,1,1,0,0,0,.72.3h9.15a1,1,0,0,0,.72-.3,1,1,0,0,0,.28-.73l-.95-28,11.73,6.77a2.45,2.45,0,0,0,1.25.34,2.49,2.49,0,0,0,2.16-1.25A9.31,9.31,0,0,0,42.86,26a13.61,13.61,0,0,0-2.44-3.74h2.74A2.5,2.5,0,0,0,45.66,19.73Zm-6-2.5H30.23a12.92,12.92,0,0,0-1.76,0H26.34A8.94,8.94,0,0,1,33,14.6,8.94,8.94,0,0,1,39.66,17.23ZM29.87,6.4a9.58,9.58,0,0,1,5.79-1.35,7.27,7.27,0,0,1,1.28.29l-8.66,5a13.81,13.81,0,0,0-2.76,1.24,6.76,6.76,0,0,1,.29-.84A9.59,9.59,0,0,1,29.87,6.4ZM10,5.05A9.61,9.61,0,0,1,15.8,6.4a9.59,9.59,0,0,1,4.06,4.34c.09.23.2.52.29.84a13.9,13.9,0,0,0-2.77-1.24l-8.65-5A7.18,7.18,0,0,1,10,5.05Zm2.67,9.55a8.92,8.92,0,0,1,6.65,2.63H17.2a13.07,13.07,0,0,0-1.77,0H6A8.92,8.92,0,0,1,12.67,14.6ZM7.41,27.93a9.59,9.59,0,0,1,4.06-4.34,10.05,10.05,0,0,1,4.41-1.36h1.38a6.57,6.57,0,0,1,1.28.3L7,29.18A5.79,5.79,0,0,1,7.41,27.93ZM34.2,23.59a9.59,9.59,0,0,1,4.06,4.34,5.82,5.82,0,0,1,.38,1.25L27.13,22.54a6.41,6.41,0,0,1,1.28-.3H30A10.27,10.27,0,0,1,34.2,23.59Z"/></g></g></svg>