<svg xmlns="http://www.w3.org/2000/svg" viewBox="0 0 59 54.93"><title>trolley</title><g id="Layer_2" data-name="Layer 2"><g id="Layer_1-2" data-name="Layer 1"><g id="trolley"><path d="M58.85,35.83a2.5,2.5,0,0,0-3.2-1.5L37,41.12a8.65,8.65,0,0,0-7.37-3.44L18.41,6.91A10.52,10.52,0,0,0,5,.63L1.65,1.84A2.5,2.5,0,1,0,3.36,6.53l3.3-1.2a5.52,5.52,0,0,1,7.05,3.29l11.2,30.77a8.63,8.63,0,0,0,5.18,15.54A8.42,8.42,0,0,0,33,54.4a8.64,8.64,0,0,0,5.67-8.58L57.36,39A2.5,2.5,0,0,0,58.85,35.83Zm-25.48,12a3.63,3.63,0,1,1,.12-2.77A3.6,3.6,0,0,1,33.37,47.83Z"/><path d="M37.4,37.18a6.58,6.58,0,0,1-6.18-4.34L27,21.33A6.59,6.59,0,0,1,31,12.89L42,8.86h0a6.6,6.6,0,0,1,8.44,3.94l4.19,11.51a6.59,6.59,0,0,1-3.94,8.44l-11.06,4A6.81,6.81,0,0,1,37.4,37.18Z"/></g></g></g></svg>