<svg xmlns="http://www.w3.org/2000/svg" viewBox="0 0 59 46"><title>truck (2)</title><g id="Layer_2" data-name="Layer 2"><g id="Layer_1-2" data-name="Layer 1"><path id="truck" d="M59,23.3a2.49,2.49,0,0,0-1-2L47,8.63a2.51,2.51,0,0,0-1.88-.86H37.2V2.5A2.5,2.5,0,0,0,34.7,0H2.5A2.5,2.5,0,0,0,0,2.5v36A2.5,2.5,0,0,0,2.5,41H6.93a7.49,7.49,0,0,0,14.13,0H38.54a7.49,7.49,0,0,0,14.13,0H56.5A2.5,2.5,0,0,0,59,38.5V23.3ZM44,12.77l7,8H37.2v-8ZM14,41a2.5,2.5,0,1,1,2.5-2.5A2.5,2.5,0,0,1,14,41ZM45.6,41a2.5,2.5,0,1,1,2.5-2.5A2.5,2.5,0,0,1,45.6,41Z"/></g></g></svg>