<svg xmlns="http://www.w3.org/2000/svg" viewBox="0 0 59 43"><title>truck</title><g id="Layer_2" data-name="Layer 2"><g id="Layer_1-2" data-name="Layer 1"><path id="truck" d="M58.32,20.66,46.92,8.56a2.52,2.52,0,0,0-1.82-.79H37.2V2.5A2.5,2.5,0,0,0,34.7,0H2.5A2.5,2.5,0,0,0,0,2.5v33A2.5,2.5,0,0,0,2.5,38H6.93a7.49,7.49,0,0,0,14.13,0H38.54a7.48,7.48,0,0,0,14.12,0H56.5A2.5,2.5,0,0,0,59,35.5V22.38A2.51,2.51,0,0,0,58.32,20.66ZM14,38a2.5,2.5,0,1,1,2.5-2.5A2.5,2.5,0,0,1,14,38Zm9.46-17.69H21v2.5a2.5,2.5,0,0,1-5,0v-2.5h-2.5a2.5,2.5,0,1,1,0-5H16v-2.5a2.5,2.5,0,1,1,5,0v2.5h2.5a2.5,2.5,0,1,1,0,5ZM45.6,38a2.5,2.5,0,1,1,2.5-2.5A2.5,2.5,0,0,1,45.6,38ZM37.2,19.8v-7H44l6.61,7Z"/></g></g></svg>