<svg xmlns="http://www.w3.org/2000/svg" viewBox="0 0 59 59"><title>unarchive</title><g id="Layer_2" data-name="Layer 2"><g id="Layer_1-2" data-name="Layer 1"><g id="unarchive"><path d="M58.44,12.92l-9.8-12A2.49,2.49,0,0,0,46.71,0H12.3a2.52,2.52,0,0,0-1.94.92l-9.79,12A2.49,2.49,0,0,0,0,14.5v34A10.51,10.51,0,0,0,10.5,59h38A10.51,10.51,0,0,0,59,48.5v-34A2.54,2.54,0,0,0,58.44,12.92ZM39.27,35.27A2.49,2.49,0,0,1,37.5,36a2.45,2.45,0,0,1-1.76-.73L32,31.54v15a2.5,2.5,0,0,1-5,0v-15l-3.73,3.73a2.5,2.5,0,1,1-3.53-3.53l8-8a2.85,2.85,0,0,1,.6-.45,2.52,2.52,0,0,1,2.75.28l.18.17.16.17,7.84,7.83A2.49,2.49,0,0,1,39.27,35.27ZM7.77,12l5.72-7h32l5.72,7Z"/></g></g></g></svg>