<svg xmlns="http://www.w3.org/2000/svg" viewBox="0 0 36 60"><title>unfold less</title><g id="Layer_2" data-name="Layer 2"><g id="Layer_1-2" data-name="Layer 1"><g id="unfold_less" data-name="unfold less"><g id="expand_more" data-name="expand more"><path d="M18,21a3,3,0,0,1-2.12-.88l-15-15A3,3,0,0,1,5.12.88L18,13.76,30.88.88a3,3,0,1,1,4.24,4.24l-15,15A3,3,0,0,1,18,21Z"/></g><g id="expand_more-2" data-name="expand more"><path d="M33,60a3,3,0,0,1-2.12-.88L18,46.24,5.12,59.12A3,3,0,0,1,.88,54.88l15-15a3,3,0,0,1,4.24,0l15,15a3,3,0,0,1,0,4.24A3,3,0,0,1,33,60Z"/></g></g></g></g></svg>