<svg xmlns="http://www.w3.org/2000/svg" viewBox="0 0 58.99 58.99"><title>usb</title><g id="Layer_2" data-name="Layer 2"><g id="Layer_1-2" data-name="Layer 1"><g id="usb"><path d="M38.51,12.39a2.5,2.5,0,0,0,1.77,4.27A2.45,2.45,0,0,0,42,15.93l2.6-2.59A2.5,2.5,0,1,0,41.1,9.8Z"/><path d="M43.06,20.48a2.49,2.49,0,0,0,3.54,0l2.59-2.59a2.5,2.5,0,0,0-3.53-3.53L43.06,17A2.5,2.5,0,0,0,43.06,20.48Z"/><path d="M58.26,14.4,44.6.73a2.52,2.52,0,0,0-3.54,0l-9.85,9.86L29.28,8.66a2.5,2.5,0,0,0-3.53,0L5.08,29.33A17.38,17.38,0,0,0,29.66,53.91L50.33,33.24a2.49,2.49,0,0,0,0-3.53l-1.92-1.93,9.85-9.85A2.49,2.49,0,0,0,58.26,14.4ZM20.77,45.29a5,5,0,1,1,0-7.07A5,5,0,0,1,20.77,45.29Zm24.1-21L34.74,14.12,42.83,6,53,16.16Z"/></g></g></g></svg>