<svg xmlns="http://www.w3.org/2000/svg" viewBox="0 0 58.98 56.47"><title>videogame-1</title><g id="Layer_2" data-name="Layer 2"><g id="Layer_1-2" data-name="Layer 1"><g id="videogame-1"><circle cx="42.48" cy="40.35" r="2.5"/><path d="M54.27,29a16,16,0,0,0-11.4-4.72H32v-.68a10,10,0,0,0-10-10,5,5,0,0,1-5-5V2.5a2.5,2.5,0,0,0-5,0V8.56a10,10,0,0,0,10,10,5,5,0,0,1,5,5v.68H16.11A16.12,16.12,0,1,0,26.73,52.48h5.52A16.12,16.12,0,0,0,54.27,29ZM21.82,42.85h-2.5v2.5a2.5,2.5,0,0,1-5,0v-2.5h-2.5a2.5,2.5,0,0,1,0-5h2.5v-2.5a2.5,2.5,0,0,1,5,0v2.5h2.5a2.5,2.5,0,0,1,0,5Zm20.66,5a7.5,7.5,0,1,1,7.5-7.5A7.5,7.5,0,0,1,42.48,47.85Z"/></g></g></g></svg>