<svg xmlns="http://www.w3.org/2000/svg" viewBox="0 0 59 36.01"><title>videogame-2</title><g id="Layer_2" data-name="Layer 2"><g id="Layer_1-2" data-name="Layer 1"><path id="videogame-2" d="M58.89,23.64,56.68,8.21A9.6,9.6,0,0,0,47.22,0H11.8A9.61,9.61,0,0,0,2.33,8.21L.11,23.76A10.73,10.73,0,0,0,10.61,36h.13a10.7,10.7,0,0,0,9.85-6.48l1.24-2.87a8.1,8.1,0,0,1,7.44-4.89h.22a8.1,8.1,0,0,1,7.42,4.86l1.25,2.84A10.74,10.74,0,0,0,48,35.9h.27A10.74,10.74,0,0,0,58.89,23.64ZM20.1,16.17H18.6v1.5a2.5,2.5,0,1,1-5,0v-1.5H12.1a2.5,2.5,0,1,1,0-5h1.5V9.67a2.5,2.5,0,0,1,5,0v1.5h1.5a2.5,2.5,0,1,1,0,5ZM38,13.55a3.5,3.5,0,1,1,5,0A3.51,3.51,0,0,1,38,13.55Zm10,5a2.65,2.65,0,1,1,0-3.75A2.66,2.66,0,0,1,48,18.57Z"/></g></g></svg>