<svg xmlns="http://www.w3.org/2000/svg" viewBox="0 0 59 59"><title>videocam off</title><g id="Layer_2" data-name="Layer 2"><g id="Layer_1-2" data-name="Layer 1"><g id="videocam_off" data-name="videocam off"><path d="M43.64,40.1l0,0L14.27,10.73h0l-10-10A2.5,2.5,0,0,0,.73,4.27l6.33,6.32A10.52,10.52,0,0,0,0,20.5v18A10.51,10.51,0,0,0,10.5,49h24a10.52,10.52,0,0,0,7.65-3.32L54.73,58.27a2.51,2.51,0,0,0,3.54,0,2.52,2.52,0,0,0,0-3.54Z"/><path d="M57.86,16.91a2.54,2.54,0,0,0-2.39-.18L45,21.45V20.5A10.51,10.51,0,0,0,34.5,10H26.64a2.5,2.5,0,0,0-1.77,4.27L40.73,30.13l9.67,9.66a2.46,2.46,0,0,0,.73.51l4.34,2a2.49,2.49,0,0,0,1,.23,2.59,2.59,0,0,0,1.36-.4A2.5,2.5,0,0,0,59,40V19A2.53,2.53,0,0,0,57.86,16.91Z"/></g></g></g></svg>