<svg xmlns="http://www.w3.org/2000/svg" viewBox="0 0 59.09 58.99"><title>visibility off</title><g id="Layer_2" data-name="Layer 2"><g id="Layer_1-2" data-name="Layer 1"><g id="visibility_off" data-name="visibility off"><path d="M58.31,54.73l-54-54A2.5,2.5,0,0,0,.78,4.27L14.36,17.85A55.49,55.49,0,0,0,1.78,28.11a6.66,6.66,0,0,0,0,9.06C6.85,42.68,17.2,51.92,29.51,51.92a30,30,0,0,0,14.71-4.2L54.78,58.27a2.5,2.5,0,1,0,3.53-3.54ZM29.51,39a6.3,6.3,0,0,1-4.62-10.57l8.9,8.9A6.37,6.37,0,0,1,29.51,39Z"/><path d="M52.54,40.89a2.53,2.53,0,0,1-1.77-.73L28.26,17.64a2.5,2.5,0,0,1,1.83-4.26c12.15.28,22.3,9.44,27.27,14.87a6.47,6.47,0,0,1,0,8.8c-1,1.07-2,2.14-3.1,3.15A2.48,2.48,0,0,1,52.54,40.89Z"/></g></g></g></svg>