<svg xmlns="http://www.w3.org/2000/svg" viewBox="0 0 49.53 59.29"><title>volume down</title><g id="Layer_2" data-name="Layer 2"><g id="Layer_1-2" data-name="Layer 1"><g id="volume_down" data-name="volume down"><path d="M37.35.21a2.49,2.49,0,0,0-2.7.46L13.86,19.93H6.53A6.54,6.54,0,0,0,0,26.46v6.37a6.54,6.54,0,0,0,6.53,6.53h7.33L34.65,58.62a2.5,2.5,0,0,0,4.2-1.83V2.5A2.51,2.51,0,0,0,37.35.21Z"/><path d="M46.79,23a2.5,2.5,0,1,0-3.54,3.54,4.38,4.38,0,0,1,0,6.19,2.52,2.52,0,0,0,0,3.54,2.51,2.51,0,0,0,3.54,0A9.39,9.39,0,0,0,46.79,23Z"/></g></g></g></svg>