<svg xmlns="http://www.w3.org/2000/svg" viewBox="0 0 58.99 59.29"><title>volume up</title><g id="Layer_2" data-name="Layer 2"><g id="Layer_1-2" data-name="Layer 1"><g id="volume_up" data-name="volume up"><path d="M37.35.21a2.49,2.49,0,0,0-2.7.46L13.86,19.93H6.53A6.54,6.54,0,0,0,0,26.46v6.37a6.54,6.54,0,0,0,6.53,6.53h7.33L34.65,58.62a2.5,2.5,0,0,0,4.2-1.83V2.5A2.51,2.51,0,0,0,37.35.21Z"/><path d="M50.46,46.74a2.5,2.5,0,0,1-1.77-4.27,18.16,18.16,0,0,0,0-25.65,2.5,2.5,0,0,1,3.53-3.54,23.16,23.16,0,0,1,0,32.73A2.48,2.48,0,0,1,50.46,46.74Z"/><path d="M45,37a2.49,2.49,0,0,1-1.77-.73,2.52,2.52,0,0,1,0-3.54,4.38,4.38,0,0,0,0-6.19A2.5,2.5,0,1,1,46.79,23a9.39,9.39,0,0,1,0,13.27A2.49,2.49,0,0,1,45,37Z"/></g></g></g></svg>