<svg xmlns="http://www.w3.org/2000/svg" viewBox="0 0 59 59.29"><title>volume off</title><g id="Layer_2" data-name="Layer 2"><g id="Layer_1-2" data-name="Layer 1"><g id="volume_off" data-name="volume off"><path d="M58.27,54.88,38.12,34.73h0L4.27.88A2.5,2.5,0,1,0,.73,4.41L15.1,18.78l-1.24,1.15H6.53A6.54,6.54,0,0,0,0,26.46v6.37a6.54,6.54,0,0,0,6.53,6.53h7.33L34.65,58.62a2.5,2.5,0,0,0,4.2-1.83V42.53L54.73,58.41a2.5,2.5,0,0,0,3.54-3.53Z"/><path d="M34.58,24.12a2.5,2.5,0,0,0,4.27-1.77V2.5A2.5,2.5,0,0,0,34.65.67l-10.3,9.55a2.5,2.5,0,0,0-.07,3.6Z"/><path d="M51.65,38.59A2.5,2.5,0,0,0,56,41.06a23.21,23.21,0,0,0-3.78-27.78,2.5,2.5,0,0,0-3.53,3.54A18.18,18.18,0,0,1,51.65,38.59Z"/><path d="M44.21,31.29a2.51,2.51,0,0,0,1.38,3.26,2.41,2.41,0,0,0,.94.18,2.49,2.49,0,0,0,2.32-1.56A9.37,9.37,0,0,0,46.79,23a2.5,2.5,0,1,0-3.54,3.54A4.35,4.35,0,0,1,44.21,31.29Z"/></g></g></g></svg>