<svg xmlns="http://www.w3.org/2000/svg" viewBox="0 0 59 29"><title>vpn key</title><g id="Layer_2" data-name="Layer 2"><g id="Layer_1-2" data-name="Layer 1"><path id="vpn_key" data-name="vpn key" d="M48.72,0h-.44A10.29,10.29,0,0,0,38,10.28V12H2.5A2.5,2.5,0,0,0,0,14.5V25.63a2.5,2.5,0,0,0,2.5,2.5h16a2.5,2.5,0,0,0,2.5-2.5V17H38v1.72A10.29,10.29,0,0,0,48.28,29h.44A10.29,10.29,0,0,0,59,18.72V10.28A10.29,10.29,0,0,0,48.72,0ZM54,18.72A5.29,5.29,0,0,1,48.72,24h-.44A5.29,5.29,0,0,1,43,18.72V10.28A5.29,5.29,0,0,1,48.28,5h.44A5.29,5.29,0,0,1,54,10.28Z"/></g></g></svg>