<svg xmlns="http://www.w3.org/2000/svg" viewBox="0 0 59 59"><title>wallet</title><g id="Layer_2" data-name="Layer 2"><g id="Layer_1-2" data-name="Layer 1"><g id="wallet"><path d="M49,14V10.5A10.51,10.51,0,0,0,38.5,0h-28A10.51,10.51,0,0,0,0,10.5v38A10.51,10.51,0,0,0,10.5,59h38A10.51,10.51,0,0,0,59,48.5v-24A10.5,10.5,0,0,0,49,14ZM8.5,14A3.5,3.5,0,0,1,5,10.5,5.51,5.51,0,0,1,10.5,5h28A5.51,5.51,0,0,1,44,10.5V14H8.5ZM53,44.5H40.5a8,8,0,0,1,0-16H53Z"/><circle cx="44.5" cy="36.5" r="3"/></g></g></g></svg>