<svg xmlns="http://www.w3.org/2000/svg" viewBox="0 0 59 43.43"><title>wifi</title><g id="Layer_2" data-name="Layer 2"><g id="Layer_1-2" data-name="Layer 1"><g id="wifi"><path d="M56.05,16.88A3,3,0,0,1,54,16,34.64,34.64,0,0,0,5,16,3,3,0,0,1,.86,11.84a40.55,40.55,0,0,1,57.28,0,3,3,0,0,1-2.09,5Z"/><path d="M48.46,24.46a2.9,2.9,0,0,1-2.08-.86,23.88,23.88,0,0,0-33.76,0,2.95,2.95,0,0,1-4.17-4.17,29.77,29.77,0,0,1,42.1,0,2.95,2.95,0,0,1-2.09,5Z"/><path d="M40.88,32.05a2.94,2.94,0,0,1-2.09-.87,13.16,13.16,0,0,0-18.58,0A2.95,2.95,0,1,1,16,27,19.06,19.06,0,0,1,43,27a3,3,0,0,1-2.08,5Z"/><path d="M29.5,43.43a3,3,0,0,1-2.09-.87l-3.79-3.79a3,3,0,0,1,0-4.17,8.3,8.3,0,0,1,11.76,0,3,3,0,0,1,0,4.17l-3.79,3.79A3,3,0,0,1,29.5,43.43Z"/></g></g></g></svg>