<svg xmlns="http://www.w3.org/2000/svg" viewBox="0 0 59 59"><title>wifi off</title><g id="Layer_2" data-name="Layer 2"><g id="Layer_1-2" data-name="Layer 1"><g id="wifi_off" data-name="wifi off"><path d="M54,23.8a3,3,0,0,0,4.17,0,3,3,0,0,0,0-4.17A40.49,40.49,0,0,0,20,8.91L25.09,14A34.52,34.52,0,0,1,54,23.8Z"/><path d="M36.58,25.46a23.73,23.73,0,0,1,9.8,5.93,2.95,2.95,0,1,0,4.17-4.17A29.53,29.53,0,0,0,29.62,18.5Z"/><path d="M29.5,40a8.23,8.23,0,0,0-5.88,2.44,2.94,2.94,0,0,0-.86,2.08,3,3,0,0,0,.86,2.09l3.8,3.79a3,3,0,0,0,4.17,0l3.79-3.79a3,3,0,0,0,0-4.17A8.23,8.23,0,0,0,29.5,40Z"/><path d="M5,.86A3,3,0,0,0,.87,5l8.24,8.24A40.69,40.69,0,0,0,.87,19.63,2.95,2.95,0,0,0,5,23.8a34.78,34.78,0,0,1,8.41-6.18l3.6,3.6a29.91,29.91,0,0,0-8.6,6,2.95,2.95,0,0,0,4.17,4.17,23.76,23.76,0,0,1,9-5.64l3.91,3.92A18.82,18.82,0,0,0,16,34.8,2.95,2.95,0,0,0,20.21,39a13.11,13.11,0,0,1,10.85-3.74L54,58.14A3,3,0,0,0,58.14,54Z"/></g></g></g></svg>