<svg xmlns="http://www.w3.org/2000/svg" viewBox="0 0 52 59"><title>window</title><g id="Layer_2" data-name="Layer 2"><g id="Layer_1-2" data-name="Layer 1"><g id="window"><path d="M11.5,11a2.5,2.5,0,0,0,0-5h-9A2.5,2.5,0,0,0,0,8.5v42A2.5,2.5,0,0,0,2.5,53h9a2.5,2.5,0,0,0,0-5H5V11Z"/><path d="M50.24,8.11l-26-8A2.53,2.53,0,0,0,22,.49a2.52,2.52,0,0,0-1,2v54A2.49,2.49,0,0,0,23.5,59a2.71,2.71,0,0,0,.74-.11l26-8A2.5,2.5,0,0,0,52,48.5v-38A2.5,2.5,0,0,0,50.24,8.11ZM35,32.67a2.5,2.5,0,0,1-5,0V26.33a2.5,2.5,0,0,1,5,0Z"/></g></g></g></svg>