<svg xmlns="http://www.w3.org/2000/svg" viewBox="0 0 60 60"><title>work off</title><g id="Layer_2" data-name="Layer 2"><g id="Layer_1-2" data-name="Layer 1"><g id="work_off" data-name="work off"><path d="M30,8.5a8.51,8.51,0,0,1,8.12,6H25.81L59.44,48.12A10.37,10.37,0,0,0,59.5,47V25A10.51,10.51,0,0,0,49,14.5H44.27A14.47,14.47,0,0,0,19,7.64l4.29,4.29A8.54,8.54,0,0,1,30,8.5Z"/><path d="M59.12,54.88l-54-54A3,3,0,0,0,.88,5.12l9.41,9.42A10.5,10.5,0,0,0,.5,25V47A10.51,10.51,0,0,0,11,57.5H49a10.45,10.45,0,0,0,3.6-.65l2.28,2.27a3,3,0,0,0,4.24,0A3,3,0,0,0,59.12,54.88Z"/></g></g></g></svg>