<svg xmlns="http://www.w3.org/2000/svg" viewBox="0 0 37 59"><title>wristwatch</title><g id="Layer_2" data-name="Layer 2"><g id="Layer_1-2" data-name="Layer 1"><path id="wristwatch" d="M34.5,27H32.79a16.5,16.5,0,0,0-6.46-10.72V6.5A6.51,6.51,0,0,0,19.83,0H13.17a6.51,6.51,0,0,0-6.5,6.5v9.78a16.44,16.44,0,0,0,0,26.44V52.5a6.51,6.51,0,0,0,6.5,6.5h6.66a6.51,6.51,0,0,0,6.5-6.5V42.72A16.5,16.5,0,0,0,32.79,32H34.5a2.5,2.5,0,0,0,0-5ZM11.67,6.5A1.5,1.5,0,0,1,13.17,5h6.66a1.5,1.5,0,0,1,1.5,1.5v7.22a16.56,16.56,0,0,0-9.66,0Zm9.66,46a1.5,1.5,0,0,1-1.5,1.5H13.17a1.5,1.5,0,0,1-1.5-1.5V45.28a16.56,16.56,0,0,0,9.66,0Zm.38-17.79a2.51,2.51,0,0,1-3.54,0l-3.44-3.44A2.51,2.51,0,0,1,14,29.5v-6a2.5,2.5,0,0,1,5,0v5l2.71,2.71A2.5,2.5,0,0,1,21.71,34.71Z"/></g></g></svg>