<svg xmlns="http://www.w3.org/2000/svg" viewBox="0 0 59 44.81"><title>youtube</title><g id="Layer_2" data-name="Layer 2"><g id="Layer_1-2" data-name="Layer 1"><g id="youtube"><path d="M49.85.46C43.09.15,36.29,0,29.5,0S15.9.15,9.15.46A9.55,9.55,0,0,0,0,10V34.81a9.55,9.55,0,0,0,9.15,9.54c6.75.3,13.55.46,20.35.46s13.59-.16,20.35-.46A9.55,9.55,0,0,0,59,34.81V10A9.55,9.55,0,0,0,49.85.46ZM39.31,25.74,27.44,32.41a3.78,3.78,0,0,1-3.81,0,3.8,3.8,0,0,1-1.89-3.3V15.73a3.82,3.82,0,0,1,5.7-3.33l11.87,6.67a3.84,3.84,0,0,1,0,6.67ZM26.74,27.07,35,22.4l-8.29-4.66Z"/></g></g></g></svg>